<svg class="main-svg" xmlns="http://www.w3.org/2000/svg" xmlns:xlink="http://www.w3.org/1999/xlink" width="550" height="500" viewBox="0 0 550 500"><rect x="0" y="0" width="550" height="500" style="fill: rgb(255, 255, 255); fill-opacity: 1;"/><defs id="defs-3c5188"><g class="clips"><clipPath id="clip3c5188xyplot" class="plotclip"><rect width="390" height="320"/></clipPath><clipPath class="axesclip" id="clip3c5188x"><rect x="80" y="0" width="390" height="500"/></clipPath><clipPath class="axesclip" id="clip3c5188y"><rect x="0" y="100" width="550" height="320"/></clipPath><clipPath class="axesclip" id="clip3c5188xy"><rect x="80" y="100" width="390" height="320"/></clipPath></g><g class="gradients"/></defs><g class="bglayer"><rect class="bg" x="80" y="100" width="390" height="320" style="fill: rgb(255, 255, 255); fill-opacity: 1; stroke-width: 0;"/></g><g class="layer-below"><g class="imagelayer"/><g class="shapelayer"/></g><g class="cartesianlayer"><g class="subplot xy"><g class="layer-subplot"><g class="shapelayer"/><g class="imagelayer"/></g><g class="gridlayer"><g class="x"><path class="xgrid crisp" transform="translate(158,0)" d="M0,100v320" style="stroke: rgb(223, 223, 223); stroke-opacity: 1; stroke-width: 0.5px;"/><path class="xgrid crisp" transform="translate(236,0)" d="M0,100v320" style="stroke: rgb(223, 223, 223); stroke-opacity: 1; stroke-width: 0.5px;"/><path class="xgrid crisp" transform="translate(314,0)" d="M0,100v320" style="stroke: rgb(223, 223, 223); stroke-opacity: 1; stroke-width: 0.5px;"/><path class="xgrid crisp" transform="translate(392,0)" d="M0,100v320" style="stroke: rgb(223, 223, 223); stroke-opacity: 1; stroke-width: 0.5px;"/></g><g class="y"><path class="ygrid crisp" transform="translate(0,356)" d="M80,0h390" style="stroke: rgb(223, 223, 223); stroke-opacity: 1; stroke-width: 0.5px;"/><path class="ygrid crisp" transform="translate(0,292)" d="M80,0h390" style="stroke: rgb(223, 223, 223); stroke-opacity: 1; stroke-width: 0.5px;"/><path class="ygrid crisp" transform="translate(0,228)" d="M80,0h390" style="stroke: rgb(223, 223, 223); stroke-opacity: 1; stroke-width: 0.5px;"/><path class="ygrid crisp" transform="translate(0,164)" d="M80,0h390" style="stroke: rgb(223, 223, 223); stroke-opacity: 1; stroke-width: 0.5px;"/></g></g><g class="zerolinelayer"/><path class="xlines-below"/><path class="ylines-below"/><g class="overlines-below"/><g class="xaxislayer-below"/><g class="yaxislayer-below"/><g class="overaxes-below"/><g class="plot" transform="translate(80, 100)" clip-path="url('#clip3c5188xyplot')"><g class="scatterlayer mlayer"><g class="trace scatter trace92c562" style="stroke-miterlimit: 2; opacity: 1;"><g class="fills"/><g class="errorbars"><g class="errorbar"><path class="yerror" d="M54.5,228.62h8m-4,0V271.18m-4,0h8" style="vector-effect: non-scaling-stroke; stroke-width: 2px; stroke: rgb(252, 141, 98); stroke-opacity: 1;"/></g><g class="errorbar"><path class="yerror" d="M83.75,207.69h8m-4,0V252.13m-4,0h8" style="vector-effect: non-scaling-stroke; stroke-width: 2px; stroke: rgb(252, 141, 98); stroke-opacity: 1;"/></g><g class="errorbar"><path class="yerror" d="M113,208.66h8m-4,0V255.66m-4,0h8" style="vector-effect: non-scaling-stroke; stroke-width: 2px; stroke: rgb(252, 141, 98); stroke-opacity: 1;"/></g><g class="errorbar"><path class="yerror" d="M142.25,204.71h8m-4,0V244.02m-4,0h8" style="vector-effect: non-scaling-stroke; stroke-width: 2px; stroke: rgb(252, 141, 98); stroke-opacity: 1;"/></g><g class="errorbar"><path class="yerror" d="M171.5,208.27h8m-4,0V242.72m-4,0h8" style="vector-effect: non-scaling-stroke; stroke-width: 2px; stroke: rgb(252, 141, 98); stroke-opacity: 1;"/></g><g class="errorbar"><path class="yerror" d="M200.75,242.53h8m-4,0V287.05m-4,0h8" style="vector-effect: non-scaling-stroke; stroke-width: 2px; stroke: rgb(252, 141, 98); stroke-opacity: 1;"/></g><g class="errorbar"><path class="yerror" d="M249.5,216.59h8m-4,0V255.01m-4,0h8" style="vector-effect: non-scaling-stroke; stroke-width: 2px; stroke: rgb(252, 141, 98); stroke-opacity: 1;"/></g><g class="errorbar"><path class="yerror" d="M298.25,185.03h8m-4,0V231.68m-4,0h8" style="vector-effect: non-scaling-stroke; stroke-width: 2px; stroke: rgb(252, 141, 98); stroke-opacity: 1;"/></g><g class="errorbar"><path class="yerror" d="M327.5,175.77h8m-4,0V225.16m-4,0h8" style="vector-effect: non-scaling-stroke; stroke-width: 2px; stroke: rgb(252, 141, 98); stroke-opacity: 1;"/></g><g class="errorbar"><path class="yerror" d="M356.75,182.96h8m-4,0V243.02m-4,0h8" style="vector-effect: non-scaling-stroke; stroke-width: 2px; stroke: rgb(252, 141, 98); stroke-opacity: 1;"/></g></g><g class="lines"><path class="js-line" d="M58.5,249.9L87.75,229.91L117,232.16L146.25,224.37L175.5,225.5L204.75,264.79L253.5,235.8L302.25,208.36L331.5,200.47L360.75,212.99" style="vector-effect: non-scaling-stroke; fill: none; stroke: rgb(252, 141, 98); stroke-opacity: 1; stroke-width: 2.5px; opacity: 1;"/></g><g class="points"><path class="point" transform="translate(58.5,249.9)" d="M5,0A5,5 0 1,1 0,-5A5,5 0 0,1 5,0Z" style="opacity: 1; stroke-width: 3px; fill: rgb(252, 141, 98); fill-opacity: 1; stroke: rgb(0, 0, 0); stroke-opacity: 1;"/><path class="point" transform="translate(87.75,229.91)" d="M5,0A5,5 0 1,1 0,-5A5,5 0 0,1 5,0Z" style="opacity: 1; stroke-width: 3px; fill: rgb(252, 141, 98); fill-opacity: 1; stroke: rgb(0, 0, 0); stroke-opacity: 1;"/><path class="point" transform="translate(117,232.16)" d="M5,0A5,5 0 1,1 0,-5A5,5 0 0,1 5,0Z" style="opacity: 1; stroke-width: 3px; fill: rgb(252, 141, 98); fill-opacity: 1; stroke: rgb(0, 0, 0); stroke-opacity: 1;"/><path class="point" transform="translate(146.25,224.37)" d="M5,0A5,5 0 1,1 0,-5A5,5 0 0,1 5,0Z" style="opacity: 1; stroke-width: 3px; fill: rgb(252, 141, 98); fill-opacity: 1; stroke: rgb(0, 0, 0); stroke-opacity: 1;"/><path class="point" transform="translate(175.5,225.5)" d="M5,0A5,5 0 1,1 0,-5A5,5 0 0,1 5,0Z" style="opacity: 1; stroke-width: 3px; fill: rgb(252, 141, 98); fill-opacity: 1; stroke: rgb(0, 0, 0); stroke-opacity: 1;"/><path class="point" transform="translate(204.75,264.79)" d="M5,0A5,5 0 1,1 0,-5A5,5 0 0,1 5,0Z" style="opacity: 1; stroke-width: 3px; fill: rgb(252, 141, 98); fill-opacity: 1; stroke: rgb(0, 0, 0); stroke-opacity: 1;"/><path class="point" transform="translate(253.5,235.8)" d="M5,0A5,5 0 1,1 0,-5A5,5 0 0,1 5,0Z" style="opacity: 1; stroke-width: 3px; fill: rgb(252, 141, 98); fill-opacity: 1; stroke: rgb(0, 0, 0); stroke-opacity: 1;"/><path class="point" transform="translate(302.25,208.36)" d="M5,0A5,5 0 1,1 0,-5A5,5 0 0,1 5,0Z" style="opacity: 1; stroke-width: 3px; fill: rgb(252, 141, 98); fill-opacity: 1; stroke: rgb(0, 0, 0); stroke-opacity: 1;"/><path class="point" transform="translate(331.5,200.47)" d="M5,0A5,5 0 1,1 0,-5A5,5 0 0,1 5,0Z" style="opacity: 1; stroke-width: 3px; fill: rgb(252, 141, 98); fill-opacity: 1; stroke: rgb(0, 0, 0); stroke-opacity: 1;"/><path class="point" transform="translate(360.75,212.99)" d="M5,0A5,5 0 1,1 0,-5A5,5 0 0,1 5,0Z" style="opacity: 1; stroke-width: 3px; fill: rgb(252, 141, 98); fill-opacity: 1; stroke: rgb(0, 0, 0); stroke-opacity: 1;"/></g><g class="text"/></g><g class="trace scatter trace5f0c60" style="stroke-miterlimit: 2; opacity: 1;"><g class="fills"/><g class="errorbars"><g class="errorbar"><path class="yerror" d="M54.5,56.97h8m-4,0V119.16m-4,0h8" style="vector-effect: non-scaling-stroke; stroke-width: 2px; stroke: rgb(141, 160, 203); stroke-opacity: 1;"/></g><g class="errorbar"><path class="yerror" d="M83.75,28.17h8m-4,0V125.17m-4,0h8" style="vector-effect: non-scaling-stroke; stroke-width: 2px; stroke: rgb(141, 160, 203); stroke-opacity: 1;"/></g><g class="errorbar"><path class="yerror" d="M113,71.09h8m-4,0V147.46m-4,0h8" style="vector-effect: non-scaling-stroke; stroke-width: 2px; stroke: rgb(141, 160, 203); stroke-opacity: 1;"/></g><g class="errorbar"><path class="yerror" d="M142.25,93.52h8m-4,0V150.76m-4,0h8" style="vector-effect: non-scaling-stroke; stroke-width: 2px; stroke: rgb(141, 160, 203); stroke-opacity: 1;"/></g><g class="errorbar"><path class="yerror" d="M171.5,104.49h8m-4,0V152.4m-4,0h8" style="vector-effect: non-scaling-stroke; stroke-width: 2px; stroke: rgb(141, 160, 203); stroke-opacity: 1;"/></g><g class="errorbar"><path class="yerror" d="M200.75,126.93h8m-4,0V163.8m-4,0h8" style="vector-effect: non-scaling-stroke; stroke-width: 2px; stroke: rgb(141, 160, 203); stroke-opacity: 1;"/></g><g class="errorbar"><path class="yerror" d="M249.5,63.85h8m-4,0V139.97m-4,0h8" style="vector-effect: non-scaling-stroke; stroke-width: 2px; stroke: rgb(141, 160, 203); stroke-opacity: 1;"/></g><g class="errorbar"><path class="yerror" d="M298.25,57.95h8m-4,0V113.99m-4,0h8" style="vector-effect: non-scaling-stroke; stroke-width: 2px; stroke: rgb(141, 160, 203); stroke-opacity: 1;"/></g><g class="errorbar"><path class="yerror" d="M327.5,136.85h8m-4,0V189.83m-4,0h8" style="vector-effect: non-scaling-stroke; stroke-width: 2px; stroke: rgb(141, 160, 203); stroke-opacity: 1;"/></g><g class="errorbar"><path class="yerror" d="M356.75,149.31h8m-4,0V189.59m-4,0h8" style="vector-effect: non-scaling-stroke; stroke-width: 2px; stroke: rgb(141, 160, 203); stroke-opacity: 1;"/></g></g><g class="lines"><path class="js-line" d="M58.5,88.07L87.75,76.67L117,109.27L146.25,122.14L175.5,128.44L204.75,145.36L253.5,101.91L302.25,85.97L331.5,163.34L360.75,169.45" style="vector-effect: non-scaling-stroke; fill: none; stroke: rgb(141, 160, 203); stroke-opacity: 1; stroke-width: 2.5px; opacity: 1;"/></g><g class="points"><path class="point" transform="translate(58.5,88.07)" d="M5,0A5,5 0 1,1 0,-5A5,5 0 0,1 5,0Z" style="opacity: 1; stroke-width: 3px; fill: rgb(141, 160, 203); fill-opacity: 1; stroke: rgb(0, 0, 0); stroke-opacity: 1;"/><path class="point" transform="translate(87.75,76.67)" d="M5,0A5,5 0 1,1 0,-5A5,5 0 0,1 5,0Z" style="opacity: 1; stroke-width: 3px; fill: rgb(141, 160, 203); fill-opacity: 1; stroke: rgb(0, 0, 0); stroke-opacity: 1;"/><path class="point" transform="translate(117,109.27)" d="M5,0A5,5 0 1,1 0,-5A5,5 0 0,1 5,0Z" style="opacity: 1; stroke-width: 3px; fill: rgb(141, 160, 203); fill-opacity: 1; stroke: rgb(0, 0, 0); stroke-opacity: 1;"/><path class="point" transform="translate(146.25,122.14)" d="M5,0A5,5 0 1,1 0,-5A5,5 0 0,1 5,0Z" style="opacity: 1; stroke-width: 3px; fill: rgb(141, 160, 203); fill-opacity: 1; stroke: rgb(0, 0, 0); stroke-opacity: 1;"/><path class="point" transform="translate(175.5,128.44)" d="M5,0A5,5 0 1,1 0,-5A5,5 0 0,1 5,0Z" style="opacity: 1; stroke-width: 3px; fill: rgb(141, 160, 203); fill-opacity: 1; stroke: rgb(0, 0, 0); stroke-opacity: 1;"/><path class="point" transform="translate(204.75,145.36)" d="M5,0A5,5 0 1,1 0,-5A5,5 0 0,1 5,0Z" style="opacity: 1; stroke-width: 3px; fill: rgb(141, 160, 203); fill-opacity: 1; stroke: rgb(0, 0, 0); stroke-opacity: 1;"/><path class="point" transform="translate(253.5,101.91)" d="M5,0A5,5 0 1,1 0,-5A5,5 0 0,1 5,0Z" style="opacity: 1; stroke-width: 3px; fill: rgb(141, 160, 203); fill-opacity: 1; stroke: rgb(0, 0, 0); stroke-opacity: 1;"/><path class="point" transform="translate(302.25,85.97)" d="M5,0A5,5 0 1,1 0,-5A5,5 0 0,1 5,0Z" style="opacity: 1; stroke-width: 3px; fill: rgb(141, 160, 203); fill-opacity: 1; stroke: rgb(0, 0, 0); stroke-opacity: 1;"/><path class="point" transform="translate(331.5,163.34)" d="M5,0A5,5 0 1,1 0,-5A5,5 0 0,1 5,0Z" style="opacity: 1; stroke-width: 3px; fill: rgb(141, 160, 203); fill-opacity: 1; stroke: rgb(0, 0, 0); stroke-opacity: 1;"/><path class="point" transform="translate(360.75,169.45)" d="M5,0A5,5 0 1,1 0,-5A5,5 0 0,1 5,0Z" style="opacity: 1; stroke-width: 3px; fill: rgb(141, 160, 203); fill-opacity: 1; stroke: rgb(0, 0, 0); stroke-opacity: 1;"/></g><g class="text"/></g><g class="trace scatter traceb11b75" style="stroke-miterlimit: 2; opacity: 1;"><g class="fills"/><g class="errorbars"/><g class="lines"><path class="js-line" d="M0,256L390,256" style="vector-effect: non-scaling-stroke; fill: none; stroke: rgb(128, 128, 128); stroke-opacity: 1; stroke-width: 3px; opacity: 1; stroke-dasharray: 15px, 6px, 3px, 6px;"/></g><g class="points"/><g class="text"/></g></g></g><g class="overplot"/><path class="xlines-above crisp" d="M78,421H470" style="fill: none; stroke-width: 2px; stroke: rgb(175, 175, 175); stroke-opacity: 1;"/><path class="ylines-above crisp" d="M79,100V420" style="fill: none; stroke-width: 2px; stroke: rgb(175, 175, 175); stroke-opacity: 1;"/><g class="overlines-above"/><g class="xaxislayer-above"><g class="xtick"><text text-anchor="middle" x="0" y="441.2" transform="translate(80,0)" style="font-family: 'Open Sans', verdana, arial, sans-serif; font-size: 16px; fill: rgb(42, 63, 95); fill-opacity: 1; white-space: pre;">0.6</text></g><g class="xtick"><text text-anchor="middle" x="0" y="441.2" transform="translate(158,0)" style="font-family: 'Open Sans', verdana, arial, sans-serif; font-size: 16px; fill: rgb(42, 63, 95); fill-opacity: 1; white-space: pre;">0.8</text></g><g class="xtick"><text text-anchor="middle" x="0" y="441.2" transform="translate(236,0)" style="font-family: 'Open Sans', verdana, arial, sans-serif; font-size: 16px; fill: rgb(42, 63, 95); fill-opacity: 1; white-space: pre;">1</text></g><g class="xtick"><text text-anchor="middle" x="0" y="441.2" transform="translate(314,0)" style="font-family: 'Open Sans', verdana, arial, sans-serif; font-size: 16px; fill: rgb(42, 63, 95); fill-opacity: 1; white-space: pre;">1.2</text></g><g class="xtick"><text text-anchor="middle" x="0" y="441.2" transform="translate(392,0)" style="font-family: 'Open Sans', verdana, arial, sans-serif; font-size: 16px; fill: rgb(42, 63, 95); fill-opacity: 1; white-space: pre;">1.4</text></g><g class="xtick"><text text-anchor="middle" x="0" y="441.2" transform="translate(470,0)" style="font-family: 'Open Sans', verdana, arial, sans-serif; font-size: 16px; fill: rgb(42, 63, 95); fill-opacity: 1; white-space: pre;">1.6</text></g></g><g class="yaxislayer-above"><g class="ytick"><text text-anchor="end" x="74.8" y="5.6" transform="translate(0,420)" style="font-family: 'Open Sans', verdana, arial, sans-serif; font-size: 16px; fill: rgb(42, 63, 95); fill-opacity: 1; white-space: pre;">0.9</text></g><g class="ytick"><text text-anchor="end" x="74.8" y="5.6" transform="translate(0,356)" style="font-family: 'Open Sans', verdana, arial, sans-serif; font-size: 16px; fill: rgb(42, 63, 95); fill-opacity: 1; white-space: pre;">1</text></g><g class="ytick"><text text-anchor="end" x="74.8" y="5.6" transform="translate(0,292)" style="font-family: 'Open Sans', verdana, arial, sans-serif; font-size: 16px; fill: rgb(42, 63, 95); fill-opacity: 1; white-space: pre;">1.1</text></g><g class="ytick"><text text-anchor="end" x="74.8" y="5.6" transform="translate(0,228)" style="font-family: 'Open Sans', verdana, arial, sans-serif; font-size: 16px; fill: rgb(42, 63, 95); fill-opacity: 1; white-space: pre;">1.2</text></g><g class="ytick"><text text-anchor="end" x="74.8" y="5.6" transform="translate(0,164)" style="font-family: 'Open Sans', verdana, arial, sans-serif; font-size: 16px; fill: rgb(42, 63, 95); fill-opacity: 1; white-space: pre;">1.3</text></g><g class="ytick"><text text-anchor="end" x="74.8" y="5.6" transform="translate(0,100)" style="font-family: 'Open Sans', verdana, arial, sans-serif; font-size: 16px; fill: rgb(42, 63, 95); fill-opacity: 1; white-space: pre;">1.4</text></g></g><g class="overaxes-above"/></g></g><g class="polarlayer"/><g class="ternarylayer"/><g class="geolayer"/><g class="funnelarealayer"/><g class="pielayer"/><g class="sunburstlayer"/><g class="glimages"/><defs id="topdefs-3c5188"><g class="clips"/></defs><g class="layer-above"><g class="imagelayer"/><g class="shapelayer"/></g><g class="infolayer"><g class="g-gtitle"/><g class="g-xtitle"><text class="xtitle" x="275" y="488" text-anchor="middle" style="font-family: 'Open Sans', verdana, arial, sans-serif; font-size: 19px; fill: rgb(42, 63, 95); opacity: 1; font-weight: normal; white-space: pre;">Actual Duration (sec)</text></g><g class="g-ytitle"><text class="ytitle" transform="rotate(-90,31,260)" x="31" y="260" text-anchor="middle" style="font-family: 'Open Sans', verdana, arial, sans-serif; font-size: 19px; fill: rgb(42, 63, 95); opacity: 1; font-weight: normal; white-space: pre;">Average Ratio Reported</text></g></g></svg>