<svg class="main-svg" xmlns="http://www.w3.org/2000/svg" xmlns:xlink="http://www.w3.org/1999/xlink" width="550" height="500" viewBox="0 0 550 500"><rect x="0" y="0" width="550" height="500" style="fill: rgb(255, 255, 255); fill-opacity: 1;"/><defs id="defs-7a22a6"><g class="clips"><clipPath id="clip7a22a6xyplot" class="plotclip"><rect width="390" height="320"/></clipPath><clipPath class="axesclip" id="clip7a22a6x"><rect x="80" y="0" width="390" height="500"/></clipPath><clipPath class="axesclip" id="clip7a22a6y"><rect x="0" y="100" width="550" height="320"/></clipPath><clipPath class="axesclip" id="clip7a22a6xy"><rect x="80" y="100" width="390" height="320"/></clipPath></g><g class="gradients"/></defs><g class="bglayer"><rect class="bg" x="80" y="100" width="390" height="320" style="fill: rgb(255, 255, 255); fill-opacity: 1; stroke-width: 0;"/></g><g class="layer-below"><g class="imagelayer"/><g class="shapelayer"/></g><g class="cartesianlayer"><g class="subplot xy"><g class="layer-subplot"><g class="shapelayer"/><g class="imagelayer"/></g><g class="gridlayer"><g class="x"><path class="xgrid crisp" transform="translate(158,0)" d="M0,100v320" style="stroke: rgb(223, 223, 223); stroke-opacity: 1; stroke-width: 0.5px;"/><path class="xgrid crisp" transform="translate(236,0)" d="M0,100v320" style="stroke: rgb(223, 223, 223); stroke-opacity: 1; stroke-width: 0.5px;"/><path class="xgrid crisp" transform="translate(314,0)" d="M0,100v320" style="stroke: rgb(223, 223, 223); stroke-opacity: 1; stroke-width: 0.5px;"/><path class="xgrid crisp" transform="translate(392,0)" d="M0,100v320" style="stroke: rgb(223, 223, 223); stroke-opacity: 1; stroke-width: 0.5px;"/></g><g class="y"><path class="ygrid crisp" transform="translate(0,380)" d="M80,0h390" style="stroke: rgb(223, 223, 223); stroke-opacity: 1; stroke-width: 0.5px;"/><path class="ygrid crisp" transform="translate(0,340)" d="M80,0h390" style="stroke: rgb(223, 223, 223); stroke-opacity: 1; stroke-width: 0.5px;"/><path class="ygrid crisp" transform="translate(0,300)" d="M80,0h390" style="stroke: rgb(223, 223, 223); stroke-opacity: 1; stroke-width: 0.5px;"/><path class="ygrid crisp" transform="translate(0,260)" d="M80,0h390" style="stroke: rgb(223, 223, 223); stroke-opacity: 1; stroke-width: 0.5px;"/><path class="ygrid crisp" transform="translate(0,220)" d="M80,0h390" style="stroke: rgb(223, 223, 223); stroke-opacity: 1; stroke-width: 0.5px;"/><path class="ygrid crisp" transform="translate(0,180)" d="M80,0h390" style="stroke: rgb(223, 223, 223); stroke-opacity: 1; stroke-width: 0.5px;"/><path class="ygrid crisp" transform="translate(0,140)" d="M80,0h390" style="stroke: rgb(223, 223, 223); stroke-opacity: 1; stroke-width: 0.5px;"/></g></g><g class="zerolinelayer"/><path class="xlines-below"/><path class="ylines-below"/><g class="overlines-below"/><g class="xaxislayer-below"/><g class="yaxislayer-below"/><g class="overaxes-below"/><g class="plot" transform="translate(80, 100)" clip-path="url('#clip7a22a6xyplot')"><g class="scatterlayer mlayer"><g class="trace scatter trace8da451" style="stroke-miterlimit: 2; opacity: 1;"><g class="fills"/><g class="errorbars"><g class="errorbar"><path class="yerror" d="M54.5,204.51h8m-4,0V250.74m-4,0h8" style="vector-effect: non-scaling-stroke; stroke-width: 2px; stroke: rgb(252, 141, 98); stroke-opacity: 1;"/></g><g class="errorbar"><path class="yerror" d="M83.75,169.41h8m-4,0V231.53m-4,0h8" style="vector-effect: non-scaling-stroke; stroke-width: 2px; stroke: rgb(252, 141, 98); stroke-opacity: 1;"/></g><g class="errorbar"><path class="yerror" d="M113,207.41h8m-4,0V242.33m-4,0h8" style="vector-effect: non-scaling-stroke; stroke-width: 2px; stroke: rgb(252, 141, 98); stroke-opacity: 1;"/></g><g class="errorbar"><path class="yerror" d="M142.25,197.46h8m-4,0V244.5m-4,0h8" style="vector-effect: non-scaling-stroke; stroke-width: 2px; stroke: rgb(252, 141, 98); stroke-opacity: 1;"/></g><g class="errorbar"><path class="yerror" d="M171.5,161.48h8m-4,0V196.76m-4,0h8" style="vector-effect: non-scaling-stroke; stroke-width: 2px; stroke: rgb(252, 141, 98); stroke-opacity: 1;"/></g><g class="errorbar"><path class="yerror" d="M200.75,150.49h8m-4,0V205.43m-4,0h8" style="vector-effect: non-scaling-stroke; stroke-width: 2px; stroke: rgb(252, 141, 98); stroke-opacity: 1;"/></g><g class="errorbar"><path class="yerror" d="M249.5,210.43h8m-4,0V255.44m-4,0h8" style="vector-effect: non-scaling-stroke; stroke-width: 2px; stroke: rgb(252, 141, 98); stroke-opacity: 1;"/></g><g class="errorbar"><path class="yerror" d="M298.25,265.28h8m-4,0V315.86m-4,0h8" style="vector-effect: non-scaling-stroke; stroke-width: 2px; stroke: rgb(252, 141, 98); stroke-opacity: 1;"/></g><g class="errorbar"><path class="yerror" d="M327.5,236.51h8m-4,0V267.51m-4,0h8" style="vector-effect: non-scaling-stroke; stroke-width: 2px; stroke: rgb(252, 141, 98); stroke-opacity: 1;"/></g><g class="errorbar"><path class="yerror" d="M356.75,212.38h8m-4,0V236.66m-4,0h8" style="vector-effect: non-scaling-stroke; stroke-width: 2px; stroke: rgb(252, 141, 98); stroke-opacity: 1;"/></g></g><g class="lines"><path class="js-line" d="M58.5,227.62L87.75,200.47L117,224.87L146.25,220.98L175.5,179.12L204.75,177.96L253.5,232.94L302.25,290.57L331.5,252.01L360.75,224.52" style="vector-effect: non-scaling-stroke; fill: none; stroke: rgb(252, 141, 98); stroke-opacity: 1; stroke-width: 2.5px; opacity: 1;"/></g><g class="points"><path class="point" transform="translate(58.5,227.62)" d="M5,0A5,5 0 1,1 0,-5A5,5 0 0,1 5,0Z" style="opacity: 1; stroke-width: 3px; fill: rgb(252, 141, 98); fill-opacity: 1; stroke: rgb(0, 0, 0); stroke-opacity: 1;"/><path class="point" transform="translate(87.75,200.47)" d="M5,0A5,5 0 1,1 0,-5A5,5 0 0,1 5,0Z" style="opacity: 1; stroke-width: 3px; fill: rgb(252, 141, 98); fill-opacity: 1; stroke: rgb(0, 0, 0); stroke-opacity: 1;"/><path class="point" transform="translate(117,224.87)" d="M5,0A5,5 0 1,1 0,-5A5,5 0 0,1 5,0Z" style="opacity: 1; stroke-width: 3px; fill: rgb(252, 141, 98); fill-opacity: 1; stroke: rgb(0, 0, 0); stroke-opacity: 1;"/><path class="point" transform="translate(146.25,220.98)" d="M5,0A5,5 0 1,1 0,-5A5,5 0 0,1 5,0Z" style="opacity: 1; stroke-width: 3px; fill: rgb(252, 141, 98); fill-opacity: 1; stroke: rgb(0, 0, 0); stroke-opacity: 1;"/><path class="point" transform="translate(175.5,179.12)" d="M5,0A5,5 0 1,1 0,-5A5,5 0 0,1 5,0Z" style="opacity: 1; stroke-width: 3px; fill: rgb(252, 141, 98); fill-opacity: 1; stroke: rgb(0, 0, 0); stroke-opacity: 1;"/><path class="point" transform="translate(204.75,177.96)" d="M5,0A5,5 0 1,1 0,-5A5,5 0 0,1 5,0Z" style="opacity: 1; stroke-width: 3px; fill: rgb(252, 141, 98); fill-opacity: 1; stroke: rgb(0, 0, 0); stroke-opacity: 1;"/><path class="point" transform="translate(253.5,232.94)" d="M5,0A5,5 0 1,1 0,-5A5,5 0 0,1 5,0Z" style="opacity: 1; stroke-width: 3px; fill: rgb(252, 141, 98); fill-opacity: 1; stroke: rgb(0, 0, 0); stroke-opacity: 1;"/><path class="point" transform="translate(302.25,290.57)" d="M5,0A5,5 0 1,1 0,-5A5,5 0 0,1 5,0Z" style="opacity: 1; stroke-width: 3px; fill: rgb(252, 141, 98); fill-opacity: 1; stroke: rgb(0, 0, 0); stroke-opacity: 1;"/><path class="point" transform="translate(331.5,252.01)" d="M5,0A5,5 0 1,1 0,-5A5,5 0 0,1 5,0Z" style="opacity: 1; stroke-width: 3px; fill: rgb(252, 141, 98); fill-opacity: 1; stroke: rgb(0, 0, 0); stroke-opacity: 1;"/><path class="point" transform="translate(360.75,224.52)" d="M5,0A5,5 0 1,1 0,-5A5,5 0 0,1 5,0Z" style="opacity: 1; stroke-width: 3px; fill: rgb(252, 141, 98); fill-opacity: 1; stroke: rgb(0, 0, 0); stroke-opacity: 1;"/></g><g class="text"/></g><g class="trace scatter tracef39142" style="stroke-miterlimit: 2; opacity: 1;"><g class="fills"/><g class="errorbars"><g class="errorbar"><path class="yerror" d="M54.5,245.23h8m-4,0V285.66m-4,0h8" style="vector-effect: non-scaling-stroke; stroke-width: 2px; stroke: rgb(141, 160, 203); stroke-opacity: 1;"/></g><g class="errorbar"><path class="yerror" d="M83.75,182.88h8m-4,0V236.87m-4,0h8" style="vector-effect: non-scaling-stroke; stroke-width: 2px; stroke: rgb(141, 160, 203); stroke-opacity: 1;"/></g><g class="errorbar"><path class="yerror" d="M113,248.52h8m-4,0V290.03m-4,0h8" style="vector-effect: non-scaling-stroke; stroke-width: 2px; stroke: rgb(141, 160, 203); stroke-opacity: 1;"/></g><g class="errorbar"><path class="yerror" d="M142.25,206.09h8m-4,0V249.61m-4,0h8" style="vector-effect: non-scaling-stroke; stroke-width: 2px; stroke: rgb(141, 160, 203); stroke-opacity: 1;"/></g><g class="errorbar"><path class="yerror" d="M171.5,181.28h8m-4,0V218.04m-4,0h8" style="vector-effect: non-scaling-stroke; stroke-width: 2px; stroke: rgb(141, 160, 203); stroke-opacity: 1;"/></g><g class="errorbar"><path class="yerror" d="M200.75,207.3h8m-4,0V233.42m-4,0h8" style="vector-effect: non-scaling-stroke; stroke-width: 2px; stroke: rgb(141, 160, 203); stroke-opacity: 1;"/></g><g class="errorbar"><path class="yerror" d="M249.5,185.62h8m-4,0V228.21m-4,0h8" style="vector-effect: non-scaling-stroke; stroke-width: 2px; stroke: rgb(141, 160, 203); stroke-opacity: 1;"/></g><g class="errorbar"><path class="yerror" d="M298.25,203.54h8m-4,0V240.15m-4,0h8" style="vector-effect: non-scaling-stroke; stroke-width: 2px; stroke: rgb(141, 160, 203); stroke-opacity: 1;"/></g><g class="errorbar"><path class="yerror" d="M327.5,246.32h8m-4,0V284.47m-4,0h8" style="vector-effect: non-scaling-stroke; stroke-width: 2px; stroke: rgb(141, 160, 203); stroke-opacity: 1;"/></g><g class="errorbar"><path class="yerror" d="M356.75,209.47h8m-4,0V242.6m-4,0h8" style="vector-effect: non-scaling-stroke; stroke-width: 2px; stroke: rgb(141, 160, 203); stroke-opacity: 1;"/></g></g><g class="lines"><path class="js-line" d="M58.5,265.45L87.75,209.87L117,269.27L146.25,227.85L175.5,199.66L204.75,220.36L253.5,206.92L302.25,221.84L331.5,265.4L360.75,226.03" style="vector-effect: non-scaling-stroke; fill: none; stroke: rgb(141, 160, 203); stroke-opacity: 1; stroke-width: 2.5px; opacity: 1;"/></g><g class="points"><path class="point" transform="translate(58.5,265.45)" d="M5,0A5,5 0 1,1 0,-5A5,5 0 0,1 5,0Z" style="opacity: 1; stroke-width: 3px; fill: rgb(141, 160, 203); fill-opacity: 1; stroke: rgb(0, 0, 0); stroke-opacity: 1;"/><path class="point" transform="translate(87.75,209.87)" d="M5,0A5,5 0 1,1 0,-5A5,5 0 0,1 5,0Z" style="opacity: 1; stroke-width: 3px; fill: rgb(141, 160, 203); fill-opacity: 1; stroke: rgb(0, 0, 0); stroke-opacity: 1;"/><path class="point" transform="translate(117,269.27)" d="M5,0A5,5 0 1,1 0,-5A5,5 0 0,1 5,0Z" style="opacity: 1; stroke-width: 3px; fill: rgb(141, 160, 203); fill-opacity: 1; stroke: rgb(0, 0, 0); stroke-opacity: 1;"/><path class="point" transform="translate(146.25,227.85)" d="M5,0A5,5 0 1,1 0,-5A5,5 0 0,1 5,0Z" style="opacity: 1; stroke-width: 3px; fill: rgb(141, 160, 203); fill-opacity: 1; stroke: rgb(0, 0, 0); stroke-opacity: 1;"/><path class="point" transform="translate(175.5,199.66)" d="M5,0A5,5 0 1,1 0,-5A5,5 0 0,1 5,0Z" style="opacity: 1; stroke-width: 3px; fill: rgb(141, 160, 203); fill-opacity: 1; stroke: rgb(0, 0, 0); stroke-opacity: 1;"/><path class="point" transform="translate(204.75,220.36)" d="M5,0A5,5 0 1,1 0,-5A5,5 0 0,1 5,0Z" style="opacity: 1; stroke-width: 3px; fill: rgb(141, 160, 203); fill-opacity: 1; stroke: rgb(0, 0, 0); stroke-opacity: 1;"/><path class="point" transform="translate(253.5,206.92)" d="M5,0A5,5 0 1,1 0,-5A5,5 0 0,1 5,0Z" style="opacity: 1; stroke-width: 3px; fill: rgb(141, 160, 203); fill-opacity: 1; stroke: rgb(0, 0, 0); stroke-opacity: 1;"/><path class="point" transform="translate(302.25,221.84)" d="M5,0A5,5 0 1,1 0,-5A5,5 0 0,1 5,0Z" style="opacity: 1; stroke-width: 3px; fill: rgb(141, 160, 203); fill-opacity: 1; stroke: rgb(0, 0, 0); stroke-opacity: 1;"/><path class="point" transform="translate(331.5,265.4)" d="M5,0A5,5 0 1,1 0,-5A5,5 0 0,1 5,0Z" style="opacity: 1; stroke-width: 3px; fill: rgb(141, 160, 203); fill-opacity: 1; stroke: rgb(0, 0, 0); stroke-opacity: 1;"/><path class="point" transform="translate(360.75,226.03)" d="M5,0A5,5 0 1,1 0,-5A5,5 0 0,1 5,0Z" style="opacity: 1; stroke-width: 3px; fill: rgb(141, 160, 203); fill-opacity: 1; stroke: rgb(0, 0, 0); stroke-opacity: 1;"/></g><g class="text"/></g><g class="trace scatter trace14e197" style="stroke-miterlimit: 2; opacity: 1;"><g class="fills"/><g class="errorbars"/><g class="lines"><path class="js-line" d="M0,240L390,240" style="vector-effect: non-scaling-stroke; fill: none; stroke: rgb(128, 128, 128); stroke-opacity: 1; stroke-width: 3px; opacity: 1; stroke-dasharray: 15px, 6px, 3px, 6px;"/></g><g class="points"/><g class="text"/></g></g></g><g class="overplot"/><path class="xlines-above crisp" d="M78,421H470" style="fill: none; stroke-width: 2px; stroke: rgb(175, 175, 175); stroke-opacity: 1;"/><path class="ylines-above crisp" d="M79,100V420" style="fill: none; stroke-width: 2px; stroke: rgb(175, 175, 175); stroke-opacity: 1;"/><g class="overlines-above"/><g class="xaxislayer-above"><g class="xtick"><text text-anchor="middle" x="0" y="441.2" transform="translate(80,0)" style="font-family: 'Open Sans', verdana, arial, sans-serif; font-size: 16px; fill: rgb(42, 63, 95); fill-opacity: 1; white-space: pre;">0.6</text></g><g class="xtick"><text text-anchor="middle" x="0" y="441.2" transform="translate(158,0)" style="font-family: 'Open Sans', verdana, arial, sans-serif; font-size: 16px; fill: rgb(42, 63, 95); fill-opacity: 1; white-space: pre;">0.8</text></g><g class="xtick"><text text-anchor="middle" x="0" y="441.2" transform="translate(236,0)" style="font-family: 'Open Sans', verdana, arial, sans-serif; font-size: 16px; fill: rgb(42, 63, 95); fill-opacity: 1; white-space: pre;">1</text></g><g class="xtick"><text text-anchor="middle" x="0" y="441.2" transform="translate(314,0)" style="font-family: 'Open Sans', verdana, arial, sans-serif; font-size: 16px; fill: rgb(42, 63, 95); fill-opacity: 1; white-space: pre;">1.2</text></g><g class="xtick"><text text-anchor="middle" x="0" y="441.2" transform="translate(392,0)" style="font-family: 'Open Sans', verdana, arial, sans-serif; font-size: 16px; fill: rgb(42, 63, 95); fill-opacity: 1; white-space: pre;">1.4</text></g><g class="xtick"><text text-anchor="middle" x="0" y="441.2" transform="translate(470,0)" style="font-family: 'Open Sans', verdana, arial, sans-serif; font-size: 16px; fill: rgb(42, 63, 95); fill-opacity: 1; white-space: pre;">1.6</text></g></g><g class="yaxislayer-above"><g class="ytick"><text text-anchor="end" x="74.8" y="5.6" transform="translate(0,420)" style="font-family: 'Open Sans', verdana, arial, sans-serif; font-size: 16px; fill: rgb(42, 63, 95); fill-opacity: 1; white-space: pre;">0.9</text></g><g class="ytick"><text text-anchor="end" x="74.8" y="5.6" transform="translate(0,380)" style="font-family: 'Open Sans', verdana, arial, sans-serif; font-size: 16px; fill: rgb(42, 63, 95); fill-opacity: 1; white-space: pre;">0.95</text></g><g class="ytick"><text text-anchor="end" x="74.8" y="5.6" transform="translate(0,340)" style="font-family: 'Open Sans', verdana, arial, sans-serif; font-size: 16px; fill: rgb(42, 63, 95); fill-opacity: 1; white-space: pre;">1</text></g><g class="ytick"><text text-anchor="end" x="74.8" y="5.6" transform="translate(0,300)" style="font-family: 'Open Sans', verdana, arial, sans-serif; font-size: 16px; fill: rgb(42, 63, 95); fill-opacity: 1; white-space: pre;">1.05</text></g><g class="ytick"><text text-anchor="end" x="74.8" y="5.6" transform="translate(0,260)" style="font-family: 'Open Sans', verdana, arial, sans-serif; font-size: 16px; fill: rgb(42, 63, 95); fill-opacity: 1; white-space: pre;">1.1</text></g><g class="ytick"><text text-anchor="end" x="74.8" y="5.6" transform="translate(0,220)" style="font-family: 'Open Sans', verdana, arial, sans-serif; font-size: 16px; fill: rgb(42, 63, 95); fill-opacity: 1; white-space: pre;">1.15</text></g><g class="ytick"><text text-anchor="end" x="74.8" y="5.6" transform="translate(0,180)" style="font-family: 'Open Sans', verdana, arial, sans-serif; font-size: 16px; fill: rgb(42, 63, 95); fill-opacity: 1; white-space: pre;">1.2</text></g><g class="ytick"><text text-anchor="end" x="74.8" y="5.6" transform="translate(0,140)" style="font-family: 'Open Sans', verdana, arial, sans-serif; font-size: 16px; fill: rgb(42, 63, 95); fill-opacity: 1; white-space: pre;">1.25</text></g><g class="ytick"><text text-anchor="end" x="74.8" y="5.6" transform="translate(0,100)" style="font-family: 'Open Sans', verdana, arial, sans-serif; font-size: 16px; fill: rgb(42, 63, 95); fill-opacity: 1; white-space: pre;">1.3</text></g></g><g class="overaxes-above"/></g></g><g class="polarlayer"/><g class="ternarylayer"/><g class="geolayer"/><g class="funnelarealayer"/><g class="pielayer"/><g class="sunburstlayer"/><g class="glimages"/><defs id="topdefs-7a22a6"><g class="clips"/></defs><g class="layer-above"><g class="imagelayer"/><g class="shapelayer"/></g><g class="infolayer"><g class="g-gtitle"/><g class="g-xtitle"><text class="xtitle" x="275" y="488" text-anchor="middle" style="font-family: 'Open Sans', verdana, arial, sans-serif; font-size: 19px; fill: rgb(42, 63, 95); opacity: 1; font-weight: normal; white-space: pre;">Actual Duration (sec)</text></g><g class="g-ytitle"><text class="ytitle" transform="rotate(-90,31,260)" x="31" y="260" text-anchor="middle" style="font-family: 'Open Sans', verdana, arial, sans-serif; font-size: 19px; fill: rgb(42, 63, 95); opacity: 1; font-weight: normal; white-space: pre;">Average Ratio Reported</text></g></g></svg>