<svg class="main-svg" xmlns="http://www.w3.org/2000/svg" xmlns:xlink="http://www.w3.org/1999/xlink" width="550" height="500" viewBox="0 0 550 500"><rect x="0" y="0" width="550" height="500" style="fill: rgb(255, 255, 255); fill-opacity: 1;"/><defs id="defs-3f0b4e"><g class="clips"><clipPath id="clip3f0b4exyplot" class="plotclip"><rect width="390" height="320"/></clipPath><clipPath class="axesclip" id="clip3f0b4ex"><rect x="80" y="0" width="390" height="500"/></clipPath><clipPath class="axesclip" id="clip3f0b4ey"><rect x="0" y="100" width="550" height="320"/></clipPath><clipPath class="axesclip" id="clip3f0b4exy"><rect x="80" y="100" width="390" height="320"/></clipPath></g><g class="gradients"/></defs><g class="bglayer"><rect class="bg" x="80" y="100" width="390" height="320" style="fill: rgb(255, 255, 255); fill-opacity: 1; stroke-width: 0;"/></g><g class="layer-below"><g class="imagelayer"/><g class="shapelayer"/></g><g class="cartesianlayer"><g class="subplot xy"><g class="layer-subplot"><g class="shapelayer"/><g class="imagelayer"/></g><g class="gridlayer"><g class="x"><path class="xgrid crisp" transform="translate(158,0)" d="M0,100v320" style="stroke: rgb(223, 223, 223); stroke-opacity: 1; stroke-width: 0.5px;"/><path class="xgrid crisp" transform="translate(236,0)" d="M0,100v320" style="stroke: rgb(223, 223, 223); stroke-opacity: 1; stroke-width: 0.5px;"/><path class="xgrid crisp" transform="translate(314,0)" d="M0,100v320" style="stroke: rgb(223, 223, 223); stroke-opacity: 1; stroke-width: 0.5px;"/><path class="xgrid crisp" transform="translate(392,0)" d="M0,100v320" style="stroke: rgb(223, 223, 223); stroke-opacity: 1; stroke-width: 0.5px;"/></g><g class="y"><path class="ygrid crisp" transform="translate(0,380)" d="M80,0h390" style="stroke: rgb(223, 223, 223); stroke-opacity: 1; stroke-width: 0.5px;"/><path class="ygrid crisp" transform="translate(0,340)" d="M80,0h390" style="stroke: rgb(223, 223, 223); stroke-opacity: 1; stroke-width: 0.5px;"/><path class="ygrid crisp" transform="translate(0,300)" d="M80,0h390" style="stroke: rgb(223, 223, 223); stroke-opacity: 1; stroke-width: 0.5px;"/><path class="ygrid crisp" transform="translate(0,260)" d="M80,0h390" style="stroke: rgb(223, 223, 223); stroke-opacity: 1; stroke-width: 0.5px;"/><path class="ygrid crisp" transform="translate(0,220)" d="M80,0h390" style="stroke: rgb(223, 223, 223); stroke-opacity: 1; stroke-width: 0.5px;"/><path class="ygrid crisp" transform="translate(0,180)" d="M80,0h390" style="stroke: rgb(223, 223, 223); stroke-opacity: 1; stroke-width: 0.5px;"/><path class="ygrid crisp" transform="translate(0,140)" d="M80,0h390" style="stroke: rgb(223, 223, 223); stroke-opacity: 1; stroke-width: 0.5px;"/></g></g><g class="zerolinelayer"/><path class="xlines-below"/><path class="ylines-below"/><g class="overlines-below"/><g class="xaxislayer-below"/><g class="yaxislayer-below"/><g class="overaxes-below"/><g class="plot" transform="translate(80, 100)" clip-path="url('#clip3f0b4exyplot')"><g class="scatterlayer mlayer"><g class="trace scatter trace093464" style="stroke-miterlimit: 2; opacity: 1;"><g class="fills"/><g class="errorbars"><g class="errorbar"><path class="yerror" d="M54.5,234.68h8m-4,0V279.87m-4,0h8" style="vector-effect: non-scaling-stroke; stroke-width: 2px; stroke: rgb(252, 141, 98); stroke-opacity: 1;"/></g><g class="errorbar"><path class="yerror" d="M83.75,184.93h8m-4,0V230.35m-4,0h8" style="vector-effect: non-scaling-stroke; stroke-width: 2px; stroke: rgb(252, 141, 98); stroke-opacity: 1;"/></g><g class="errorbar"><path class="yerror" d="M113,228.22h8m-4,0V288.11m-4,0h8" style="vector-effect: non-scaling-stroke; stroke-width: 2px; stroke: rgb(252, 141, 98); stroke-opacity: 1;"/></g><g class="errorbar"><path class="yerror" d="M142.25,264.37h8m-4,0V310.25m-4,0h8" style="vector-effect: non-scaling-stroke; stroke-width: 2px; stroke: rgb(252, 141, 98); stroke-opacity: 1;"/></g><g class="errorbar"><path class="yerror" d="M171.5,185.7h8m-4,0V232.88m-4,0h8" style="vector-effect: non-scaling-stroke; stroke-width: 2px; stroke: rgb(252, 141, 98); stroke-opacity: 1;"/></g><g class="errorbar"><path class="yerror" d="M200.75,266.89h8m-4,0V308.31m-4,0h8" style="vector-effect: non-scaling-stroke; stroke-width: 2px; stroke: rgb(252, 141, 98); stroke-opacity: 1;"/></g><g class="errorbar"><path class="yerror" d="M249.5,264.47h8m-4,0V305.46m-4,0h8" style="vector-effect: non-scaling-stroke; stroke-width: 2px; stroke: rgb(252, 141, 98); stroke-opacity: 1;"/></g><g class="errorbar"><path class="yerror" d="M298.25,289.36h8m-4,0V325.14m-4,0h8" style="vector-effect: non-scaling-stroke; stroke-width: 2px; stroke: rgb(252, 141, 98); stroke-opacity: 1;"/></g><g class="errorbar"><path class="yerror" d="M327.5,272.34h8m-4,0V304.36m-4,0h8" style="vector-effect: non-scaling-stroke; stroke-width: 2px; stroke: rgb(252, 141, 98); stroke-opacity: 1;"/></g><g class="errorbar"><path class="yerror" d="M356.75,276.6h8m-4,0V319.65m-4,0h8" style="vector-effect: non-scaling-stroke; stroke-width: 2px; stroke: rgb(252, 141, 98); stroke-opacity: 1;"/></g></g><g class="lines"><path class="js-line" d="M58.5,257.27L87.75,207.64L117,258.17L146.25,287.31L175.5,209.29L204.75,287.6L253.5,284.97L302.25,307.25L331.5,288.35L360.75,298.13" style="vector-effect: non-scaling-stroke; fill: none; stroke: rgb(252, 141, 98); stroke-opacity: 1; stroke-width: 2.5px; opacity: 1;"/></g><g class="points"><path class="point" transform="translate(58.5,257.27)" d="M5,0A5,5 0 1,1 0,-5A5,5 0 0,1 5,0Z" style="opacity: 1; stroke-width: 3px; fill: rgb(252, 141, 98); fill-opacity: 1; stroke: rgb(0, 0, 0); stroke-opacity: 1;"/><path class="point" transform="translate(87.75,207.64)" d="M5,0A5,5 0 1,1 0,-5A5,5 0 0,1 5,0Z" style="opacity: 1; stroke-width: 3px; fill: rgb(252, 141, 98); fill-opacity: 1; stroke: rgb(0, 0, 0); stroke-opacity: 1;"/><path class="point" transform="translate(117,258.17)" d="M5,0A5,5 0 1,1 0,-5A5,5 0 0,1 5,0Z" style="opacity: 1; stroke-width: 3px; fill: rgb(252, 141, 98); fill-opacity: 1; stroke: rgb(0, 0, 0); stroke-opacity: 1;"/><path class="point" transform="translate(146.25,287.31)" d="M5,0A5,5 0 1,1 0,-5A5,5 0 0,1 5,0Z" style="opacity: 1; stroke-width: 3px; fill: rgb(252, 141, 98); fill-opacity: 1; stroke: rgb(0, 0, 0); stroke-opacity: 1;"/><path class="point" transform="translate(175.5,209.29)" d="M5,0A5,5 0 1,1 0,-5A5,5 0 0,1 5,0Z" style="opacity: 1; stroke-width: 3px; fill: rgb(252, 141, 98); fill-opacity: 1; stroke: rgb(0, 0, 0); stroke-opacity: 1;"/><path class="point" transform="translate(204.75,287.6)" d="M5,0A5,5 0 1,1 0,-5A5,5 0 0,1 5,0Z" style="opacity: 1; stroke-width: 3px; fill: rgb(252, 141, 98); fill-opacity: 1; stroke: rgb(0, 0, 0); stroke-opacity: 1;"/><path class="point" transform="translate(253.5,284.97)" d="M5,0A5,5 0 1,1 0,-5A5,5 0 0,1 5,0Z" style="opacity: 1; stroke-width: 3px; fill: rgb(252, 141, 98); fill-opacity: 1; stroke: rgb(0, 0, 0); stroke-opacity: 1;"/><path class="point" transform="translate(302.25,307.25)" d="M5,0A5,5 0 1,1 0,-5A5,5 0 0,1 5,0Z" style="opacity: 1; stroke-width: 3px; fill: rgb(252, 141, 98); fill-opacity: 1; stroke: rgb(0, 0, 0); stroke-opacity: 1;"/><path class="point" transform="translate(331.5,288.35)" d="M5,0A5,5 0 1,1 0,-5A5,5 0 0,1 5,0Z" style="opacity: 1; stroke-width: 3px; fill: rgb(252, 141, 98); fill-opacity: 1; stroke: rgb(0, 0, 0); stroke-opacity: 1;"/><path class="point" transform="translate(360.75,298.13)" d="M5,0A5,5 0 1,1 0,-5A5,5 0 0,1 5,0Z" style="opacity: 1; stroke-width: 3px; fill: rgb(252, 141, 98); fill-opacity: 1; stroke: rgb(0, 0, 0); stroke-opacity: 1;"/></g><g class="text"/></g><g class="trace scatter tracea62ab3" style="stroke-miterlimit: 2; opacity: 1;"><g class="fills"/><g class="errorbars"><g class="errorbar"><path class="yerror" d="M54.5,220.17h8m-4,0V269.37m-4,0h8" style="vector-effect: non-scaling-stroke; stroke-width: 2px; stroke: rgb(141, 160, 203); stroke-opacity: 1;"/></g><g class="errorbar"><path class="yerror" d="M83.75,277.03h8m-4,0V322.85m-4,0h8" style="vector-effect: non-scaling-stroke; stroke-width: 2px; stroke: rgb(141, 160, 203); stroke-opacity: 1;"/></g><g class="errorbar"><path class="yerror" d="M113,270h8m-4,0V312.33m-4,0h8" style="vector-effect: non-scaling-stroke; stroke-width: 2px; stroke: rgb(141, 160, 203); stroke-opacity: 1;"/></g><g class="errorbar"><path class="yerror" d="M142.25,307.04h8m-4,0V361.12m-4,0h8" style="vector-effect: non-scaling-stroke; stroke-width: 2px; stroke: rgb(141, 160, 203); stroke-opacity: 1;"/></g><g class="errorbar"><path class="yerror" d="M171.5,254.34h8m-4,0V303.28m-4,0h8" style="vector-effect: non-scaling-stroke; stroke-width: 2px; stroke: rgb(141, 160, 203); stroke-opacity: 1;"/></g><g class="errorbar"><path class="yerror" d="M200.75,248.54h8m-4,0V296.67m-4,0h8" style="vector-effect: non-scaling-stroke; stroke-width: 2px; stroke: rgb(141, 160, 203); stroke-opacity: 1;"/></g><g class="errorbar"><path class="yerror" d="M249.5,290.32h8m-4,0V331.04m-4,0h8" style="vector-effect: non-scaling-stroke; stroke-width: 2px; stroke: rgb(141, 160, 203); stroke-opacity: 1;"/></g><g class="errorbar"><path class="yerror" d="M298.25,282.8h8m-4,0V336.5m-4,0h8" style="vector-effect: non-scaling-stroke; stroke-width: 2px; stroke: rgb(141, 160, 203); stroke-opacity: 1;"/></g><g class="errorbar"><path class="yerror" d="M327.5,291.71h8m-4,0V338.96m-4,0h8" style="vector-effect: non-scaling-stroke; stroke-width: 2px; stroke: rgb(141, 160, 203); stroke-opacity: 1;"/></g><g class="errorbar"><path class="yerror" d="M356.75,289.3h8m-4,0V321.44m-4,0h8" style="vector-effect: non-scaling-stroke; stroke-width: 2px; stroke: rgb(141, 160, 203); stroke-opacity: 1;"/></g></g><g class="lines"><path class="js-line" d="M58.5,244.77L87.75,299.94L117,291.17L146.25,334.08L175.5,278.81L204.75,272.61L253.5,310.68L302.25,309.65L331.5,315.33L360.75,305.37" style="vector-effect: non-scaling-stroke; fill: none; stroke: rgb(141, 160, 203); stroke-opacity: 1; stroke-width: 2.5px; opacity: 1;"/></g><g class="points"><path class="point" transform="translate(58.5,244.77)" d="M5,0A5,5 0 1,1 0,-5A5,5 0 0,1 5,0Z" style="opacity: 1; stroke-width: 3px; fill: rgb(141, 160, 203); fill-opacity: 1; stroke: rgb(0, 0, 0); stroke-opacity: 1;"/><path class="point" transform="translate(87.75,299.94)" d="M5,0A5,5 0 1,1 0,-5A5,5 0 0,1 5,0Z" style="opacity: 1; stroke-width: 3px; fill: rgb(141, 160, 203); fill-opacity: 1; stroke: rgb(0, 0, 0); stroke-opacity: 1;"/><path class="point" transform="translate(117,291.17)" d="M5,0A5,5 0 1,1 0,-5A5,5 0 0,1 5,0Z" style="opacity: 1; stroke-width: 3px; fill: rgb(141, 160, 203); fill-opacity: 1; stroke: rgb(0, 0, 0); stroke-opacity: 1;"/><path class="point" transform="translate(146.25,334.08)" d="M5,0A5,5 0 1,1 0,-5A5,5 0 0,1 5,0Z" style="opacity: 1; stroke-width: 3px; fill: rgb(141, 160, 203); fill-opacity: 1; stroke: rgb(0, 0, 0); stroke-opacity: 1;"/><path class="point" transform="translate(175.5,278.81)" d="M5,0A5,5 0 1,1 0,-5A5,5 0 0,1 5,0Z" style="opacity: 1; stroke-width: 3px; fill: rgb(141, 160, 203); fill-opacity: 1; stroke: rgb(0, 0, 0); stroke-opacity: 1;"/><path class="point" transform="translate(204.75,272.61)" d="M5,0A5,5 0 1,1 0,-5A5,5 0 0,1 5,0Z" style="opacity: 1; stroke-width: 3px; fill: rgb(141, 160, 203); fill-opacity: 1; stroke: rgb(0, 0, 0); stroke-opacity: 1;"/><path class="point" transform="translate(253.5,310.68)" d="M5,0A5,5 0 1,1 0,-5A5,5 0 0,1 5,0Z" style="opacity: 1; stroke-width: 3px; fill: rgb(141, 160, 203); fill-opacity: 1; stroke: rgb(0, 0, 0); stroke-opacity: 1;"/><path class="point" transform="translate(302.25,309.65)" d="M5,0A5,5 0 1,1 0,-5A5,5 0 0,1 5,0Z" style="opacity: 1; stroke-width: 3px; fill: rgb(141, 160, 203); fill-opacity: 1; stroke: rgb(0, 0, 0); stroke-opacity: 1;"/><path class="point" transform="translate(331.5,315.33)" d="M5,0A5,5 0 1,1 0,-5A5,5 0 0,1 5,0Z" style="opacity: 1; stroke-width: 3px; fill: rgb(141, 160, 203); fill-opacity: 1; stroke: rgb(0, 0, 0); stroke-opacity: 1;"/><path class="point" transform="translate(360.75,305.37)" d="M5,0A5,5 0 1,1 0,-5A5,5 0 0,1 5,0Z" style="opacity: 1; stroke-width: 3px; fill: rgb(141, 160, 203); fill-opacity: 1; stroke: rgb(0, 0, 0); stroke-opacity: 1;"/></g><g class="text"/></g><g class="trace scatter tracef77630" style="stroke-miterlimit: 2; opacity: 1;"><g class="fills"/><g class="errorbars"/><g class="lines"><path class="js-line" d="M0,240L390,240" style="vector-effect: non-scaling-stroke; fill: none; stroke: rgb(128, 128, 128); stroke-opacity: 1; stroke-width: 3px; opacity: 1; stroke-dasharray: 15px, 6px, 3px, 6px;"/></g><g class="points"/><g class="text"/></g></g></g><g class="overplot"/><path class="xlines-above crisp" d="M78,421H470" style="fill: none; stroke-width: 2px; stroke: rgb(175, 175, 175); stroke-opacity: 1;"/><path class="ylines-above crisp" d="M79,100V420" style="fill: none; stroke-width: 2px; stroke: rgb(175, 175, 175); stroke-opacity: 1;"/><g class="overlines-above"/><g class="xaxislayer-above"><g class="xtick"><text text-anchor="middle" x="0" y="441.2" transform="translate(80,0)" style="font-family: 'Open Sans', verdana, arial, sans-serif; font-size: 16px; fill: rgb(42, 63, 95); fill-opacity: 1; white-space: pre;">0.6</text></g><g class="xtick"><text text-anchor="middle" x="0" y="441.2" transform="translate(158,0)" style="font-family: 'Open Sans', verdana, arial, sans-serif; font-size: 16px; fill: rgb(42, 63, 95); fill-opacity: 1; white-space: pre;">0.8</text></g><g class="xtick"><text text-anchor="middle" x="0" y="441.2" transform="translate(236,0)" style="font-family: 'Open Sans', verdana, arial, sans-serif; font-size: 16px; fill: rgb(42, 63, 95); fill-opacity: 1; white-space: pre;">1</text></g><g class="xtick"><text text-anchor="middle" x="0" y="441.2" transform="translate(314,0)" style="font-family: 'Open Sans', verdana, arial, sans-serif; font-size: 16px; fill: rgb(42, 63, 95); fill-opacity: 1; white-space: pre;">1.2</text></g><g class="xtick"><text text-anchor="middle" x="0" y="441.2" transform="translate(392,0)" style="font-family: 'Open Sans', verdana, arial, sans-serif; font-size: 16px; fill: rgb(42, 63, 95); fill-opacity: 1; white-space: pre;">1.4</text></g><g class="xtick"><text text-anchor="middle" x="0" y="441.2" transform="translate(470,0)" style="font-family: 'Open Sans', verdana, arial, sans-serif; font-size: 16px; fill: rgb(42, 63, 95); fill-opacity: 1; white-space: pre;">1.6</text></g></g><g class="yaxislayer-above"><g class="ytick"><text text-anchor="end" x="74.8" y="5.6" transform="translate(0,420)" style="font-family: 'Open Sans', verdana, arial, sans-serif; font-size: 16px; fill: rgb(42, 63, 95); fill-opacity: 1; white-space: pre;">0.9</text></g><g class="ytick"><text text-anchor="end" x="74.8" y="5.6" transform="translate(0,380)" style="font-family: 'Open Sans', verdana, arial, sans-serif; font-size: 16px; fill: rgb(42, 63, 95); fill-opacity: 1; white-space: pre;">0.95</text></g><g class="ytick"><text text-anchor="end" x="74.8" y="5.6" transform="translate(0,340)" style="font-family: 'Open Sans', verdana, arial, sans-serif; font-size: 16px; fill: rgb(42, 63, 95); fill-opacity: 1; white-space: pre;">1</text></g><g class="ytick"><text text-anchor="end" x="74.8" y="5.6" transform="translate(0,300)" style="font-family: 'Open Sans', verdana, arial, sans-serif; font-size: 16px; fill: rgb(42, 63, 95); fill-opacity: 1; white-space: pre;">1.05</text></g><g class="ytick"><text text-anchor="end" x="74.8" y="5.6" transform="translate(0,260)" style="font-family: 'Open Sans', verdana, arial, sans-serif; font-size: 16px; fill: rgb(42, 63, 95); fill-opacity: 1; white-space: pre;">1.1</text></g><g class="ytick"><text text-anchor="end" x="74.8" y="5.6" transform="translate(0,220)" style="font-family: 'Open Sans', verdana, arial, sans-serif; font-size: 16px; fill: rgb(42, 63, 95); fill-opacity: 1; white-space: pre;">1.15</text></g><g class="ytick"><text text-anchor="end" x="74.8" y="5.6" transform="translate(0,180)" style="font-family: 'Open Sans', verdana, arial, sans-serif; font-size: 16px; fill: rgb(42, 63, 95); fill-opacity: 1; white-space: pre;">1.2</text></g><g class="ytick"><text text-anchor="end" x="74.8" y="5.6" transform="translate(0,140)" style="font-family: 'Open Sans', verdana, arial, sans-serif; font-size: 16px; fill: rgb(42, 63, 95); fill-opacity: 1; white-space: pre;">1.25</text></g><g class="ytick"><text text-anchor="end" x="74.8" y="5.6" transform="translate(0,100)" style="font-family: 'Open Sans', verdana, arial, sans-serif; font-size: 16px; fill: rgb(42, 63, 95); fill-opacity: 1; white-space: pre;">1.3</text></g></g><g class="overaxes-above"/></g></g><g class="polarlayer"/><g class="ternarylayer"/><g class="geolayer"/><g class="funnelarealayer"/><g class="pielayer"/><g class="sunburstlayer"/><g class="glimages"/><defs id="topdefs-3f0b4e"><g class="clips"/></defs><g class="layer-above"><g class="imagelayer"/><g class="shapelayer"/></g><g class="infolayer"><g class="g-gtitle"/><g class="g-xtitle"><text class="xtitle" x="275" y="488" text-anchor="middle" style="font-family: 'Open Sans', verdana, arial, sans-serif; font-size: 19px; fill: rgb(42, 63, 95); opacity: 1; font-weight: normal; white-space: pre;">Actual Duration (sec)</text></g><g class="g-ytitle"><text class="ytitle" transform="rotate(-90,31,260)" x="31" y="260" text-anchor="middle" style="font-family: 'Open Sans', verdana, arial, sans-serif; font-size: 19px; fill: rgb(42, 63, 95); opacity: 1; font-weight: normal; white-space: pre;">Average Ratio Reported</text></g></g></svg>