<svg class="main-svg" xmlns="http://www.w3.org/2000/svg" xmlns:xlink="http://www.w3.org/1999/xlink" width="550" height="500" viewBox="0 0 550 500"><rect x="0" y="0" width="550" height="500" style="fill: rgb(255, 255, 255); fill-opacity: 1;"/><defs id="defs-3a940e"><g class="clips"><clipPath id="clip3a940exyplot" class="plotclip"><rect width="390" height="320"/></clipPath><clipPath class="axesclip" id="clip3a940ex"><rect x="80" y="0" width="390" height="500"/></clipPath><clipPath class="axesclip" id="clip3a940ey"><rect x="0" y="100" width="550" height="320"/></clipPath><clipPath class="axesclip" id="clip3a940exy"><rect x="80" y="100" width="390" height="320"/></clipPath></g><g class="gradients"/></defs><g class="bglayer"><rect class="bg" x="80" y="100" width="390" height="320" style="fill: rgb(255, 255, 255); fill-opacity: 1; stroke-width: 0;"/></g><g class="layer-below"><g class="imagelayer"/><g class="shapelayer"/></g><g class="cartesianlayer"><g class="subplot xy"><g class="layer-subplot"><g class="shapelayer"/><g class="imagelayer"/></g><g class="gridlayer"><g class="x"><path class="xgrid crisp" transform="translate(158,0)" d="M0,100v320" style="stroke: rgb(223, 223, 223); stroke-opacity: 1; stroke-width: 0.5px;"/><path class="xgrid crisp" transform="translate(236,0)" d="M0,100v320" style="stroke: rgb(223, 223, 223); stroke-opacity: 1; stroke-width: 0.5px;"/><path class="xgrid crisp" transform="translate(314,0)" d="M0,100v320" style="stroke: rgb(223, 223, 223); stroke-opacity: 1; stroke-width: 0.5px;"/><path class="xgrid crisp" transform="translate(392,0)" d="M0,100v320" style="stroke: rgb(223, 223, 223); stroke-opacity: 1; stroke-width: 0.5px;"/></g><g class="y"><path class="ygrid crisp" transform="translate(0,380)" d="M80,0h390" style="stroke: rgb(223, 223, 223); stroke-opacity: 1; stroke-width: 0.5px;"/><path class="ygrid crisp" transform="translate(0,340)" d="M80,0h390" style="stroke: rgb(223, 223, 223); stroke-opacity: 1; stroke-width: 0.5px;"/><path class="ygrid crisp" transform="translate(0,300)" d="M80,0h390" style="stroke: rgb(223, 223, 223); stroke-opacity: 1; stroke-width: 0.5px;"/><path class="ygrid crisp" transform="translate(0,260)" d="M80,0h390" style="stroke: rgb(223, 223, 223); stroke-opacity: 1; stroke-width: 0.5px;"/><path class="ygrid crisp" transform="translate(0,220)" d="M80,0h390" style="stroke: rgb(223, 223, 223); stroke-opacity: 1; stroke-width: 0.5px;"/><path class="ygrid crisp" transform="translate(0,180)" d="M80,0h390" style="stroke: rgb(223, 223, 223); stroke-opacity: 1; stroke-width: 0.5px;"/><path class="ygrid crisp" transform="translate(0,140)" d="M80,0h390" style="stroke: rgb(223, 223, 223); stroke-opacity: 1; stroke-width: 0.5px;"/></g></g><g class="zerolinelayer"/><path class="xlines-below"/><path class="ylines-below"/><g class="overlines-below"/><g class="xaxislayer-below"/><g class="yaxislayer-below"/><g class="overaxes-below"/><g class="plot" transform="translate(80, 100)" clip-path="url('#clip3a940exyplot')"><g class="scatterlayer mlayer"><g class="trace scatter trace5e031f" style="stroke-miterlimit: 2; opacity: 1;"><g class="fills"/><g class="errorbars"><g class="errorbar"><path class="yerror" d="M54.5,211.3h8m-4,0V273.45m-4,0h8" style="vector-effect: non-scaling-stroke; stroke-width: 2px; stroke: rgb(252, 141, 98); stroke-opacity: 1;"/></g><g class="errorbar"><path class="yerror" d="M83.75,192.04h8m-4,0V257.54m-4,0h8" style="vector-effect: non-scaling-stroke; stroke-width: 2px; stroke: rgb(252, 141, 98); stroke-opacity: 1;"/></g><g class="errorbar"><path class="yerror" d="M113,150.72h8m-4,0V212.52m-4,0h8" style="vector-effect: non-scaling-stroke; stroke-width: 2px; stroke: rgb(252, 141, 98); stroke-opacity: 1;"/></g><g class="errorbar"><path class="yerror" d="M142.25,173.02h8m-4,0V247.54m-4,0h8" style="vector-effect: non-scaling-stroke; stroke-width: 2px; stroke: rgb(252, 141, 98); stroke-opacity: 1;"/></g><g class="errorbar"><path class="yerror" d="M171.5,154.01h8m-4,0V201.06m-4,0h8" style="vector-effect: non-scaling-stroke; stroke-width: 2px; stroke: rgb(252, 141, 98); stroke-opacity: 1;"/></g><g class="errorbar"><path class="yerror" d="M200.75,100.44h8m-4,0V177.43m-4,0h8" style="vector-effect: non-scaling-stroke; stroke-width: 2px; stroke: rgb(252, 141, 98); stroke-opacity: 1;"/></g><g class="errorbar"><path class="yerror" d="M249.5,207.26h8m-4,0V264.06m-4,0h8" style="vector-effect: non-scaling-stroke; stroke-width: 2px; stroke: rgb(252, 141, 98); stroke-opacity: 1;"/></g><g class="errorbar"><path class="yerror" d="M298.25,214.56h8m-4,0V263.02m-4,0h8" style="vector-effect: non-scaling-stroke; stroke-width: 2px; stroke: rgb(252, 141, 98); stroke-opacity: 1;"/></g><g class="errorbar"><path class="yerror" d="M327.5,194.92h8m-4,0V235.95m-4,0h8" style="vector-effect: non-scaling-stroke; stroke-width: 2px; stroke: rgb(252, 141, 98); stroke-opacity: 1;"/></g><g class="errorbar"><path class="yerror" d="M356.75,160.3h8m-4,0V223.75m-4,0h8" style="vector-effect: non-scaling-stroke; stroke-width: 2px; stroke: rgb(252, 141, 98); stroke-opacity: 1;"/></g></g><g class="lines"><path class="js-line" d="M58.5,242.38L87.75,224.79L117,181.62L146.25,210.28L175.5,177.54L204.75,138.93L253.5,235.66L302.25,238.79L331.5,215.44L360.75,192.02" style="vector-effect: non-scaling-stroke; fill: none; stroke: rgb(252, 141, 98); stroke-opacity: 1; stroke-width: 2.5px; opacity: 1;"/></g><g class="points"><path class="point" transform="translate(58.5,242.38)" d="M5,0A5,5 0 1,1 0,-5A5,5 0 0,1 5,0Z" style="opacity: 1; stroke-width: 3px; fill: rgb(252, 141, 98); fill-opacity: 1; stroke: rgb(0, 0, 0); stroke-opacity: 1;"/><path class="point" transform="translate(87.75,224.79)" d="M5,0A5,5 0 1,1 0,-5A5,5 0 0,1 5,0Z" style="opacity: 1; stroke-width: 3px; fill: rgb(252, 141, 98); fill-opacity: 1; stroke: rgb(0, 0, 0); stroke-opacity: 1;"/><path class="point" transform="translate(117,181.62)" d="M5,0A5,5 0 1,1 0,-5A5,5 0 0,1 5,0Z" style="opacity: 1; stroke-width: 3px; fill: rgb(252, 141, 98); fill-opacity: 1; stroke: rgb(0, 0, 0); stroke-opacity: 1;"/><path class="point" transform="translate(146.25,210.28)" d="M5,0A5,5 0 1,1 0,-5A5,5 0 0,1 5,0Z" style="opacity: 1; stroke-width: 3px; fill: rgb(252, 141, 98); fill-opacity: 1; stroke: rgb(0, 0, 0); stroke-opacity: 1;"/><path class="point" transform="translate(175.5,177.54)" d="M5,0A5,5 0 1,1 0,-5A5,5 0 0,1 5,0Z" style="opacity: 1; stroke-width: 3px; fill: rgb(252, 141, 98); fill-opacity: 1; stroke: rgb(0, 0, 0); stroke-opacity: 1;"/><path class="point" transform="translate(204.75,138.93)" d="M5,0A5,5 0 1,1 0,-5A5,5 0 0,1 5,0Z" style="opacity: 1; stroke-width: 3px; fill: rgb(252, 141, 98); fill-opacity: 1; stroke: rgb(0, 0, 0); stroke-opacity: 1;"/><path class="point" transform="translate(253.5,235.66)" d="M5,0A5,5 0 1,1 0,-5A5,5 0 0,1 5,0Z" style="opacity: 1; stroke-width: 3px; fill: rgb(252, 141, 98); fill-opacity: 1; stroke: rgb(0, 0, 0); stroke-opacity: 1;"/><path class="point" transform="translate(302.25,238.79)" d="M5,0A5,5 0 1,1 0,-5A5,5 0 0,1 5,0Z" style="opacity: 1; stroke-width: 3px; fill: rgb(252, 141, 98); fill-opacity: 1; stroke: rgb(0, 0, 0); stroke-opacity: 1;"/><path class="point" transform="translate(331.5,215.44)" d="M5,0A5,5 0 1,1 0,-5A5,5 0 0,1 5,0Z" style="opacity: 1; stroke-width: 3px; fill: rgb(252, 141, 98); fill-opacity: 1; stroke: rgb(0, 0, 0); stroke-opacity: 1;"/><path class="point" transform="translate(360.75,192.02)" d="M5,0A5,5 0 1,1 0,-5A5,5 0 0,1 5,0Z" style="opacity: 1; stroke-width: 3px; fill: rgb(252, 141, 98); fill-opacity: 1; stroke: rgb(0, 0, 0); stroke-opacity: 1;"/></g><g class="text"/></g><g class="trace scatter trace384d7f" style="stroke-miterlimit: 2; opacity: 1;"><g class="fills"/><g class="errorbars"><g class="errorbar"><path class="yerror" d="M54.5,88.4h8m-4,0V187.46m-4,0h8" style="vector-effect: non-scaling-stroke; stroke-width: 2px; stroke: rgb(141, 160, 203); stroke-opacity: 1;"/></g><g class="errorbar"><path class="yerror" d="M83.75,39.61h8m-4,0V131.64m-4,0h8" style="vector-effect: non-scaling-stroke; stroke-width: 2px; stroke: rgb(141, 160, 203); stroke-opacity: 1;"/></g><g class="errorbar"><path class="yerror" d="M113,-11.87h8m-4,0V99.67m-4,0h8" style="vector-effect: non-scaling-stroke; stroke-width: 2px; stroke: rgb(141, 160, 203); stroke-opacity: 1;"/></g><g class="errorbar"><path class="yerror" d="M142.25,72.8h8m-4,0V124.43m-4,0h8" style="vector-effect: non-scaling-stroke; stroke-width: 2px; stroke: rgb(141, 160, 203); stroke-opacity: 1;"/></g><g class="errorbar"><path class="yerror" d="M171.5,99.75h8m-4,0V145.24m-4,0h8" style="vector-effect: non-scaling-stroke; stroke-width: 2px; stroke: rgb(141, 160, 203); stroke-opacity: 1;"/></g><g class="errorbar"><path class="yerror" d="M200.75,6.47h8m-4,0V149.98m-4,0h8" style="vector-effect: non-scaling-stroke; stroke-width: 2px; stroke: rgb(141, 160, 203); stroke-opacity: 1;"/></g><g class="errorbar"><path class="yerror" d="M249.5,156.2h8m-4,0V206.77m-4,0h8" style="vector-effect: non-scaling-stroke; stroke-width: 2px; stroke: rgb(141, 160, 203); stroke-opacity: 1;"/></g><g class="errorbar"><path class="yerror" d="M298.25,118.11h8m-4,0V170.79m-4,0h8" style="vector-effect: non-scaling-stroke; stroke-width: 2px; stroke: rgb(141, 160, 203); stroke-opacity: 1;"/></g><g class="errorbar"><path class="yerror" d="M327.5,74.3h8m-4,0V152.97m-4,0h8" style="vector-effect: non-scaling-stroke; stroke-width: 2px; stroke: rgb(141, 160, 203); stroke-opacity: 1;"/></g><g class="errorbar"><path class="yerror" d="M356.75,116.79h8m-4,0V173.01m-4,0h8" style="vector-effect: non-scaling-stroke; stroke-width: 2px; stroke: rgb(141, 160, 203); stroke-opacity: 1;"/></g></g><g class="lines"><path class="js-line" d="M58.5,137.93L87.75,85.63L117,43.9L146.25,98.62L175.5,122.5L204.75,78.22L253.5,181.49L302.25,144.45L331.5,113.64L360.75,144.9" style="vector-effect: non-scaling-stroke; fill: none; stroke: rgb(141, 160, 203); stroke-opacity: 1; stroke-width: 2.5px; opacity: 1;"/></g><g class="points"><path class="point" transform="translate(58.5,137.93)" d="M5,0A5,5 0 1,1 0,-5A5,5 0 0,1 5,0Z" style="opacity: 1; stroke-width: 3px; fill: rgb(141, 160, 203); fill-opacity: 1; stroke: rgb(0, 0, 0); stroke-opacity: 1;"/><path class="point" transform="translate(87.75,85.63)" d="M5,0A5,5 0 1,1 0,-5A5,5 0 0,1 5,0Z" style="opacity: 1; stroke-width: 3px; fill: rgb(141, 160, 203); fill-opacity: 1; stroke: rgb(0, 0, 0); stroke-opacity: 1;"/><path class="point" transform="translate(117,43.9)" d="M5,0A5,5 0 1,1 0,-5A5,5 0 0,1 5,0Z" style="opacity: 1; stroke-width: 3px; fill: rgb(141, 160, 203); fill-opacity: 1; stroke: rgb(0, 0, 0); stroke-opacity: 1;"/><path class="point" transform="translate(146.25,98.62)" d="M5,0A5,5 0 1,1 0,-5A5,5 0 0,1 5,0Z" style="opacity: 1; stroke-width: 3px; fill: rgb(141, 160, 203); fill-opacity: 1; stroke: rgb(0, 0, 0); stroke-opacity: 1;"/><path class="point" transform="translate(175.5,122.5)" d="M5,0A5,5 0 1,1 0,-5A5,5 0 0,1 5,0Z" style="opacity: 1; stroke-width: 3px; fill: rgb(141, 160, 203); fill-opacity: 1; stroke: rgb(0, 0, 0); stroke-opacity: 1;"/><path class="point" transform="translate(204.75,78.22)" d="M5,0A5,5 0 1,1 0,-5A5,5 0 0,1 5,0Z" style="opacity: 1; stroke-width: 3px; fill: rgb(141, 160, 203); fill-opacity: 1; stroke: rgb(0, 0, 0); stroke-opacity: 1;"/><path class="point" transform="translate(253.5,181.49)" d="M5,0A5,5 0 1,1 0,-5A5,5 0 0,1 5,0Z" style="opacity: 1; stroke-width: 3px; fill: rgb(141, 160, 203); fill-opacity: 1; stroke: rgb(0, 0, 0); stroke-opacity: 1;"/><path class="point" transform="translate(302.25,144.45)" d="M5,0A5,5 0 1,1 0,-5A5,5 0 0,1 5,0Z" style="opacity: 1; stroke-width: 3px; fill: rgb(141, 160, 203); fill-opacity: 1; stroke: rgb(0, 0, 0); stroke-opacity: 1;"/><path class="point" transform="translate(331.5,113.64)" d="M5,0A5,5 0 1,1 0,-5A5,5 0 0,1 5,0Z" style="opacity: 1; stroke-width: 3px; fill: rgb(141, 160, 203); fill-opacity: 1; stroke: rgb(0, 0, 0); stroke-opacity: 1;"/><path class="point" transform="translate(360.75,144.9)" d="M5,0A5,5 0 1,1 0,-5A5,5 0 0,1 5,0Z" style="opacity: 1; stroke-width: 3px; fill: rgb(141, 160, 203); fill-opacity: 1; stroke: rgb(0, 0, 0); stroke-opacity: 1;"/></g><g class="text"/></g><g class="trace scatter trace16e7fe" style="stroke-miterlimit: 2; opacity: 1;"><g class="fills"/><g class="errorbars"/><g class="lines"><path class="js-line" d="M0,240L390,240" style="vector-effect: non-scaling-stroke; fill: none; stroke: rgb(128, 128, 128); stroke-opacity: 1; stroke-width: 3px; opacity: 1; stroke-dasharray: 15px, 6px, 3px, 6px;"/></g><g class="points"/><g class="text"/></g></g></g><g class="overplot"/><path class="xlines-above crisp" d="M78,421H470" style="fill: none; stroke-width: 2px; stroke: rgb(175, 175, 175); stroke-opacity: 1;"/><path class="ylines-above crisp" d="M79,100V420" style="fill: none; stroke-width: 2px; stroke: rgb(175, 175, 175); stroke-opacity: 1;"/><g class="overlines-above"/><g class="xaxislayer-above"><g class="xtick"><text text-anchor="middle" x="0" y="441.2" transform="translate(80,0)" style="font-family: 'Open Sans', verdana, arial, sans-serif; font-size: 16px; fill: rgb(42, 63, 95); fill-opacity: 1; white-space: pre;">0.6</text></g><g class="xtick"><text text-anchor="middle" x="0" y="441.2" transform="translate(158,0)" style="font-family: 'Open Sans', verdana, arial, sans-serif; font-size: 16px; fill: rgb(42, 63, 95); fill-opacity: 1; white-space: pre;">0.8</text></g><g class="xtick"><text text-anchor="middle" x="0" y="441.2" transform="translate(236,0)" style="font-family: 'Open Sans', verdana, arial, sans-serif; font-size: 16px; fill: rgb(42, 63, 95); fill-opacity: 1; white-space: pre;">1</text></g><g class="xtick"><text text-anchor="middle" x="0" y="441.2" transform="translate(314,0)" style="font-family: 'Open Sans', verdana, arial, sans-serif; font-size: 16px; fill: rgb(42, 63, 95); fill-opacity: 1; white-space: pre;">1.2</text></g><g class="xtick"><text text-anchor="middle" x="0" y="441.2" transform="translate(392,0)" style="font-family: 'Open Sans', verdana, arial, sans-serif; font-size: 16px; fill: rgb(42, 63, 95); fill-opacity: 1; white-space: pre;">1.4</text></g><g class="xtick"><text text-anchor="middle" x="0" y="441.2" transform="translate(470,0)" style="font-family: 'Open Sans', verdana, arial, sans-serif; font-size: 16px; fill: rgb(42, 63, 95); fill-opacity: 1; white-space: pre;">1.6</text></g></g><g class="yaxislayer-above"><g class="ytick"><text text-anchor="end" x="74.8" y="5.6" transform="translate(0,420)" style="font-family: 'Open Sans', verdana, arial, sans-serif; font-size: 16px; fill: rgb(42, 63, 95); fill-opacity: 1; white-space: pre;">0.9</text></g><g class="ytick"><text text-anchor="end" x="74.8" y="5.6" transform="translate(0,380)" style="font-family: 'Open Sans', verdana, arial, sans-serif; font-size: 16px; fill: rgb(42, 63, 95); fill-opacity: 1; white-space: pre;">0.95</text></g><g class="ytick"><text text-anchor="end" x="74.8" y="5.6" transform="translate(0,340)" style="font-family: 'Open Sans', verdana, arial, sans-serif; font-size: 16px; fill: rgb(42, 63, 95); fill-opacity: 1; white-space: pre;">1</text></g><g class="ytick"><text text-anchor="end" x="74.8" y="5.6" transform="translate(0,300)" style="font-family: 'Open Sans', verdana, arial, sans-serif; font-size: 16px; fill: rgb(42, 63, 95); fill-opacity: 1; white-space: pre;">1.05</text></g><g class="ytick"><text text-anchor="end" x="74.8" y="5.6" transform="translate(0,260)" style="font-family: 'Open Sans', verdana, arial, sans-serif; font-size: 16px; fill: rgb(42, 63, 95); fill-opacity: 1; white-space: pre;">1.1</text></g><g class="ytick"><text text-anchor="end" x="74.8" y="5.6" transform="translate(0,220)" style="font-family: 'Open Sans', verdana, arial, sans-serif; font-size: 16px; fill: rgb(42, 63, 95); fill-opacity: 1; white-space: pre;">1.15</text></g><g class="ytick"><text text-anchor="end" x="74.8" y="5.6" transform="translate(0,180)" style="font-family: 'Open Sans', verdana, arial, sans-serif; font-size: 16px; fill: rgb(42, 63, 95); fill-opacity: 1; white-space: pre;">1.2</text></g><g class="ytick"><text text-anchor="end" x="74.8" y="5.6" transform="translate(0,140)" style="font-family: 'Open Sans', verdana, arial, sans-serif; font-size: 16px; fill: rgb(42, 63, 95); fill-opacity: 1; white-space: pre;">1.25</text></g><g class="ytick"><text text-anchor="end" x="74.8" y="5.6" transform="translate(0,100)" style="font-family: 'Open Sans', verdana, arial, sans-serif; font-size: 16px; fill: rgb(42, 63, 95); fill-opacity: 1; white-space: pre;">1.3</text></g></g><g class="overaxes-above"/></g></g><g class="polarlayer"/><g class="ternarylayer"/><g class="geolayer"/><g class="funnelarealayer"/><g class="pielayer"/><g class="sunburstlayer"/><g class="glimages"/><defs id="topdefs-3a940e"><g class="clips"/></defs><g class="layer-above"><g class="imagelayer"/><g class="shapelayer"/></g><g class="infolayer"><g class="g-gtitle"/><g class="g-xtitle"><text class="xtitle" x="275" y="488" text-anchor="middle" style="font-family: 'Open Sans', verdana, arial, sans-serif; font-size: 19px; fill: rgb(42, 63, 95); opacity: 1; font-weight: normal; white-space: pre;">Actual Duration (sec)</text></g><g class="g-ytitle"><text class="ytitle" transform="rotate(-90,31,260)" x="31" y="260" text-anchor="middle" style="font-family: 'Open Sans', verdana, arial, sans-serif; font-size: 19px; fill: rgb(42, 63, 95); opacity: 1; font-weight: normal; white-space: pre;">Average Ratio Reported</text></g></g></svg>