<svg class="main-svg" xmlns="http://www.w3.org/2000/svg" xmlns:xlink="http://www.w3.org/1999/xlink" width="850" height="800" viewBox="0 0 850 800"><rect x="0" y="0" width="850" height="800" style="fill: rgb(0, 0, 0); fill-opacity: 0;"/><defs id="defs-d9d59a"><g class="clips"><clipPath id="clipd9d59axyplot" class="plotclip"><rect width="568" height="596"/></clipPath><clipPath class="axesclip" id="clipd9d59ax"><rect x="110" y="0" width="568" height="800"/></clipPath><clipPath class="axesclip" id="clipd9d59ay"><rect x="0" y="100" width="850" height="596"/></clipPath><clipPath class="axesclip" id="clipd9d59axy"><rect x="110" y="100" width="568" height="596"/></clipPath></g><g class="gradients"/></defs><g class="bglayer"><rect class="bg" x="110" y="100" width="568" height="596" style="fill: rgb(0, 0, 0); fill-opacity: 0; stroke-width: 0;"/></g><g class="layer-below"><g class="imagelayer"/><g class="shapelayer"/></g><g class="cartesianlayer"><g class="subplot xy"><g class="layer-subplot"><g class="shapelayer"/><g class="imagelayer"/></g><g class="gridlayer"><g class="x"><path class="xgrid crisp" transform="translate(166.8,0)" d="M0,100v596" style="stroke: rgb(223, 223, 223); stroke-opacity: 1; stroke-width: 1.5px;"/><path class="xgrid crisp" transform="translate(280.4,0)" d="M0,100v596" style="stroke: rgb(223, 223, 223); stroke-opacity: 1; stroke-width: 1.5px;"/><path class="xgrid crisp" transform="translate(394,0)" d="M0,100v596" style="stroke: rgb(223, 223, 223); stroke-opacity: 1; stroke-width: 1.5px;"/><path class="xgrid crisp" transform="translate(507.6,0)" d="M0,100v596" style="stroke: rgb(223, 223, 223); stroke-opacity: 1; stroke-width: 1.5px;"/><path class="xgrid crisp" transform="translate(621.2,0)" d="M0,100v596" style="stroke: rgb(223, 223, 223); stroke-opacity: 1; stroke-width: 1.5px;"/></g><g class="y"><path class="ygrid crisp" transform="translate(0,603.29)" d="M110,0h568" style="stroke: rgb(223, 223, 223); stroke-opacity: 1; stroke-width: 1.5px;"/><path class="ygrid crisp" transform="translate(0,510.58)" d="M110,0h568" style="stroke: rgb(223, 223, 223); stroke-opacity: 1; stroke-width: 1.5px;"/><path class="ygrid crisp" transform="translate(0,417.87)" d="M110,0h568" style="stroke: rgb(223, 223, 223); stroke-opacity: 1; stroke-width: 1.5px;"/><path class="ygrid crisp" transform="translate(0,325.15999999999997)" d="M110,0h568" style="stroke: rgb(223, 223, 223); stroke-opacity: 1; stroke-width: 1.5px;"/><path class="ygrid crisp" transform="translate(0,232.44)" d="M110,0h568" style="stroke: rgb(223, 223, 223); stroke-opacity: 1; stroke-width: 1.5px;"/><path class="ygrid crisp" transform="translate(0,139.73)" d="M110,0h568" style="stroke: rgb(223, 223, 223); stroke-opacity: 1; stroke-width: 1.5px;"/></g></g><g class="zerolinelayer"><path class="yzl zl crisp" transform="translate(0,696)" d="M110,0h568" style="stroke: rgb(255, 255, 255); stroke-opacity: 1; stroke-width: 2px;"/></g><path class="xlines-below"/><path class="ylines-below"/><g class="overlines-below"/><g class="xaxislayer-below"/><g class="yaxislayer-below"/><g class="overaxes-below"/><g class="plot" transform="translate(110, 100)" clip-path="url('#clipd9d59axyplot')"><g class="barlayer mlayer"><g class="trace bars" style="opacity: 1;"><g class="points"><g class="point"><path d="M-931.52,596V595.78H-908.8V596Z" style="vector-effect: non-scaling-stroke; opacity: 1; stroke-width: 0px; fill: rgb(240, 59, 32); fill-opacity: 1;"/></g><g class="point"><path d="M-874.72,596V595.78H-852V596Z" style="vector-effect: non-scaling-stroke; opacity: 1; stroke-width: 0px; fill: rgb(240, 59, 32); fill-opacity: 1;"/></g><g class="point"><path d="M-817.92,596V594.9H-795.2V596Z" style="vector-effect: non-scaling-stroke; opacity: 1; stroke-width: 0px; fill: rgb(240, 59, 32); fill-opacity: 1;"/></g><g class="point"><path d="M0,0Z" style="vector-effect: non-scaling-stroke; opacity: 1; stroke-width: 0px; fill: rgb(240, 59, 32); fill-opacity: 1;"/></g><g class="point"><path d="M-704.32,596V594.68H-681.6V596Z" style="vector-effect: non-scaling-stroke; opacity: 1; stroke-width: 0px; fill: rgb(240, 59, 32); fill-opacity: 1;"/></g><g class="point"><path d="M-647.52,596V594.45H-624.8V596Z" style="vector-effect: non-scaling-stroke; opacity: 1; stroke-width: 0px; fill: rgb(240, 59, 32); fill-opacity: 1;"/></g><g class="point"><path d="M-590.72,596V595.12H-568V596Z" style="vector-effect: non-scaling-stroke; opacity: 1; stroke-width: 0px; fill: rgb(240, 59, 32); fill-opacity: 1;"/></g><g class="point"><path d="M-533.92,596V595.34H-511.2V596Z" style="vector-effect: non-scaling-stroke; opacity: 1; stroke-width: 0px; fill: rgb(240, 59, 32); fill-opacity: 1;"/></g><g class="point"><path d="M-477.12,596V594.68H-454.4V596Z" style="vector-effect: non-scaling-stroke; opacity: 1; stroke-width: 0px; fill: rgb(240, 59, 32); fill-opacity: 1;"/></g><g class="point"><path d="M-420.32,596V594.45H-397.6V596Z" style="vector-effect: non-scaling-stroke; opacity: 1; stroke-width: 0px; fill: rgb(240, 59, 32); fill-opacity: 1;"/></g><g class="point"><path d="M-363.52,596V595.12H-340.8V596Z" style="vector-effect: non-scaling-stroke; opacity: 1; stroke-width: 0px; fill: rgb(240, 59, 32); fill-opacity: 1;"/></g><g class="point"><path d="M-306.72,596V594.01H-284V596Z" style="vector-effect: non-scaling-stroke; opacity: 1; stroke-width: 0px; fill: rgb(240, 59, 32); fill-opacity: 1;"/></g><g class="point"><path d="M-249.92,596V594.45H-227.2V596Z" style="vector-effect: non-scaling-stroke; opacity: 1; stroke-width: 0px; fill: rgb(240, 59, 32); fill-opacity: 1;"/></g><g class="point"><path d="M-193.12,596V593.79H-170.4V596Z" style="vector-effect: non-scaling-stroke; opacity: 1; stroke-width: 0px; fill: rgb(240, 59, 32); fill-opacity: 1;"/></g><g class="point"><path d="M-136.32,596V593.13H-113.6V596Z" style="vector-effect: non-scaling-stroke; opacity: 1; stroke-width: 0px; fill: rgb(240, 59, 32); fill-opacity: 1;"/></g><g class="point"><path d="M-79.52,596V590.48H-56.8V596Z" style="vector-effect: non-scaling-stroke; opacity: 1; stroke-width: 0px; fill: rgb(240, 59, 32); fill-opacity: 1;"/></g><g class="point"><path d="M-22.72,596V590.26H0V596Z" style="vector-effect: non-scaling-stroke; opacity: 1; stroke-width: 0px; fill: rgb(240, 59, 32); fill-opacity: 1;"/></g><g class="point"><path d="M34.08,596V590.26H56.8V596Z" style="vector-effect: non-scaling-stroke; opacity: 1; stroke-width: 0px; fill: rgb(240, 59, 32); fill-opacity: 1;"/></g><g class="point"><path d="M90.88,596V584.74H113.6V596Z" style="vector-effect: non-scaling-stroke; opacity: 1; stroke-width: 0px; fill: rgb(240, 59, 32); fill-opacity: 1;"/></g><g class="point"><path d="M147.68,596V558.03H170.4V596Z" style="vector-effect: non-scaling-stroke; opacity: 1; stroke-width: 0px; fill: rgb(240, 59, 32); fill-opacity: 1;"/></g><g class="point"><path d="M204.48,596V370.84H227.2V596Z" style="vector-effect: non-scaling-stroke; opacity: 1; stroke-width: 0px; fill: rgb(240, 59, 32); fill-opacity: 1;"/></g><g class="point"><path d="M261.28,596V190.94H284V596Z" style="vector-effect: non-scaling-stroke; opacity: 1; stroke-width: 0px; fill: rgb(240, 59, 32); fill-opacity: 1;"/></g><g class="point"><path d="M318.08,596V455.39H340.8V596Z" style="vector-effect: non-scaling-stroke; opacity: 1; stroke-width: 0px; fill: rgb(240, 59, 32); fill-opacity: 1;"/></g><g class="point"><path d="M374.88,596V564.88H397.6V596Z" style="vector-effect: non-scaling-stroke; opacity: 1; stroke-width: 0px; fill: rgb(240, 59, 32); fill-opacity: 1;"/></g><g class="point"><path d="M431.68,596V586.29H454.4V596Z" style="vector-effect: non-scaling-stroke; opacity: 1; stroke-width: 0px; fill: rgb(240, 59, 32); fill-opacity: 1;"/></g><g class="point"><path d="M488.48,596V592.69H511.2V596Z" style="vector-effect: non-scaling-stroke; opacity: 1; stroke-width: 0px; fill: rgb(240, 59, 32); fill-opacity: 1;"/></g><g class="point"><path d="M545.28,596V594.45H568V596Z" style="vector-effect: non-scaling-stroke; opacity: 1; stroke-width: 0px; fill: rgb(240, 59, 32); fill-opacity: 1;"/></g><g class="point"><path d="M602.08,596V593.57H624.8V596Z" style="vector-effect: non-scaling-stroke; opacity: 1; stroke-width: 0px; fill: rgb(240, 59, 32); fill-opacity: 1;"/></g><g class="point"><path d="M658.88,596V593.13H681.6V596Z" style="vector-effect: non-scaling-stroke; opacity: 1; stroke-width: 0px; fill: rgb(240, 59, 32); fill-opacity: 1;"/></g><g class="point"><path d="M715.68,596V594.01H738.4V596Z" style="vector-effect: non-scaling-stroke; opacity: 1; stroke-width: 0px; fill: rgb(240, 59, 32); fill-opacity: 1;"/></g><g class="point"><path d="M772.48,596V592.69H795.2V596Z" style="vector-effect: non-scaling-stroke; opacity: 1; stroke-width: 0px; fill: rgb(240, 59, 32); fill-opacity: 1;"/></g><g class="point"><path d="M829.28,596V595.12H852V596Z" style="vector-effect: non-scaling-stroke; opacity: 1; stroke-width: 0px; fill: rgb(240, 59, 32); fill-opacity: 1;"/></g><g class="point"><path d="M886.08,596V592.69H908.8V596Z" style="vector-effect: non-scaling-stroke; opacity: 1; stroke-width: 0px; fill: rgb(240, 59, 32); fill-opacity: 1;"/></g><g class="point"><path d="M942.88,596V594.45H965.6V596Z" style="vector-effect: non-scaling-stroke; opacity: 1; stroke-width: 0px; fill: rgb(240, 59, 32); fill-opacity: 1;"/></g><g class="point"><path d="M999.68,596V593.79H1022.4V596Z" style="vector-effect: non-scaling-stroke; opacity: 1; stroke-width: 0px; fill: rgb(240, 59, 32); fill-opacity: 1;"/></g><g class="point"><path d="M1056.48,596V594.9H1079.2V596Z" style="vector-effect: non-scaling-stroke; opacity: 1; stroke-width: 0px; fill: rgb(240, 59, 32); fill-opacity: 1;"/></g><g class="point"><path d="M1113.28,596V594.23H1136V596Z" style="vector-effect: non-scaling-stroke; opacity: 1; stroke-width: 0px; fill: rgb(240, 59, 32); fill-opacity: 1;"/></g><g class="point"><path d="M1170.08,596V595.12H1192.8V596Z" style="vector-effect: non-scaling-stroke; opacity: 1; stroke-width: 0px; fill: rgb(240, 59, 32); fill-opacity: 1;"/></g><g class="point"><path d="M1226.88,596V595.12H1249.6V596Z" style="vector-effect: non-scaling-stroke; opacity: 1; stroke-width: 0px; fill: rgb(240, 59, 32); fill-opacity: 1;"/></g><g class="point"><path d="M1283.68,596V594.9H1306.4V596Z" style="vector-effect: non-scaling-stroke; opacity: 1; stroke-width: 0px; fill: rgb(240, 59, 32); fill-opacity: 1;"/></g><g class="point"><path d="M1340.48,596V594.23H1363.2V596Z" style="vector-effect: non-scaling-stroke; opacity: 1; stroke-width: 0px; fill: rgb(240, 59, 32); fill-opacity: 1;"/></g></g></g><g class="trace bars" style="opacity: 1;"><g class="points"><g class="point"><path d="M-965.6,596V595.56H-942.88V596Z" style="vector-effect: non-scaling-stroke; opacity: 1; stroke-width: 0px; fill: rgb(255, 237, 160); fill-opacity: 1;"/></g><g class="point"><path d="M0,0Z" style="vector-effect: non-scaling-stroke; opacity: 1; stroke-width: 0px; fill: rgb(255, 237, 160); fill-opacity: 1;"/></g><g class="point"><path d="M-852,596V595.34H-829.28V596Z" style="vector-effect: non-scaling-stroke; opacity: 1; stroke-width: 0px; fill: rgb(255, 237, 160); fill-opacity: 1;"/></g><g class="point"><path d="M-795.2,596V595.78H-772.48V596Z" style="vector-effect: non-scaling-stroke; opacity: 1; stroke-width: 0px; fill: rgb(255, 237, 160); fill-opacity: 1;"/></g><g class="point"><path d="M-738.4,596V594.45H-715.68V596Z" style="vector-effect: non-scaling-stroke; opacity: 1; stroke-width: 0px; fill: rgb(255, 237, 160); fill-opacity: 1;"/></g><g class="point"><path d="M-681.6,596V595.56H-658.88V596Z" style="vector-effect: non-scaling-stroke; opacity: 1; stroke-width: 0px; fill: rgb(255, 237, 160); fill-opacity: 1;"/></g><g class="point"><path d="M-624.8,596V595.12H-602.08V596Z" style="vector-effect: non-scaling-stroke; opacity: 1; stroke-width: 0px; fill: rgb(255, 237, 160); fill-opacity: 1;"/></g><g class="point"><path d="M-568,596V595.34H-545.28V596Z" style="vector-effect: non-scaling-stroke; opacity: 1; stroke-width: 0px; fill: rgb(255, 237, 160); fill-opacity: 1;"/></g><g class="point"><path d="M-511.2,596V594.9H-488.48V596Z" style="vector-effect: non-scaling-stroke; opacity: 1; stroke-width: 0px; fill: rgb(255, 237, 160); fill-opacity: 1;"/></g><g class="point"><path d="M-454.4,596V595.34H-431.68V596Z" style="vector-effect: non-scaling-stroke; opacity: 1; stroke-width: 0px; fill: rgb(255, 237, 160); fill-opacity: 1;"/></g><g class="point"><path d="M-397.6,596V594.01H-374.88V596Z" style="vector-effect: non-scaling-stroke; opacity: 1; stroke-width: 0px; fill: rgb(255, 237, 160); fill-opacity: 1;"/></g><g class="point"><path d="M0,0Z" style="vector-effect: non-scaling-stroke; opacity: 1; stroke-width: 0px; fill: rgb(255, 237, 160); fill-opacity: 1;"/></g><g class="point"><path d="M-284,596V594.68H-261.28V596Z" style="vector-effect: non-scaling-stroke; opacity: 1; stroke-width: 0px; fill: rgb(255, 237, 160); fill-opacity: 1;"/></g><g class="point"><path d="M-227.2,596V593.57H-204.48V596Z" style="vector-effect: non-scaling-stroke; opacity: 1; stroke-width: 0px; fill: rgb(255, 237, 160); fill-opacity: 1;"/></g><g class="point"><path d="M-170.4,596V594.45H-147.68V596Z" style="vector-effect: non-scaling-stroke; opacity: 1; stroke-width: 0px; fill: rgb(255, 237, 160); fill-opacity: 1;"/></g><g class="point"><path d="M-113.6,596V594.23H-90.88V596Z" style="vector-effect: non-scaling-stroke; opacity: 1; stroke-width: 0px; fill: rgb(255, 237, 160); fill-opacity: 1;"/></g><g class="point"><path d="M-56.8,596V593.79H-34.08V596Z" style="vector-effect: non-scaling-stroke; opacity: 1; stroke-width: 0px; fill: rgb(255, 237, 160); fill-opacity: 1;"/></g><g class="point"><path d="M0,596V593.79H22.72V596Z" style="vector-effect: non-scaling-stroke; opacity: 1; stroke-width: 0px; fill: rgb(255, 237, 160); fill-opacity: 1;"/></g><g class="point"><path d="M56.8,596V592.69H79.52V596Z" style="vector-effect: non-scaling-stroke; opacity: 1; stroke-width: 0px; fill: rgb(255, 237, 160); fill-opacity: 1;"/></g><g class="point"><path d="M113.6,596V588.72H136.32V596Z" style="vector-effect: non-scaling-stroke; opacity: 1; stroke-width: 0px; fill: rgb(255, 237, 160); fill-opacity: 1;"/></g><g class="point"><path d="M170.4,596V578.78H193.12V596Z" style="vector-effect: non-scaling-stroke; opacity: 1; stroke-width: 0px; fill: rgb(255, 237, 160); fill-opacity: 1;"/></g><g class="point"><path d="M227.2,596V457.37H249.92V596Z" style="vector-effect: non-scaling-stroke; opacity: 1; stroke-width: 0px; fill: rgb(255, 237, 160); fill-opacity: 1;"/></g><g class="point"><path d="M284,596V29.8H306.72V596Z" style="vector-effect: non-scaling-stroke; opacity: 1; stroke-width: 0px; fill: rgb(255, 237, 160); fill-opacity: 1;"/></g><g class="point"><path d="M340.8,596V463.33H363.52V596Z" style="vector-effect: non-scaling-stroke; opacity: 1; stroke-width: 0px; fill: rgb(255, 237, 160); fill-opacity: 1;"/></g><g class="point"><path d="M397.6,596V578.12H420.32V596Z" style="vector-effect: non-scaling-stroke; opacity: 1; stroke-width: 0px; fill: rgb(255, 237, 160); fill-opacity: 1;"/></g><g class="point"><path d="M454.4,596V591.59H477.12V596Z" style="vector-effect: non-scaling-stroke; opacity: 1; stroke-width: 0px; fill: rgb(255, 237, 160); fill-opacity: 1;"/></g><g class="point"><path d="M511.2,596V594.23H533.92V596Z" style="vector-effect: non-scaling-stroke; opacity: 1; stroke-width: 0px; fill: rgb(255, 237, 160); fill-opacity: 1;"/></g><g class="point"><path d="M568,596V593.35H590.72V596Z" style="vector-effect: non-scaling-stroke; opacity: 1; stroke-width: 0px; fill: rgb(255, 237, 160); fill-opacity: 1;"/></g><g class="point"><path d="M624.8,596V594.01H647.52V596Z" style="vector-effect: non-scaling-stroke; opacity: 1; stroke-width: 0px; fill: rgb(255, 237, 160); fill-opacity: 1;"/></g><g class="point"><path d="M681.6,596V594.23H704.32V596Z" style="vector-effect: non-scaling-stroke; opacity: 1; stroke-width: 0px; fill: rgb(255, 237, 160); fill-opacity: 1;"/></g><g class="point"><path d="M738.4,596V594.68H761.12V596Z" style="vector-effect: non-scaling-stroke; opacity: 1; stroke-width: 0px; fill: rgb(255, 237, 160); fill-opacity: 1;"/></g><g class="point"><path d="M795.2,596V594.45H817.92V596Z" style="vector-effect: non-scaling-stroke; opacity: 1; stroke-width: 0px; fill: rgb(255, 237, 160); fill-opacity: 1;"/></g><g class="point"><path d="M852,596V595.12H874.72V596Z" style="vector-effect: non-scaling-stroke; opacity: 1; stroke-width: 0px; fill: rgb(255, 237, 160); fill-opacity: 1;"/></g><g class="point"><path d="M908.8,596V595.12H931.52V596Z" style="vector-effect: non-scaling-stroke; opacity: 1; stroke-width: 0px; fill: rgb(255, 237, 160); fill-opacity: 1;"/></g><g class="point"><path d="M965.6,596V594.9H988.32V596Z" style="vector-effect: non-scaling-stroke; opacity: 1; stroke-width: 0px; fill: rgb(255, 237, 160); fill-opacity: 1;"/></g><g class="point"><path d="M1022.4,596V594.45H1045.12V596Z" style="vector-effect: non-scaling-stroke; opacity: 1; stroke-width: 0px; fill: rgb(255, 237, 160); fill-opacity: 1;"/></g><g class="point"><path d="M1079.2,596V595.34H1101.92V596Z" style="vector-effect: non-scaling-stroke; opacity: 1; stroke-width: 0px; fill: rgb(255, 237, 160); fill-opacity: 1;"/></g><g class="point"><path d="M1136,596V595.56H1158.72V596Z" style="vector-effect: non-scaling-stroke; opacity: 1; stroke-width: 0px; fill: rgb(255, 237, 160); fill-opacity: 1;"/></g><g class="point"><path d="M1192.8,596V595.34H1215.52V596Z" style="vector-effect: non-scaling-stroke; opacity: 1; stroke-width: 0px; fill: rgb(255, 237, 160); fill-opacity: 1;"/></g><g class="point"><path d="M1249.6,596V595.78H1272.32V596Z" style="vector-effect: non-scaling-stroke; opacity: 1; stroke-width: 0px; fill: rgb(255, 237, 160); fill-opacity: 1;"/></g><g class="point"><path d="M1306.4,596V595.34H1329.12V596Z" style="vector-effect: non-scaling-stroke; opacity: 1; stroke-width: 0px; fill: rgb(255, 237, 160); fill-opacity: 1;"/></g><g class="point"><path d="M1363.2,596V594.68H1385.92V596Z" style="vector-effect: non-scaling-stroke; opacity: 1; stroke-width: 0px; fill: rgb(255, 237, 160); fill-opacity: 1;"/></g></g></g></g></g><g class="overplot"/><path class="xlines-above crisp" d="M107.5,697.25H678" style="fill: none; stroke-width: 2.5px; stroke: rgb(175, 175, 175); stroke-opacity: 1;"/><path class="ylines-above crisp" d="M108.75,100V696" style="fill: none; stroke-width: 2.5px; stroke: rgb(175, 175, 175); stroke-opacity: 1;"/><g class="overlines-above"/><g class="xaxislayer-above"><g class="xtick"><text text-anchor="middle" x="0" y="739.3" transform="translate(166.8,0)" style="font-family: Helvetica, Bold; font-size: 34px; fill: rgb(0, 0, 0); fill-opacity: 1; white-space: pre;">−4</text></g><g class="xtick"><text text-anchor="middle" x="0" y="739.3" transform="translate(280.4,0)" style="font-family: Helvetica, Bold; font-size: 34px; fill: rgb(0, 0, 0); fill-opacity: 1; white-space: pre;">−2</text></g><g class="xtick"><text text-anchor="middle" x="0" y="739.3" transform="translate(394,0)" style="font-family: Helvetica, Bold; font-size: 34px; fill: rgb(0, 0, 0); fill-opacity: 1; white-space: pre;">0</text></g><g class="xtick"><text text-anchor="middle" x="0" y="739.3" transform="translate(507.6,0)" style="font-family: Helvetica, Bold; font-size: 34px; fill: rgb(0, 0, 0); fill-opacity: 1; white-space: pre;">2</text></g><g class="xtick"><text text-anchor="middle" x="0" y="739.3" transform="translate(621.2,0)" style="font-family: Helvetica, Bold; font-size: 34px; fill: rgb(0, 0, 0); fill-opacity: 1; white-space: pre;">4</text></g></g><g class="yaxislayer-above"><g class="ytick"><text text-anchor="end" x="100.7" y="11.899999999999999" transform="translate(0,696)" style="font-family: Helvetica, Bold; font-size: 34px; fill: rgb(0, 0, 0); fill-opacity: 1; white-space: pre;">0</text></g><g class="ytick"><text text-anchor="end" x="100.7" y="11.899999999999999" transform="translate(0,603.29)" style="font-family: Helvetica, Bold; font-size: 34px; fill: rgb(0, 0, 0); fill-opacity: 1; white-space: pre;">0.1</text></g><g class="ytick"><text text-anchor="end" x="100.7" y="11.899999999999999" transform="translate(0,510.58)" style="font-family: Helvetica, Bold; font-size: 34px; fill: rgb(0, 0, 0); fill-opacity: 1; white-space: pre;">0.2</text></g><g class="ytick"><text text-anchor="end" x="100.7" y="11.899999999999999" transform="translate(0,417.87)" style="font-family: Helvetica, Bold; font-size: 34px; fill: rgb(0, 0, 0); fill-opacity: 1; white-space: pre;">0.3</text></g><g class="ytick"><text text-anchor="end" x="100.7" y="11.899999999999999" transform="translate(0,325.15999999999997)" style="font-family: Helvetica, Bold; font-size: 34px; fill: rgb(0, 0, 0); fill-opacity: 1; white-space: pre;">0.4</text></g><g class="ytick"><text text-anchor="end" x="100.7" y="11.899999999999999" transform="translate(0,232.44)" style="font-family: Helvetica, Bold; font-size: 34px; fill: rgb(0, 0, 0); fill-opacity: 1; white-space: pre;">0.5</text></g><g class="ytick"><text text-anchor="end" x="100.7" y="11.899999999999999" transform="translate(0,139.73)" style="font-family: Helvetica, Bold; font-size: 34px; fill: rgb(0, 0, 0); fill-opacity: 1; white-space: pre;">0.6</text></g></g><g class="overaxes-above"/></g></g><g class="polarlayer"/><g class="ternarylayer"/><g class="geolayer"/><g class="funnelarealayer"/><g class="pielayer"/><g class="sunburstlayer"/><g class="glimages"/><defs id="topdefs-d9d59a"><g class="clips"/><clipPath id="legendd9d59a"><rect width="149" height="105" x="0" y="0"/></clipPath></defs><g class="layer-above"><g class="imagelayer"/><g class="shapelayer"/></g><g class="infolayer"><g class="legend" pointer-events="all" transform="translate(689.36, 100)"><rect class="bg" shape-rendering="crispEdges" width="149" height="105" x="0" y="0" style="stroke: rgb(68, 68, 68); stroke-opacity: 1; fill: rgb(0, 0, 0); fill-opacity: 0; stroke-width: 0px;"/><g class="scrollbox" transform="translate(0, 0)" clip-path="url('#legendd9d59a')"><g class="groups"><g class="traces" transform="translate(0, 28.6)" style="opacity: 1;"><text class="legendtext user-select-none" text-anchor="start" x="40" y="13.26" style="font-family: Helvetica, Bold; font-size: 34px; fill: rgb(0, 0, 0); fill-opacity: 1; white-space: pre;">10 deg</text><g class="layers" style="opacity: 1;"><g class="legendfill"/><g class="legendlines"/><g class="legendsymbols"><g class="legendpoints"><path class="legendundefined" d="M6,6H-6V-6H6Z" transform="translate(20,0)" style="stroke-width: 0px; fill: rgb(240, 59, 32); fill-opacity: 1;"/></g></g></g><rect class="legendtoggle" pointer-events="all" x="0" y="-23.6" width="189" height="47.2" style="cursor: pointer; fill: rgb(0, 0, 0); fill-opacity: 0;"/></g><g class="traces" transform="translate(0, 75.80000000000001)" style="opacity: 1;"><text class="legendtext user-select-none" text-anchor="start" x="40" y="13.26" style="font-family: Helvetica, Bold; font-size: 34px; fill: rgb(0, 0, 0); fill-opacity: 1; white-space: pre;">2 deg</text><g class="layers" style="opacity: 1;"><g class="legendfill"/><g class="legendlines"/><g class="legendsymbols"><g class="legendpoints"><path class="legendundefined" d="M6,6H-6V-6H6Z" transform="translate(20,0)" style="stroke-width: 0px; fill: rgb(255, 237, 160); fill-opacity: 1;"/></g></g></g><rect class="legendtoggle" pointer-events="all" x="0" y="-23.6" width="189" height="47.2" style="cursor: pointer; fill: rgb(0, 0, 0); fill-opacity: 0;"/></g></g></g><rect class="scrollbar" rx="20" ry="3" width="0" height="0" x="0" y="0" style="fill: rgb(128, 139, 164); fill-opacity: 1;"/></g><g class="g-gtitle"/><g class="g-xtitle" transform="translate(0,-40)"><text class="xtitle" x="394" y="830.5" text-anchor="middle" style="font-family: Helvetica, Bold; font-size: 41px; fill: rgb(0, 0, 0); opacity: 1; font-weight: normal; white-space: pre;">Serial Position Error</text></g><g class="g-ytitle" transform="translate(21,0)"><text class="ytitle" transform="rotate(-90,16.5,398)" x="16.5" y="398" text-anchor="middle" style="font-family: Helvetica, Bold; font-size: 41px; fill: rgb(0, 0, 0); opacity: 1; font-weight: normal; white-space: pre;">Probability</text></g></g></svg>