<?xml version="1.0" encoding="utf-8" standalone="no"?>
<!DOCTYPE svg PUBLIC "-//W3C//DTD SVG 1.1//EN"
  "http://www.w3.org/Graphics/SVG/1.1/DTD/svg11.dtd">
<!-- Created with matplotlib (https://matplotlib.org/) -->
<svg height="288pt" version="1.1" viewBox="0 0 432 288" width="432pt" xmlns="http://www.w3.org/2000/svg" xmlns:xlink="http://www.w3.org/1999/xlink">
 <defs>
  <style type="text/css">
*{stroke-linecap:butt;stroke-linejoin:round;}
  </style>
 </defs>
 <g id="figure_1">
  <g id="patch_1">
   <path d="M 0 288 
L 432 288 
L 432 0 
L 0 0 
z
" style="fill:none;"/>
  </g>
  <g id="axes_1">
   <g id="patch_2">
    <path d="M 54 252 
L 388.8 252 
L 388.8 34.56 
L 54 34.56 
z
" style="fill:none;"/>
   </g>
   <g id="matplotlib.axis_1">
    <g id="xtick_1">
     <g id="line2d_1">
      <defs>
       <path d="M 0 0 
L 0 3.5 
" id="mb3fa9fb696" style="stroke:#000000;stroke-width:0.8;"/>
      </defs>
      <g>
       <use style="stroke:#000000;stroke-width:0.8;" x="94.581818" xlink:href="#mb3fa9fb696" y="252"/>
      </g>
     </g>
     <g id="text_1">
      <!-- 400 -->
      <defs>
       <path d="M 37.796875 64.3125 
L 12.890625 25.390625 
L 37.796875 25.390625 
z
M 35.203125 72.90625 
L 47.609375 72.90625 
L 47.609375 25.390625 
L 58.015625 25.390625 
L 58.015625 17.1875 
L 47.609375 17.1875 
L 47.609375 0 
L 37.796875 0 
L 37.796875 17.1875 
L 4.890625 17.1875 
L 4.890625 26.703125 
z
" id="DejaVuSans-52"/>
       <path d="M 31.78125 66.40625 
Q 24.171875 66.40625 20.328125 58.90625 
Q 16.5 51.421875 16.5 36.375 
Q 16.5 21.390625 20.328125 13.890625 
Q 24.171875 6.390625 31.78125 6.390625 
Q 39.453125 6.390625 43.28125 13.890625 
Q 47.125 21.390625 47.125 36.375 
Q 47.125 51.421875 43.28125 58.90625 
Q 39.453125 66.40625 31.78125 66.40625 
z
M 31.78125 74.21875 
Q 44.046875 74.21875 50.515625 64.515625 
Q 56.984375 54.828125 56.984375 36.375 
Q 56.984375 17.96875 50.515625 8.265625 
Q 44.046875 -1.421875 31.78125 -1.421875 
Q 19.53125 -1.421875 13.0625 8.265625 
Q 6.59375 17.96875 6.59375 36.375 
Q 6.59375 54.828125 13.0625 64.515625 
Q 19.53125 74.21875 31.78125 74.21875 
z
" id="DejaVuSans-48"/>
      </defs>
      <g transform="translate(85.038068 266.598437)scale(0.1 -0.1)">
       <use xlink:href="#DejaVuSans-52"/>
       <use x="63.623047" xlink:href="#DejaVuSans-48"/>
       <use x="127.246094" xlink:href="#DejaVuSans-48"/>
      </g>
     </g>
    </g>
    <g id="xtick_2">
     <g id="line2d_2">
      <g>
       <use style="stroke:#000000;stroke-width:0.8;" x="167.049351" xlink:href="#mb3fa9fb696" y="252"/>
      </g>
     </g>
     <g id="text_2">
      <!-- 600 -->
      <defs>
       <path d="M 33.015625 40.375 
Q 26.375 40.375 22.484375 35.828125 
Q 18.609375 31.296875 18.609375 23.390625 
Q 18.609375 15.53125 22.484375 10.953125 
Q 26.375 6.390625 33.015625 6.390625 
Q 39.65625 6.390625 43.53125 10.953125 
Q 47.40625 15.53125 47.40625 23.390625 
Q 47.40625 31.296875 43.53125 35.828125 
Q 39.65625 40.375 33.015625 40.375 
z
M 52.59375 71.296875 
L 52.59375 62.3125 
Q 48.875 64.0625 45.09375 64.984375 
Q 41.3125 65.921875 37.59375 65.921875 
Q 27.828125 65.921875 22.671875 59.328125 
Q 17.53125 52.734375 16.796875 39.40625 
Q 19.671875 43.65625 24.015625 45.921875 
Q 28.375 48.1875 33.59375 48.1875 
Q 44.578125 48.1875 50.953125 41.515625 
Q 57.328125 34.859375 57.328125 23.390625 
Q 57.328125 12.15625 50.6875 5.359375 
Q 44.046875 -1.421875 33.015625 -1.421875 
Q 20.359375 -1.421875 13.671875 8.265625 
Q 6.984375 17.96875 6.984375 36.375 
Q 6.984375 53.65625 15.1875 63.9375 
Q 23.390625 74.21875 37.203125 74.21875 
Q 40.921875 74.21875 44.703125 73.484375 
Q 48.484375 72.75 52.59375 71.296875 
z
" id="DejaVuSans-54"/>
      </defs>
      <g transform="translate(157.505601 266.598437)scale(0.1 -0.1)">
       <use xlink:href="#DejaVuSans-54"/>
       <use x="63.623047" xlink:href="#DejaVuSans-48"/>
       <use x="127.246094" xlink:href="#DejaVuSans-48"/>
      </g>
     </g>
    </g>
    <g id="xtick_3">
     <g id="line2d_3">
      <g>
       <use style="stroke:#000000;stroke-width:0.8;" x="239.516883" xlink:href="#mb3fa9fb696" y="252"/>
      </g>
     </g>
     <g id="text_3">
      <!-- 800 -->
      <defs>
       <path d="M 31.78125 34.625 
Q 24.75 34.625 20.71875 30.859375 
Q 16.703125 27.09375 16.703125 20.515625 
Q 16.703125 13.921875 20.71875 10.15625 
Q 24.75 6.390625 31.78125 6.390625 
Q 38.8125 6.390625 42.859375 10.171875 
Q 46.921875 13.96875 46.921875 20.515625 
Q 46.921875 27.09375 42.890625 30.859375 
Q 38.875 34.625 31.78125 34.625 
z
M 21.921875 38.8125 
Q 15.578125 40.375 12.03125 44.71875 
Q 8.5 49.078125 8.5 55.328125 
Q 8.5 64.0625 14.71875 69.140625 
Q 20.953125 74.21875 31.78125 74.21875 
Q 42.671875 74.21875 48.875 69.140625 
Q 55.078125 64.0625 55.078125 55.328125 
Q 55.078125 49.078125 51.53125 44.71875 
Q 48 40.375 41.703125 38.8125 
Q 48.828125 37.15625 52.796875 32.3125 
Q 56.78125 27.484375 56.78125 20.515625 
Q 56.78125 9.90625 50.3125 4.234375 
Q 43.84375 -1.421875 31.78125 -1.421875 
Q 19.734375 -1.421875 13.25 4.234375 
Q 6.78125 9.90625 6.78125 20.515625 
Q 6.78125 27.484375 10.78125 32.3125 
Q 14.796875 37.15625 21.921875 38.8125 
z
M 18.3125 54.390625 
Q 18.3125 48.734375 21.84375 45.5625 
Q 25.390625 42.390625 31.78125 42.390625 
Q 38.140625 42.390625 41.71875 45.5625 
Q 45.3125 48.734375 45.3125 54.390625 
Q 45.3125 60.0625 41.71875 63.234375 
Q 38.140625 66.40625 31.78125 66.40625 
Q 25.390625 66.40625 21.84375 63.234375 
Q 18.3125 60.0625 18.3125 54.390625 
z
" id="DejaVuSans-56"/>
      </defs>
      <g transform="translate(229.973133 266.598437)scale(0.1 -0.1)">
       <use xlink:href="#DejaVuSans-56"/>
       <use x="63.623047" xlink:href="#DejaVuSans-48"/>
       <use x="127.246094" xlink:href="#DejaVuSans-48"/>
      </g>
     </g>
    </g>
    <g id="xtick_4">
     <g id="line2d_4">
      <g>
       <use style="stroke:#000000;stroke-width:0.8;" x="311.984416" xlink:href="#mb3fa9fb696" y="252"/>
      </g>
     </g>
     <g id="text_4">
      <!-- 1000 -->
      <defs>
       <path d="M 12.40625 8.296875 
L 28.515625 8.296875 
L 28.515625 63.921875 
L 10.984375 60.40625 
L 10.984375 69.390625 
L 28.421875 72.90625 
L 38.28125 72.90625 
L 38.28125 8.296875 
L 54.390625 8.296875 
L 54.390625 0 
L 12.40625 0 
z
" id="DejaVuSans-49"/>
      </defs>
      <g transform="translate(299.259416 266.598437)scale(0.1 -0.1)">
       <use xlink:href="#DejaVuSans-49"/>
       <use x="63.623047" xlink:href="#DejaVuSans-48"/>
       <use x="127.246094" xlink:href="#DejaVuSans-48"/>
       <use x="190.869141" xlink:href="#DejaVuSans-48"/>
      </g>
     </g>
    </g>
    <g id="xtick_5">
     <g id="line2d_5">
      <g>
       <use style="stroke:#000000;stroke-width:0.8;" x="384.451948" xlink:href="#mb3fa9fb696" y="252"/>
      </g>
     </g>
     <g id="text_5">
      <!-- 1200 -->
      <defs>
       <path d="M 19.1875 8.296875 
L 53.609375 8.296875 
L 53.609375 0 
L 7.328125 0 
L 7.328125 8.296875 
Q 12.9375 14.109375 22.625 23.890625 
Q 32.328125 33.6875 34.8125 36.53125 
Q 39.546875 41.84375 41.421875 45.53125 
Q 43.3125 49.21875 43.3125 52.78125 
Q 43.3125 58.59375 39.234375 62.25 
Q 35.15625 65.921875 28.609375 65.921875 
Q 23.96875 65.921875 18.8125 64.3125 
Q 13.671875 62.703125 7.8125 59.421875 
L 7.8125 69.390625 
Q 13.765625 71.78125 18.9375 73 
Q 24.125 74.21875 28.421875 74.21875 
Q 39.75 74.21875 46.484375 68.546875 
Q 53.21875 62.890625 53.21875 53.421875 
Q 53.21875 48.921875 51.53125 44.890625 
Q 49.859375 40.875 45.40625 35.40625 
Q 44.1875 33.984375 37.640625 27.21875 
Q 31.109375 20.453125 19.1875 8.296875 
z
" id="DejaVuSans-50"/>
      </defs>
      <g transform="translate(371.726948 266.598437)scale(0.1 -0.1)">
       <use xlink:href="#DejaVuSans-49"/>
       <use x="63.623047" xlink:href="#DejaVuSans-50"/>
       <use x="127.246094" xlink:href="#DejaVuSans-48"/>
       <use x="190.869141" xlink:href="#DejaVuSans-48"/>
      </g>
     </g>
    </g>
    <g id="text_6">
     <!-- Duration of the odd ball stimulus -->
     <defs>
      <path d="M 19.671875 64.796875 
L 19.671875 8.109375 
L 31.59375 8.109375 
Q 46.6875 8.109375 53.6875 14.9375 
Q 60.6875 21.78125 60.6875 36.53125 
Q 60.6875 51.171875 53.6875 57.984375 
Q 46.6875 64.796875 31.59375 64.796875 
z
M 9.8125 72.90625 
L 30.078125 72.90625 
Q 51.265625 72.90625 61.171875 64.09375 
Q 71.09375 55.28125 71.09375 36.53125 
Q 71.09375 17.671875 61.125 8.828125 
Q 51.171875 0 30.078125 0 
L 9.8125 0 
z
" id="DejaVuSans-68"/>
      <path d="M 8.5 21.578125 
L 8.5 54.6875 
L 17.484375 54.6875 
L 17.484375 21.921875 
Q 17.484375 14.15625 20.5 10.265625 
Q 23.53125 6.390625 29.59375 6.390625 
Q 36.859375 6.390625 41.078125 11.03125 
Q 45.3125 15.671875 45.3125 23.6875 
L 45.3125 54.6875 
L 54.296875 54.6875 
L 54.296875 0 
L 45.3125 0 
L 45.3125 8.40625 
Q 42.046875 3.421875 37.71875 1 
Q 33.40625 -1.421875 27.6875 -1.421875 
Q 18.265625 -1.421875 13.375 4.4375 
Q 8.5 10.296875 8.5 21.578125 
z
M 31.109375 56 
z
" id="DejaVuSans-117"/>
      <path d="M 41.109375 46.296875 
Q 39.59375 47.171875 37.8125 47.578125 
Q 36.03125 48 33.890625 48 
Q 26.265625 48 22.1875 43.046875 
Q 18.109375 38.09375 18.109375 28.8125 
L 18.109375 0 
L 9.078125 0 
L 9.078125 54.6875 
L 18.109375 54.6875 
L 18.109375 46.1875 
Q 20.953125 51.171875 25.484375 53.578125 
Q 30.03125 56 36.53125 56 
Q 37.453125 56 38.578125 55.875 
Q 39.703125 55.765625 41.0625 55.515625 
z
" id="DejaVuSans-114"/>
      <path d="M 34.28125 27.484375 
Q 23.390625 27.484375 19.1875 25 
Q 14.984375 22.515625 14.984375 16.5 
Q 14.984375 11.71875 18.140625 8.90625 
Q 21.296875 6.109375 26.703125 6.109375 
Q 34.1875 6.109375 38.703125 11.40625 
Q 43.21875 16.703125 43.21875 25.484375 
L 43.21875 27.484375 
z
M 52.203125 31.203125 
L 52.203125 0 
L 43.21875 0 
L 43.21875 8.296875 
Q 40.140625 3.328125 35.546875 0.953125 
Q 30.953125 -1.421875 24.3125 -1.421875 
Q 15.921875 -1.421875 10.953125 3.296875 
Q 6 8.015625 6 15.921875 
Q 6 25.140625 12.171875 29.828125 
Q 18.359375 34.515625 30.609375 34.515625 
L 43.21875 34.515625 
L 43.21875 35.40625 
Q 43.21875 41.609375 39.140625 45 
Q 35.0625 48.390625 27.6875 48.390625 
Q 23 48.390625 18.546875 47.265625 
Q 14.109375 46.140625 10.015625 43.890625 
L 10.015625 52.203125 
Q 14.9375 54.109375 19.578125 55.046875 
Q 24.21875 56 28.609375 56 
Q 40.484375 56 46.34375 49.84375 
Q 52.203125 43.703125 52.203125 31.203125 
z
" id="DejaVuSans-97"/>
      <path d="M 18.3125 70.21875 
L 18.3125 54.6875 
L 36.8125 54.6875 
L 36.8125 47.703125 
L 18.3125 47.703125 
L 18.3125 18.015625 
Q 18.3125 11.328125 20.140625 9.421875 
Q 21.96875 7.515625 27.59375 7.515625 
L 36.8125 7.515625 
L 36.8125 0 
L 27.59375 0 
Q 17.1875 0 13.234375 3.875 
Q 9.28125 7.765625 9.28125 18.015625 
L 9.28125 47.703125 
L 2.6875 47.703125 
L 2.6875 54.6875 
L 9.28125 54.6875 
L 9.28125 70.21875 
z
" id="DejaVuSans-116"/>
      <path d="M 9.421875 54.6875 
L 18.40625 54.6875 
L 18.40625 0 
L 9.421875 0 
z
M 9.421875 75.984375 
L 18.40625 75.984375 
L 18.40625 64.59375 
L 9.421875 64.59375 
z
" id="DejaVuSans-105"/>
      <path d="M 30.609375 48.390625 
Q 23.390625 48.390625 19.1875 42.75 
Q 14.984375 37.109375 14.984375 27.296875 
Q 14.984375 17.484375 19.15625 11.84375 
Q 23.34375 6.203125 30.609375 6.203125 
Q 37.796875 6.203125 41.984375 11.859375 
Q 46.1875 17.53125 46.1875 27.296875 
Q 46.1875 37.015625 41.984375 42.703125 
Q 37.796875 48.390625 30.609375 48.390625 
z
M 30.609375 56 
Q 42.328125 56 49.015625 48.375 
Q 55.71875 40.765625 55.71875 27.296875 
Q 55.71875 13.875 49.015625 6.21875 
Q 42.328125 -1.421875 30.609375 -1.421875 
Q 18.84375 -1.421875 12.171875 6.21875 
Q 5.515625 13.875 5.515625 27.296875 
Q 5.515625 40.765625 12.171875 48.375 
Q 18.84375 56 30.609375 56 
z
" id="DejaVuSans-111"/>
      <path d="M 54.890625 33.015625 
L 54.890625 0 
L 45.90625 0 
L 45.90625 32.71875 
Q 45.90625 40.484375 42.875 44.328125 
Q 39.84375 48.1875 33.796875 48.1875 
Q 26.515625 48.1875 22.3125 43.546875 
Q 18.109375 38.921875 18.109375 30.90625 
L 18.109375 0 
L 9.078125 0 
L 9.078125 54.6875 
L 18.109375 54.6875 
L 18.109375 46.1875 
Q 21.34375 51.125 25.703125 53.5625 
Q 30.078125 56 35.796875 56 
Q 45.21875 56 50.046875 50.171875 
Q 54.890625 44.34375 54.890625 33.015625 
z
" id="DejaVuSans-110"/>
      <path id="DejaVuSans-32"/>
      <path d="M 37.109375 75.984375 
L 37.109375 68.5 
L 28.515625 68.5 
Q 23.6875 68.5 21.796875 66.546875 
Q 19.921875 64.59375 19.921875 59.515625 
L 19.921875 54.6875 
L 34.71875 54.6875 
L 34.71875 47.703125 
L 19.921875 47.703125 
L 19.921875 0 
L 10.890625 0 
L 10.890625 47.703125 
L 2.296875 47.703125 
L 2.296875 54.6875 
L 10.890625 54.6875 
L 10.890625 58.5 
Q 10.890625 67.625 15.140625 71.796875 
Q 19.390625 75.984375 28.609375 75.984375 
z
" id="DejaVuSans-102"/>
      <path d="M 54.890625 33.015625 
L 54.890625 0 
L 45.90625 0 
L 45.90625 32.71875 
Q 45.90625 40.484375 42.875 44.328125 
Q 39.84375 48.1875 33.796875 48.1875 
Q 26.515625 48.1875 22.3125 43.546875 
Q 18.109375 38.921875 18.109375 30.90625 
L 18.109375 0 
L 9.078125 0 
L 9.078125 75.984375 
L 18.109375 75.984375 
L 18.109375 46.1875 
Q 21.34375 51.125 25.703125 53.5625 
Q 30.078125 56 35.796875 56 
Q 45.21875 56 50.046875 50.171875 
Q 54.890625 44.34375 54.890625 33.015625 
z
" id="DejaVuSans-104"/>
      <path d="M 56.203125 29.59375 
L 56.203125 25.203125 
L 14.890625 25.203125 
Q 15.484375 15.921875 20.484375 11.0625 
Q 25.484375 6.203125 34.421875 6.203125 
Q 39.59375 6.203125 44.453125 7.46875 
Q 49.3125 8.734375 54.109375 11.28125 
L 54.109375 2.78125 
Q 49.265625 0.734375 44.1875 -0.34375 
Q 39.109375 -1.421875 33.890625 -1.421875 
Q 20.796875 -1.421875 13.15625 6.1875 
Q 5.515625 13.8125 5.515625 26.8125 
Q 5.515625 40.234375 12.765625 48.109375 
Q 20.015625 56 32.328125 56 
Q 43.359375 56 49.78125 48.890625 
Q 56.203125 41.796875 56.203125 29.59375 
z
M 47.21875 32.234375 
Q 47.125 39.59375 43.09375 43.984375 
Q 39.0625 48.390625 32.421875 48.390625 
Q 24.90625 48.390625 20.390625 44.140625 
Q 15.875 39.890625 15.1875 32.171875 
z
" id="DejaVuSans-101"/>
      <path d="M 45.40625 46.390625 
L 45.40625 75.984375 
L 54.390625 75.984375 
L 54.390625 0 
L 45.40625 0 
L 45.40625 8.203125 
Q 42.578125 3.328125 38.25 0.953125 
Q 33.9375 -1.421875 27.875 -1.421875 
Q 17.96875 -1.421875 11.734375 6.484375 
Q 5.515625 14.40625 5.515625 27.296875 
Q 5.515625 40.1875 11.734375 48.09375 
Q 17.96875 56 27.875 56 
Q 33.9375 56 38.25 53.625 
Q 42.578125 51.265625 45.40625 46.390625 
z
M 14.796875 27.296875 
Q 14.796875 17.390625 18.875 11.75 
Q 22.953125 6.109375 30.078125 6.109375 
Q 37.203125 6.109375 41.296875 11.75 
Q 45.40625 17.390625 45.40625 27.296875 
Q 45.40625 37.203125 41.296875 42.84375 
Q 37.203125 48.484375 30.078125 48.484375 
Q 22.953125 48.484375 18.875 42.84375 
Q 14.796875 37.203125 14.796875 27.296875 
z
" id="DejaVuSans-100"/>
      <path d="M 48.6875 27.296875 
Q 48.6875 37.203125 44.609375 42.84375 
Q 40.53125 48.484375 33.40625 48.484375 
Q 26.265625 48.484375 22.1875 42.84375 
Q 18.109375 37.203125 18.109375 27.296875 
Q 18.109375 17.390625 22.1875 11.75 
Q 26.265625 6.109375 33.40625 6.109375 
Q 40.53125 6.109375 44.609375 11.75 
Q 48.6875 17.390625 48.6875 27.296875 
z
M 18.109375 46.390625 
Q 20.953125 51.265625 25.265625 53.625 
Q 29.59375 56 35.59375 56 
Q 45.5625 56 51.78125 48.09375 
Q 58.015625 40.1875 58.015625 27.296875 
Q 58.015625 14.40625 51.78125 6.484375 
Q 45.5625 -1.421875 35.59375 -1.421875 
Q 29.59375 -1.421875 25.265625 0.953125 
Q 20.953125 3.328125 18.109375 8.203125 
L 18.109375 0 
L 9.078125 0 
L 9.078125 75.984375 
L 18.109375 75.984375 
z
" id="DejaVuSans-98"/>
      <path d="M 9.421875 75.984375 
L 18.40625 75.984375 
L 18.40625 0 
L 9.421875 0 
z
" id="DejaVuSans-108"/>
      <path d="M 44.28125 53.078125 
L 44.28125 44.578125 
Q 40.484375 46.53125 36.375 47.5 
Q 32.28125 48.484375 27.875 48.484375 
Q 21.1875 48.484375 17.84375 46.4375 
Q 14.5 44.390625 14.5 40.28125 
Q 14.5 37.15625 16.890625 35.375 
Q 19.28125 33.59375 26.515625 31.984375 
L 29.59375 31.296875 
Q 39.15625 29.25 43.1875 25.515625 
Q 47.21875 21.78125 47.21875 15.09375 
Q 47.21875 7.46875 41.1875 3.015625 
Q 35.15625 -1.421875 24.609375 -1.421875 
Q 20.21875 -1.421875 15.453125 -0.5625 
Q 10.6875 0.296875 5.421875 2 
L 5.421875 11.28125 
Q 10.40625 8.6875 15.234375 7.390625 
Q 20.0625 6.109375 24.8125 6.109375 
Q 31.15625 6.109375 34.5625 8.28125 
Q 37.984375 10.453125 37.984375 14.40625 
Q 37.984375 18.0625 35.515625 20.015625 
Q 33.0625 21.96875 24.703125 23.78125 
L 21.578125 24.515625 
Q 13.234375 26.265625 9.515625 29.90625 
Q 5.8125 33.546875 5.8125 39.890625 
Q 5.8125 47.609375 11.28125 51.796875 
Q 16.75 56 26.8125 56 
Q 31.78125 56 36.171875 55.265625 
Q 40.578125 54.546875 44.28125 53.078125 
z
" id="DejaVuSans-115"/>
      <path d="M 52 44.1875 
Q 55.375 50.25 60.0625 53.125 
Q 64.75 56 71.09375 56 
Q 79.640625 56 84.28125 50.015625 
Q 88.921875 44.046875 88.921875 33.015625 
L 88.921875 0 
L 79.890625 0 
L 79.890625 32.71875 
Q 79.890625 40.578125 77.09375 44.375 
Q 74.3125 48.1875 68.609375 48.1875 
Q 61.625 48.1875 57.5625 43.546875 
Q 53.515625 38.921875 53.515625 30.90625 
L 53.515625 0 
L 44.484375 0 
L 44.484375 32.71875 
Q 44.484375 40.625 41.703125 44.40625 
Q 38.921875 48.1875 33.109375 48.1875 
Q 26.21875 48.1875 22.15625 43.53125 
Q 18.109375 38.875 18.109375 30.90625 
L 18.109375 0 
L 9.078125 0 
L 9.078125 54.6875 
L 18.109375 54.6875 
L 18.109375 46.1875 
Q 21.1875 51.21875 25.484375 53.609375 
Q 29.78125 56 35.6875 56 
Q 41.65625 56 45.828125 52.96875 
Q 50 49.953125 52 44.1875 
z
" id="DejaVuSans-109"/>
     </defs>
     <g transform="translate(98.001563 284.075781)scale(0.15 -0.15)">
      <use xlink:href="#DejaVuSans-68"/>
      <use x="77.001953" xlink:href="#DejaVuSans-117"/>
      <use x="140.380859" xlink:href="#DejaVuSans-114"/>
      <use x="181.494141" xlink:href="#DejaVuSans-97"/>
      <use x="242.773438" xlink:href="#DejaVuSans-116"/>
      <use x="281.982422" xlink:href="#DejaVuSans-105"/>
      <use x="309.765625" xlink:href="#DejaVuSans-111"/>
      <use x="370.947266" xlink:href="#DejaVuSans-110"/>
      <use x="434.326172" xlink:href="#DejaVuSans-32"/>
      <use x="466.113281" xlink:href="#DejaVuSans-111"/>
      <use x="527.294922" xlink:href="#DejaVuSans-102"/>
      <use x="562.5" xlink:href="#DejaVuSans-32"/>
      <use x="594.287109" xlink:href="#DejaVuSans-116"/>
      <use x="633.496094" xlink:href="#DejaVuSans-104"/>
      <use x="696.875" xlink:href="#DejaVuSans-101"/>
      <use x="758.398438" xlink:href="#DejaVuSans-32"/>
      <use x="790.185547" xlink:href="#DejaVuSans-111"/>
      <use x="851.367188" xlink:href="#DejaVuSans-100"/>
      <use x="914.84375" xlink:href="#DejaVuSans-100"/>
      <use x="978.320312" xlink:href="#DejaVuSans-32"/>
      <use x="1010.107422" xlink:href="#DejaVuSans-98"/>
      <use x="1073.583984" xlink:href="#DejaVuSans-97"/>
      <use x="1134.863281" xlink:href="#DejaVuSans-108"/>
      <use x="1162.646484" xlink:href="#DejaVuSans-108"/>
      <use x="1190.429688" xlink:href="#DejaVuSans-32"/>
      <use x="1222.216797" xlink:href="#DejaVuSans-115"/>
      <use x="1274.316406" xlink:href="#DejaVuSans-116"/>
      <use x="1313.525391" xlink:href="#DejaVuSans-105"/>
      <use x="1341.308594" xlink:href="#DejaVuSans-109"/>
      <use x="1438.720703" xlink:href="#DejaVuSans-117"/>
      <use x="1502.099609" xlink:href="#DejaVuSans-108"/>
      <use x="1529.882812" xlink:href="#DejaVuSans-117"/>
      <use x="1593.261719" xlink:href="#DejaVuSans-115"/>
     </g>
    </g>
   </g>
   <g id="matplotlib.axis_2">
    <g id="ytick_1">
     <g id="line2d_6">
      <defs>
       <path d="M 0 0 
L -3.5 0 
" id="ma2385b0222" style="stroke:#000000;stroke-width:0.8;"/>
      </defs>
      <g>
       <use style="stroke:#000000;stroke-width:0.8;" x="54" xlink:href="#ma2385b0222" y="252"/>
      </g>
     </g>
     <g id="text_7">
      <!-- 0.0 -->
      <defs>
       <path d="M 10.6875 12.40625 
L 21 12.40625 
L 21 0 
L 10.6875 0 
z
" id="DejaVuSans-46"/>
      </defs>
      <g transform="translate(31.096875 255.799219)scale(0.1 -0.1)">
       <use xlink:href="#DejaVuSans-48"/>
       <use x="63.623047" xlink:href="#DejaVuSans-46"/>
       <use x="95.410156" xlink:href="#DejaVuSans-48"/>
      </g>
     </g>
    </g>
    <g id="ytick_2">
     <g id="line2d_7">
      <g>
       <use style="stroke:#000000;stroke-width:0.8;" x="54" xlink:href="#ma2385b0222" y="208.512"/>
      </g>
     </g>
     <g id="text_8">
      <!-- 0.2 -->
      <g transform="translate(31.096875 212.311219)scale(0.1 -0.1)">
       <use xlink:href="#DejaVuSans-48"/>
       <use x="63.623047" xlink:href="#DejaVuSans-46"/>
       <use x="95.410156" xlink:href="#DejaVuSans-50"/>
      </g>
     </g>
    </g>
    <g id="ytick_3">
     <g id="line2d_8">
      <g>
       <use style="stroke:#000000;stroke-width:0.8;" x="54" xlink:href="#ma2385b0222" y="165.024"/>
      </g>
     </g>
     <g id="text_9">
      <!-- 0.4 -->
      <g transform="translate(31.096875 168.823219)scale(0.1 -0.1)">
       <use xlink:href="#DejaVuSans-48"/>
       <use x="63.623047" xlink:href="#DejaVuSans-46"/>
       <use x="95.410156" xlink:href="#DejaVuSans-52"/>
      </g>
     </g>
    </g>
    <g id="ytick_4">
     <g id="line2d_9">
      <g>
       <use style="stroke:#000000;stroke-width:0.8;" x="54" xlink:href="#ma2385b0222" y="121.536"/>
      </g>
     </g>
     <g id="text_10">
      <!-- 0.6 -->
      <g transform="translate(31.096875 125.335219)scale(0.1 -0.1)">
       <use xlink:href="#DejaVuSans-48"/>
       <use x="63.623047" xlink:href="#DejaVuSans-46"/>
       <use x="95.410156" xlink:href="#DejaVuSans-54"/>
      </g>
     </g>
    </g>
    <g id="ytick_5">
     <g id="line2d_10">
      <g>
       <use style="stroke:#000000;stroke-width:0.8;" x="54" xlink:href="#ma2385b0222" y="78.048"/>
      </g>
     </g>
     <g id="text_11">
      <!-- 0.8 -->
      <g transform="translate(31.096875 81.847219)scale(0.1 -0.1)">
       <use xlink:href="#DejaVuSans-48"/>
       <use x="63.623047" xlink:href="#DejaVuSans-46"/>
       <use x="95.410156" xlink:href="#DejaVuSans-56"/>
      </g>
     </g>
    </g>
    <g id="ytick_6">
     <g id="line2d_11">
      <g>
       <use style="stroke:#000000;stroke-width:0.8;" x="54" xlink:href="#ma2385b0222" y="34.56"/>
      </g>
     </g>
     <g id="text_12">
      <!-- 1.0 -->
      <g transform="translate(31.096875 38.359219)scale(0.1 -0.1)">
       <use xlink:href="#DejaVuSans-49"/>
       <use x="63.623047" xlink:href="#DejaVuSans-46"/>
       <use x="95.410156" xlink:href="#DejaVuSans-48"/>
      </g>
     </g>
    </g>
    <g id="text_13">
     <!-- Prob. odd ball lasted longer  -->
     <defs>
      <path d="M 19.671875 64.796875 
L 19.671875 37.40625 
L 32.078125 37.40625 
Q 38.96875 37.40625 42.71875 40.96875 
Q 46.484375 44.53125 46.484375 51.125 
Q 46.484375 57.671875 42.71875 61.234375 
Q 38.96875 64.796875 32.078125 64.796875 
z
M 9.8125 72.90625 
L 32.078125 72.90625 
Q 44.34375 72.90625 50.609375 67.359375 
Q 56.890625 61.8125 56.890625 51.125 
Q 56.890625 40.328125 50.609375 34.8125 
Q 44.34375 29.296875 32.078125 29.296875 
L 19.671875 29.296875 
L 19.671875 0 
L 9.8125 0 
z
" id="DejaVuSans-80"/>
      <path d="M 45.40625 27.984375 
Q 45.40625 37.75 41.375 43.109375 
Q 37.359375 48.484375 30.078125 48.484375 
Q 22.859375 48.484375 18.828125 43.109375 
Q 14.796875 37.75 14.796875 27.984375 
Q 14.796875 18.265625 18.828125 12.890625 
Q 22.859375 7.515625 30.078125 7.515625 
Q 37.359375 7.515625 41.375 12.890625 
Q 45.40625 18.265625 45.40625 27.984375 
z
M 54.390625 6.78125 
Q 54.390625 -7.171875 48.1875 -13.984375 
Q 42 -20.796875 29.203125 -20.796875 
Q 24.46875 -20.796875 20.265625 -20.09375 
Q 16.0625 -19.390625 12.109375 -17.921875 
L 12.109375 -9.1875 
Q 16.0625 -11.328125 19.921875 -12.34375 
Q 23.78125 -13.375 27.78125 -13.375 
Q 36.625 -13.375 41.015625 -8.765625 
Q 45.40625 -4.15625 45.40625 5.171875 
L 45.40625 9.625 
Q 42.625 4.78125 38.28125 2.390625 
Q 33.9375 0 27.875 0 
Q 17.828125 0 11.671875 7.65625 
Q 5.515625 15.328125 5.515625 27.984375 
Q 5.515625 40.671875 11.671875 48.328125 
Q 17.828125 56 27.875 56 
Q 33.9375 56 38.28125 53.609375 
Q 42.625 51.21875 45.40625 46.390625 
L 45.40625 54.6875 
L 54.390625 54.6875 
z
" id="DejaVuSans-103"/>
     </defs>
     <g transform="translate(7.180625 248.958516)rotate(-90)scale(0.15 -0.15)">
      <use xlink:href="#DejaVuSans-80"/>
      <use x="60.287109" xlink:href="#DejaVuSans-114"/>
      <use x="101.369141" xlink:href="#DejaVuSans-111"/>
      <use x="162.550781" xlink:href="#DejaVuSans-98"/>
      <use x="226.027344" xlink:href="#DejaVuSans-46"/>
      <use x="257.814453" xlink:href="#DejaVuSans-32"/>
      <use x="289.601562" xlink:href="#DejaVuSans-111"/>
      <use x="350.783203" xlink:href="#DejaVuSans-100"/>
      <use x="414.259766" xlink:href="#DejaVuSans-100"/>
      <use x="477.736328" xlink:href="#DejaVuSans-32"/>
      <use x="509.523438" xlink:href="#DejaVuSans-98"/>
      <use x="573" xlink:href="#DejaVuSans-97"/>
      <use x="634.279297" xlink:href="#DejaVuSans-108"/>
      <use x="662.0625" xlink:href="#DejaVuSans-108"/>
      <use x="689.845703" xlink:href="#DejaVuSans-32"/>
      <use x="721.632812" xlink:href="#DejaVuSans-108"/>
      <use x="749.416016" xlink:href="#DejaVuSans-97"/>
      <use x="810.695312" xlink:href="#DejaVuSans-115"/>
      <use x="862.794922" xlink:href="#DejaVuSans-116"/>
      <use x="902.003906" xlink:href="#DejaVuSans-101"/>
      <use x="963.527344" xlink:href="#DejaVuSans-100"/>
      <use x="1027.003906" xlink:href="#DejaVuSans-32"/>
      <use x="1058.791016" xlink:href="#DejaVuSans-108"/>
      <use x="1086.574219" xlink:href="#DejaVuSans-111"/>
      <use x="1147.755859" xlink:href="#DejaVuSans-110"/>
      <use x="1211.134766" xlink:href="#DejaVuSans-103"/>
      <use x="1274.611328" xlink:href="#DejaVuSans-101"/>
      <use x="1336.134766" xlink:href="#DejaVuSans-114"/>
      <use x="1377.248047" xlink:href="#DejaVuSans-32"/>
     </g>
     <!--  than the standard -->
     <g transform="translate(23.977344 213.178828)rotate(-90)scale(0.15 -0.15)">
      <use xlink:href="#DejaVuSans-32"/>
      <use x="31.787109" xlink:href="#DejaVuSans-116"/>
      <use x="70.996094" xlink:href="#DejaVuSans-104"/>
      <use x="134.375" xlink:href="#DejaVuSans-97"/>
      <use x="195.654297" xlink:href="#DejaVuSans-110"/>
      <use x="259.033203" xlink:href="#DejaVuSans-32"/>
      <use x="290.820312" xlink:href="#DejaVuSans-116"/>
      <use x="330.029297" xlink:href="#DejaVuSans-104"/>
      <use x="393.408203" xlink:href="#DejaVuSans-101"/>
      <use x="454.931641" xlink:href="#DejaVuSans-32"/>
      <use x="486.71875" xlink:href="#DejaVuSans-115"/>
      <use x="538.818359" xlink:href="#DejaVuSans-116"/>
      <use x="578.027344" xlink:href="#DejaVuSans-97"/>
      <use x="639.306641" xlink:href="#DejaVuSans-110"/>
      <use x="702.685547" xlink:href="#DejaVuSans-100"/>
      <use x="766.162109" xlink:href="#DejaVuSans-97"/>
      <use x="827.441406" xlink:href="#DejaVuSans-114"/>
      <use x="868.539062" xlink:href="#DejaVuSans-100"/>
     </g>
    </g>
   </g>
   <g id="line2d_12">
    <defs>
     <path d="M 0 5.892557 
C 1.562724 5.892557 3.061654 5.27168 4.166667 4.166667 
C 5.27168 3.061654 5.892557 1.562724 5.892557 0 
C 5.892557 -1.562724 5.27168 -3.061654 4.166667 -4.166667 
C 3.061654 -5.27168 1.562724 -5.892557 0 -5.892557 
C -1.562724 -5.892557 -3.061654 -5.27168 -4.166667 -4.166667 
C -5.27168 -3.061654 -5.892557 -1.562724 -5.892557 0 
C -5.892557 1.562724 -5.27168 3.061654 -4.166667 4.166667 
C -3.061654 5.27168 -1.562724 5.892557 0 5.892557 
z
" id="mf2b3296024" style="stroke:#696969;"/>
    </defs>
    <g>
     <use style="fill:#696969;stroke:#696969;" x="112.698701" xlink:href="#mf2b3296024" y="228.938182"/>
    </g>
   </g>
   <g id="line2d_13">
    <g>
     <use style="fill:#696969;stroke:#696969;" x="139.874026" xlink:href="#mf2b3296024" y="225.643636"/>
    </g>
   </g>
   <g id="line2d_14">
    <g>
     <use style="fill:#696969;stroke:#696969;" x="167.049351" xlink:href="#mf2b3296024" y="232.232727"/>
    </g>
   </g>
   <g id="line2d_15">
    <g>
     <use style="fill:#696969;stroke:#696969;" x="194.224675" xlink:href="#mf2b3296024" y="210.818182"/>
    </g>
   </g>
   <g id="line2d_16">
    <g>
     <use style="fill:#696969;stroke:#696969;" x="221.4" xlink:href="#mf2b3296024" y="167.989091"/>
    </g>
   </g>
   <g id="line2d_17">
    <g>
     <use style="fill:#696969;stroke:#696969;" x="248.575325" xlink:href="#mf2b3296024" y="149.869091"/>
    </g>
   </g>
   <g id="line2d_18">
    <g>
     <use style="fill:#696969;stroke:#696969;" x="275.750649" xlink:href="#mf2b3296024" y="116.923636"/>
    </g>
   </g>
   <g id="line2d_19">
    <g>
     <use style="fill:#696969;stroke:#696969;" x="302.925974" xlink:href="#mf2b3296024" y="95.509091"/>
    </g>
   </g>
   <g id="line2d_20">
    <g>
     <use style="fill:#696969;stroke:#696969;" x="330.101299" xlink:href="#mf2b3296024" y="79.036364"/>
    </g>
   </g>
   <g id="line2d_21">
    <path d="M 112.698701 232.359551 
L 121.40351 231.762683 
L 129.020218 231.02415 
L 135.766444 230.152673 
L 141.85981 229.149919 
L 147.517936 228.001601 
L 152.958442 226.669736 
L 157.963707 225.221717 
L 162.751351 223.615184 
L 167.538996 221.772189 
L 172.109021 219.775274 
L 176.679045 217.531112 
L 181.03145 215.152028 
L 185.383854 212.527607 
L 189.736258 209.650896 
L 194.088663 206.517624 
L 198.658687 202.950233 
L 203.228712 199.101098 
L 208.016357 194.773896 
L 213.021622 189.941548 
L 218.244507 184.58571 
L 223.902633 178.458693 
L 230.213619 171.285727 
L 237.612706 162.527639 
L 248.928958 148.735898 
L 261.986171 132.905208 
L 269.385258 124.292618 
L 275.478624 117.524982 
L 281.13675 111.567784 
L 286.359635 106.388167 
L 291.3649 101.738245 
L 296.152545 97.594392 
L 300.722569 93.925263 
L 305.292594 90.539939 
L 309.862618 87.438279 
L 314.432643 84.616363 
L 319.002668 82.066889 
L 323.572692 79.779641 
L 328.142717 77.741978 
L 330.101299 76.941545 
L 330.101299 76.941545 
" style="fill:none;stroke:#000000;stroke-linecap:square;stroke-width:2;"/>
   </g>
   <g id="line2d_22">
    <path d="M 69.218182 233.363827 
L 69.657379 233.361312 
L 70.096576 233.358729 
L 70.535773 233.356078 
L 70.97497 233.353357 
L 71.414168 233.350564 
L 71.853365 233.347696 
L 72.292562 233.344754 
L 72.731759 233.341733 
L 73.170956 233.338634 
L 73.610153 233.335454 
L 74.049351 233.33219 
L 74.488548 233.328842 
L 74.927745 233.325407 
L 75.366942 233.321883 
L 75.806139 233.318268 
L 76.245336 233.31456 
L 76.684534 233.310756 
L 77.123731 233.306856 
L 77.562928 233.302855 
L 78.002125 233.298753 
L 78.441322 233.294546 
L 78.880519 233.290232 
L 79.319717 233.28581 
L 79.758914 233.281276 
L 80.198111 233.276628 
L 80.637308 233.271863 
L 81.076505 233.266979 
L 81.515702 233.261974 
L 81.9549 233.256843 
L 82.394097 233.251586 
L 82.833294 233.246198 
L 83.272491 233.240677 
L 83.711688 233.23502 
L 84.150885 233.229225 
L 84.590083 233.223287 
L 85.02928 233.217204 
L 85.468477 233.210973 
L 85.907674 233.204591 
L 86.346871 233.198054 
L 86.786068 233.19136 
L 87.225266 233.184504 
L 87.664463 233.177483 
L 88.10366 233.170294 
L 88.542857 233.162933 
L 88.982054 233.155397 
L 89.421251 233.147682 
L 89.860449 233.139784 
L 90.299646 233.1317 
L 90.738843 233.123424 
L 91.17804 233.114955 
L 91.617237 233.106287 
L 92.056434 233.097417 
L 92.495632 233.08834 
L 92.934829 233.079052 
L 93.374026 233.069548 
L 93.813223 233.059826 
L 94.25242 233.049879 
L 94.691617 233.039704 
L 95.130815 233.029296 
L 95.570012 233.018651 
L 96.009209 233.007763 
L 96.448406 232.996628 
L 96.887603 232.985241 
L 97.3268 232.973596 
L 97.765998 232.96169 
L 98.205195 232.949517 
L 98.644392 232.937071 
L 99.083589 232.924348 
L 99.522786 232.911342 
L 99.961983 232.898048 
L 100.401181 232.884459 
L 100.840378 232.870572 
L 101.279575 232.856379 
L 101.718772 232.841875 
L 102.157969 232.827054 
L 102.597166 232.811911 
L 103.036364 232.796439 
L 103.475561 232.780632 
L 103.914758 232.764484 
L 104.353955 232.747989 
L 104.793152 232.73114 
L 105.232349 232.713931 
L 105.671547 232.696356 
L 106.110744 232.678406 
L 106.549941 232.660077 
L 106.989138 232.641361 
L 107.428335 232.622251 
L 107.867532 232.60274 
L 108.30673 232.58282 
L 108.745927 232.562486 
L 109.185124 232.541729 
L 109.624321 232.520542 
L 110.063518 232.498918 
L 110.502715 232.476848 
L 110.941913 232.454326 
L 111.38111 232.431343 
L 111.820307 232.407891 
L 112.259504 232.383963 
L 112.698701 232.359551 
" style="fill:none;stroke:#000000;stroke-dasharray:7.4,3.2;stroke-dashoffset:0;stroke-width:2;"/>
   </g>
   <g id="line2d_23">
    <path d="M 330.101299 76.941545 
L 330.540496 76.767858 
L 330.979693 76.596266 
L 331.41889 76.426755 
L 331.858087 76.259311 
L 332.297285 76.093919 
L 332.736482 75.930565 
L 333.175679 75.769234 
L 333.614876 75.609911 
L 334.054073 75.452583 
L 334.49327 75.297232 
L 334.932468 75.143846 
L 335.371665 74.992408 
L 335.810862 74.842904 
L 336.250059 74.695318 
L 336.689256 74.549636 
L 337.128453 74.405842 
L 337.567651 74.26392 
L 338.006848 74.123856 
L 338.446045 73.985634 
L 338.885242 73.849239 
L 339.324439 73.714656 
L 339.763636 73.581868 
L 340.202834 73.45086 
L 340.642031 73.321618 
L 341.081228 73.194124 
L 341.520425 73.068365 
L 341.959622 72.944324 
L 342.398819 72.821985 
L 342.838017 72.701334 
L 343.277214 72.582354 
L 343.716411 72.465031 
L 344.155608 72.349348 
L 344.594805 72.23529 
L 345.034002 72.122841 
L 345.4732 72.011986 
L 345.912397 71.90271 
L 346.351594 71.794996 
L 346.790791 71.68883 
L 347.229988 71.584195 
L 347.669185 71.481077 
L 348.108383 71.379461 
L 348.54758 71.27933 
L 348.986777 71.180669 
L 349.425974 71.083464 
L 349.865171 70.987698 
L 350.304368 70.893357 
L 350.743566 70.800426 
L 351.182763 70.708888 
L 351.62196 70.61873 
L 352.061157 70.529937 
L 352.500354 70.442492 
L 352.939551 70.356382 
L 353.378749 70.271591 
L 353.817946 70.188105 
L 354.257143 70.105909 
L 354.69634 70.024988 
L 355.135537 69.945328 
L 355.574734 69.866913 
L 356.013932 69.789731 
L 356.453129 69.713765 
L 356.892326 69.639002 
L 357.331523 69.565427 
L 357.77072 69.493027 
L 358.209917 69.421787 
L 358.649115 69.351693 
L 359.088312 69.282731 
L 359.527509 69.214887 
L 359.966706 69.148148 
L 360.405903 69.082499 
L 360.8451 69.017928 
L 361.284298 68.95442 
L 361.723495 68.891962 
L 362.162692 68.830541 
L 362.601889 68.770143 
L 363.041086 68.710755 
L 363.480283 68.652364 
L 363.919481 68.594957 
L 364.358678 68.538521 
L 364.797875 68.483044 
L 365.237072 68.428512 
L 365.676269 68.374913 
L 366.115466 68.322234 
L 366.554664 68.270463 
L 366.993861 68.219588 
L 367.433058 68.169596 
L 367.872255 68.120475 
L 368.311452 68.072213 
L 368.750649 68.024798 
L 369.189847 67.978219 
L 369.629044 67.932462 
L 370.068241 67.887518 
L 370.507438 67.843374 
L 370.946635 67.800019 
L 371.385832 67.757442 
L 371.82503 67.715631 
L 372.264227 67.674575 
L 372.703424 67.634263 
L 373.142621 67.594684 
L 373.581818 67.555828 
" style="fill:none;stroke:#000000;stroke-dasharray:7.4,3.2;stroke-dashoffset:0;stroke-width:2;"/>
   </g>
   <g id="line2d_24">
    <path clip-path="url(#p611c3061a7)" d="M 248.226657 252 
L 248.226657 149.596871 
" style="fill:none;stroke:#000000;stroke-linecap:square;stroke-width:1.5;"/>
   </g>
   <g id="line2d_25">
    <path d="M 69.218182 65.742901 
L 373.581818 65.742901 
" style="fill:none;stroke:#000000;stroke-dasharray:1.5,2.475;stroke-dashoffset:0;stroke-width:1.5;"/>
   </g>
   <g id="line2d_26">
    <path d="M 69.218182 233.45084 
L 373.581818 233.45084 
" style="fill:none;stroke:#000000;stroke-dasharray:1.5,2.475;stroke-dashoffset:0;stroke-width:1.5;"/>
   </g>
   <g id="line2d_27">
    <path clip-path="url(#p611c3061a7)" d="M 94.581818 143.28 
L 330.101299 143.28 
L 330.101299 143.28 
" style="fill:none;stroke:#000000;stroke-linecap:square;stroke-width:1.5;"/>
   </g>
   <g id="patch_3">
    <path d="M 54 252 
L 54 34.56 
" style="fill:none;stroke:#000000;stroke-linecap:square;stroke-linejoin:miter;stroke-width:0.8;"/>
   </g>
   <g id="patch_4">
    <path d="M 54 252 
L 388.8 252 
" style="fill:none;stroke:#000000;stroke-linecap:square;stroke-linejoin:miter;stroke-width:0.8;"/>
   </g>
  </g>
 </g>
 <defs>
  <clipPath id="p611c3061a7">
   <rect height="217.44" width="334.8" x="54" y="34.56"/>
  </clipPath>
 </defs>
</svg>
