<svg class="main-svg" xmlns="http://www.w3.org/2000/svg" xmlns:xlink="http://www.w3.org/1999/xlink" width="550" height="500" viewBox="0 0 550 500"><rect x="0" y="0" width="550" height="500" style="fill: rgb(0, 0, 0); fill-opacity: 0;"/><defs id="defs-c6c0b7"><g class="clips"><clipPath id="clipc6c0b7xyplot" class="plotclip"><rect width="325" height="320"/></clipPath><clipPath class="axesclip" id="clipc6c0b7x"><rect x="80" y="0" width="325" height="500"/></clipPath><clipPath class="axesclip" id="clipc6c0b7y"><rect x="0" y="100" width="550" height="320"/></clipPath><clipPath class="axesclip" id="clipc6c0b7xy"><rect x="80" y="100" width="325" height="320"/></clipPath></g><g class="gradients"/></defs><g class="bglayer"><rect class="bg" x="80" y="100" width="325" height="320" style="fill: rgb(0, 0, 0); fill-opacity: 0; stroke-width: 0;"/></g><g class="layer-below"><g class="imagelayer"/><g class="shapelayer"/></g><g class="cartesianlayer"><g class="subplot xy"><g class="layer-subplot"><g class="shapelayer"/><g class="imagelayer"/></g><g class="gridlayer"><g class="x"><path class="xgrid crisp" transform="translate(145,0)" d="M0,100v320" style="stroke: rgb(223, 223, 223); stroke-opacity: 1; stroke-width: 1.5px;"/><path class="xgrid crisp" transform="translate(210,0)" d="M0,100v320" style="stroke: rgb(223, 223, 223); stroke-opacity: 1; stroke-width: 1.5px;"/><path class="xgrid crisp" transform="translate(275,0)" d="M0,100v320" style="stroke: rgb(223, 223, 223); stroke-opacity: 1; stroke-width: 1.5px;"/><path class="xgrid crisp" transform="translate(340,0)" d="M0,100v320" style="stroke: rgb(223, 223, 223); stroke-opacity: 1; stroke-width: 1.5px;"/></g><g class="y"><path class="ygrid crisp" transform="translate(0,356)" d="M80,0h325" style="stroke: rgb(223, 223, 223); stroke-opacity: 1; stroke-width: 1.5px;"/><path class="ygrid crisp" transform="translate(0,292)" d="M80,0h325" style="stroke: rgb(223, 223, 223); stroke-opacity: 1; stroke-width: 1.5px;"/><path class="ygrid crisp" transform="translate(0,228)" d="M80,0h325" style="stroke: rgb(223, 223, 223); stroke-opacity: 1; stroke-width: 1.5px;"/><path class="ygrid crisp" transform="translate(0,164)" d="M80,0h325" style="stroke: rgb(223, 223, 223); stroke-opacity: 1; stroke-width: 1.5px;"/></g></g><g class="zerolinelayer"/><path class="xlines-below"/><path class="ylines-below"/><g class="overlines-below"/><g class="xaxislayer-below"/><g class="yaxislayer-below"/><g class="overaxes-below"/><g class="plot" transform="translate(80, 100)" clip-path="url('#clipc6c0b7xyplot')"><g class="scatterlayer mlayer"><g class="trace scatter trace167df4" style="stroke-miterlimit: 2; opacity: 0.5;"><g class="fills"/><g class="errorbars"/><g class="lines"/><g class="points"><path class="point" transform="translate(48.75,295.88)" d="M6,0A6,6 0 1,1 0,-6A6,6 0 0,1 6,0Z" style="opacity: 1; stroke-width: 0px; fill: rgb(128, 128, 128); fill-opacity: 1;"/><path class="point" transform="translate(73.13,280.24)" d="M6,0A6,6 0 1,1 0,-6A6,6 0 0,1 6,0Z" style="opacity: 1; stroke-width: 0px; fill: rgb(128, 128, 128); fill-opacity: 1;"/><path class="point" transform="translate(97.5,258.77)" d="M6,0A6,6 0 1,1 0,-6A6,6 0 0,1 6,0Z" style="opacity: 1; stroke-width: 0px; fill: rgb(128, 128, 128); fill-opacity: 1;"/><path class="point" transform="translate(121.88,252.55)" d="M6,0A6,6 0 1,1 0,-6A6,6 0 0,1 6,0Z" style="opacity: 1; stroke-width: 0px; fill: rgb(128, 128, 128); fill-opacity: 1;"/><path class="point" transform="translate(146.25,234.2)" d="M6,0A6,6 0 1,1 0,-6A6,6 0 0,1 6,0Z" style="opacity: 1; stroke-width: 0px; fill: rgb(128, 128, 128); fill-opacity: 1;"/><path class="point" transform="translate(170.63,229.12)" d="M6,0A6,6 0 1,1 0,-6A6,6 0 0,1 6,0Z" style="opacity: 1; stroke-width: 0px; fill: rgb(128, 128, 128); fill-opacity: 1;"/><path class="point" transform="translate(211.25,206.93)" d="M6,0A6,6 0 1,1 0,-6A6,6 0 0,1 6,0Z" style="opacity: 1; stroke-width: 0px; fill: rgb(128, 128, 128); fill-opacity: 1;"/><path class="point" transform="translate(251.88,172.94)" d="M6,0A6,6 0 1,1 0,-6A6,6 0 0,1 6,0Z" style="opacity: 1; stroke-width: 0px; fill: rgb(128, 128, 128); fill-opacity: 1;"/><path class="point" transform="translate(276.25,168.89)" d="M6,0A6,6 0 1,1 0,-6A6,6 0 0,1 6,0Z" style="opacity: 1; stroke-width: 0px; fill: rgb(128, 128, 128); fill-opacity: 1;"/><path class="point" transform="translate(300.62,150.86)" d="M6,0A6,6 0 1,1 0,-6A6,6 0 0,1 6,0Z" style="opacity: 1; stroke-width: 0px; fill: rgb(128, 128, 128); fill-opacity: 1;"/></g><g class="text"/></g><g class="trace scatter tracecef4ec" style="stroke-miterlimit: 2; opacity: 0.5;"><g class="fills"/><g class="errorbars"/><g class="lines"><path class="js-line" d="M48.75,292.76L300.62,151.86" style="vector-effect: non-scaling-stroke; fill: none; stroke: rgb(128, 128, 128); stroke-opacity: 1; stroke-width: 2px; opacity: 1;"/></g><g class="points"/><g class="text"/></g><g class="trace scatter trace681c56" style="stroke-miterlimit: 2; opacity: 0.5;"><g class="fills"/><g class="errorbars"/><g class="lines"/><g class="points"><path class="point" transform="translate(48.75,293.11)" d="M6,0A6,6 0 1,1 0,-6A6,6 0 0,1 6,0Z" style="opacity: 1; stroke-width: 0px; fill: rgb(255, 69, 0); fill-opacity: 1;"/><path class="point" transform="translate(73.13,277.47)" d="M6,0A6,6 0 1,1 0,-6A6,6 0 0,1 6,0Z" style="opacity: 1; stroke-width: 0px; fill: rgb(255, 69, 0); fill-opacity: 1;"/><path class="point" transform="translate(97.5,262.89)" d="M6,0A6,6 0 1,1 0,-6A6,6 0 0,1 6,0Z" style="opacity: 1; stroke-width: 0px; fill: rgb(255, 69, 0); fill-opacity: 1;"/><path class="point" transform="translate(121.88,259.76)" d="M6,0A6,6 0 1,1 0,-6A6,6 0 0,1 6,0Z" style="opacity: 1; stroke-width: 0px; fill: rgb(255, 69, 0); fill-opacity: 1;"/><path class="point" transform="translate(146.25,226.91)" d="M6,0A6,6 0 1,1 0,-6A6,6 0 0,1 6,0Z" style="opacity: 1; stroke-width: 0px; fill: rgb(255, 69, 0); fill-opacity: 1;"/><path class="point" transform="translate(170.63,209.06)" d="M6,0A6,6 0 1,1 0,-6A6,6 0 0,1 6,0Z" style="opacity: 1; stroke-width: 0px; fill: rgb(255, 69, 0); fill-opacity: 1;"/><path class="point" transform="translate(211.25,210.81)" d="M6,0A6,6 0 1,1 0,-6A6,6 0 0,1 6,0Z" style="opacity: 1; stroke-width: 0px; fill: rgb(255, 69, 0); fill-opacity: 1;"/><path class="point" transform="translate(251.88,187.02)" d="M6,0A6,6 0 1,1 0,-6A6,6 0 0,1 6,0Z" style="opacity: 1; stroke-width: 0px; fill: rgb(255, 69, 0); fill-opacity: 1;"/><path class="point" transform="translate(276.25,172.87)" d="M6,0A6,6 0 1,1 0,-6A6,6 0 0,1 6,0Z" style="opacity: 1; stroke-width: 0px; fill: rgb(255, 69, 0); fill-opacity: 1;"/><path class="point" transform="translate(300.62,138.52)" d="M6,0A6,6 0 1,1 0,-6A6,6 0 0,1 6,0Z" style="opacity: 1; stroke-width: 0px; fill: rgb(255, 69, 0); fill-opacity: 1;"/></g><g class="text"/></g><g class="trace scatter traced80d5b" style="stroke-miterlimit: 2; opacity: 0.5;"><g class="fills"/><g class="errorbars"/><g class="lines"><path class="js-line" d="M48.75,291.15L300.62,151.12" style="vector-effect: non-scaling-stroke; fill: none; stroke: rgb(255, 69, 0); stroke-opacity: 1; stroke-width: 2px; opacity: 1;"/></g><g class="points"/><g class="text"/></g><g class="trace scatter trace2aa386" style="stroke-miterlimit: 2; opacity: 0.5;"><g class="fills"/><g class="errorbars"/><g class="lines"/><g class="points"><path class="point" transform="translate(48.75,298.13)" d="M6,0A6,6 0 1,1 0,-6A6,6 0 0,1 6,0Z" style="opacity: 1; stroke-width: 0px; fill: rgb(107, 142, 35); fill-opacity: 1;"/><path class="point" transform="translate(73.13,274.52)" d="M6,0A6,6 0 1,1 0,-6A6,6 0 0,1 6,0Z" style="opacity: 1; stroke-width: 0px; fill: rgb(107, 142, 35); fill-opacity: 1;"/><path class="point" transform="translate(97.5,260.02)" d="M6,0A6,6 0 1,1 0,-6A6,6 0 0,1 6,0Z" style="opacity: 1; stroke-width: 0px; fill: rgb(107, 142, 35); fill-opacity: 1;"/><path class="point" transform="translate(121.88,248.43)" d="M6,0A6,6 0 1,1 0,-6A6,6 0 0,1 6,0Z" style="opacity: 1; stroke-width: 0px; fill: rgb(107, 142, 35); fill-opacity: 1;"/><path class="point" transform="translate(146.25,237.83)" d="M6,0A6,6 0 1,1 0,-6A6,6 0 0,1 6,0Z" style="opacity: 1; stroke-width: 0px; fill: rgb(107, 142, 35); fill-opacity: 1;"/><path class="point" transform="translate(170.63,206.26)" d="M6,0A6,6 0 1,1 0,-6A6,6 0 0,1 6,0Z" style="opacity: 1; stroke-width: 0px; fill: rgb(107, 142, 35); fill-opacity: 1;"/><path class="point" transform="translate(211.25,195.65)" d="M6,0A6,6 0 1,1 0,-6A6,6 0 0,1 6,0Z" style="opacity: 1; stroke-width: 0px; fill: rgb(107, 142, 35); fill-opacity: 1;"/><path class="point" transform="translate(251.88,169.35)" d="M6,0A6,6 0 1,1 0,-6A6,6 0 0,1 6,0Z" style="opacity: 1; stroke-width: 0px; fill: rgb(107, 142, 35); fill-opacity: 1;"/><path class="point" transform="translate(276.25,157.97)" d="M6,0A6,6 0 1,1 0,-6A6,6 0 0,1 6,0Z" style="opacity: 1; stroke-width: 0px; fill: rgb(107, 142, 35); fill-opacity: 1;"/><path class="point" transform="translate(300.62,143.04)" d="M6,0A6,6 0 1,1 0,-6A6,6 0 0,1 6,0Z" style="opacity: 1; stroke-width: 0px; fill: rgb(107, 142, 35); fill-opacity: 1;"/></g><g class="text"/></g><g class="trace scatter tracefb3a0f" style="stroke-miterlimit: 2; opacity: 0.5;"><g class="fills"/><g class="errorbars"/><g class="lines"><path class="js-line" d="M48.75,291.52L300.62,140.89" style="vector-effect: non-scaling-stroke; fill: none; stroke: rgb(107, 142, 35); stroke-opacity: 1; stroke-width: 2px; opacity: 1;"/></g><g class="points"/><g class="text"/></g><g class="trace scatter trace8355bb" style="stroke-miterlimit: 2; opacity: 0.5;"><g class="fills"/><g class="errorbars"/><g class="lines"><path class="js-line" d="M0,320L128.18,193.79L128.5,193.47L257.66,66.31L257.98,65.99L325,0" style="vector-effect: non-scaling-stroke; fill: none; stroke: rgb(128, 128, 128); stroke-opacity: 1; stroke-width: 5.5px; opacity: 1; stroke-dasharray: 16.5px, 5.5px, 5.5px, 5.5px;"/></g><g class="points"/><g class="text"/></g></g></g><g class="overplot"/><path class="xlines-above crisp" d="M77.5,421.25H407.5M77.5,98.75H407.5" style="fill: none; stroke-width: 2.5px; stroke: rgb(175, 175, 175); stroke-opacity: 1;"/><path class="ylines-above crisp" d="M78.75,100V420M406.25,100V420" style="fill: none; stroke-width: 2.5px; stroke: rgb(175, 175, 175); stroke-opacity: 1;"/><g class="overlines-above"/><g class="xaxislayer-above"><g class="xtick"><text text-anchor="middle" x="0" y="436.9" transform="translate(80,0)" style="font-family: 'Open Sans', verdana, arial, sans-serif; font-size: 12px; fill: rgb(0, 0, 0); fill-opacity: 1; white-space: pre;">0.6</text></g><g class="xtick"><text text-anchor="middle" x="0" y="436.9" transform="translate(145,0)" style="font-family: 'Open Sans', verdana, arial, sans-serif; font-size: 12px; fill: rgb(0, 0, 0); fill-opacity: 1; white-space: pre;">0.8</text></g><g class="xtick"><text text-anchor="middle" x="0" y="436.9" transform="translate(210,0)" style="font-family: 'Open Sans', verdana, arial, sans-serif; font-size: 12px; fill: rgb(0, 0, 0); fill-opacity: 1; white-space: pre;">1</text></g><g class="xtick"><text text-anchor="middle" x="0" y="436.9" transform="translate(275,0)" style="font-family: 'Open Sans', verdana, arial, sans-serif; font-size: 12px; fill: rgb(0, 0, 0); fill-opacity: 1; white-space: pre;">1.2</text></g><g class="xtick"><text text-anchor="middle" x="0" y="436.9" transform="translate(340,0)" style="font-family: 'Open Sans', verdana, arial, sans-serif; font-size: 12px; fill: rgb(0, 0, 0); fill-opacity: 1; white-space: pre;">1.4</text></g><g class="xtick"><text text-anchor="middle" x="0" y="436.9" transform="translate(405,0)" style="font-family: 'Open Sans', verdana, arial, sans-serif; font-size: 12px; fill: rgb(0, 0, 0); fill-opacity: 1; white-space: pre;">1.6</text></g></g><g class="yaxislayer-above"><g class="ytick"><text text-anchor="end" x="75.1" y="4.199999999999999" transform="translate(0,420)" style="font-family: 'Open Sans', verdana, arial, sans-serif; font-size: 12px; fill: rgb(0, 0, 0); fill-opacity: 1; white-space: pre;">0.6</text></g><g class="ytick"><text text-anchor="end" x="75.1" y="4.199999999999999" transform="translate(0,356)" style="font-family: 'Open Sans', verdana, arial, sans-serif; font-size: 12px; fill: rgb(0, 0, 0); fill-opacity: 1; white-space: pre;">0.8</text></g><g class="ytick"><text text-anchor="end" x="75.1" y="4.199999999999999" transform="translate(0,292)" style="font-family: 'Open Sans', verdana, arial, sans-serif; font-size: 12px; fill: rgb(0, 0, 0); fill-opacity: 1; white-space: pre;">1</text></g><g class="ytick"><text text-anchor="end" x="75.1" y="4.199999999999999" transform="translate(0,228)" style="font-family: 'Open Sans', verdana, arial, sans-serif; font-size: 12px; fill: rgb(0, 0, 0); fill-opacity: 1; white-space: pre;">1.2</text></g><g class="ytick"><text text-anchor="end" x="75.1" y="4.199999999999999" transform="translate(0,164)" style="font-family: 'Open Sans', verdana, arial, sans-serif; font-size: 12px; fill: rgb(0, 0, 0); fill-opacity: 1; white-space: pre;">1.4</text></g><g class="ytick"><text text-anchor="end" x="75.1" y="4.199999999999999" transform="translate(0,100)" style="font-family: 'Open Sans', verdana, arial, sans-serif; font-size: 12px; fill: rgb(0, 0, 0); fill-opacity: 1; white-space: pre;">1.6</text></g></g><g class="overaxes-above"/></g></g><g class="polarlayer"/><g class="ternarylayer"/><g class="geolayer"/><g class="funnelarealayer"/><g class="pielayer"/><g class="sunburstlayer"/><g class="glimages"/><defs id="topdefs-c6c0b7"><g class="clips"/><clipPath id="legendc6c0b7"><rect width="127" height="67" x="0" y="0"/></clipPath></defs><g class="layer-above"><g class="imagelayer"/><g class="shapelayer"/></g><g class="infolayer"><g class="legend" pointer-events="all" transform="translate(411.5, 100)"><rect class="bg" shape-rendering="crispEdges" width="127" height="67" x="0" y="0" style="stroke: rgb(68, 68, 68); stroke-opacity: 1; fill: rgb(0, 0, 0); fill-opacity: 0; stroke-width: 0px;"/><g class="scrollbox" transform="translate(0, 0)" clip-path="url('#legendc6c0b7')"><g class="groups"><g class="traces" transform="translate(0, 14.5)" style="opacity: 1;"><text class="legendtext user-select-none" text-anchor="start" x="40" y="4.680000000000001" style="font-family: 'Open Sans', verdana, arial, sans-serif; font-size: 12px; fill: rgb(0, 0, 0); fill-opacity: 1; white-space: pre;">Standard</text><g class="layers" style="opacity: 0.5;"><g class="legendfill"/><g class="legendlines"/><g class="legendsymbols"><g class="legendpoints"><path class="scatterpts" transform="translate(20,0)" d="M6,0A6,6 0 1,1 0,-6A6,6 0 0,1 6,0Z" style="opacity: 1; stroke-width: 0px; fill: rgb(128, 128, 128); fill-opacity: 1;"/></g></g></g><rect class="legendtoggle" pointer-events="all" x="0" y="-9.5" width="167" height="19" style="cursor: pointer; fill: rgb(0, 0, 0); fill-opacity: 0;"/></g><g class="traces" transform="translate(0, 33.5)" style="opacity: 1;"><text class="legendtext user-select-none" text-anchor="start" x="40" y="4.680000000000001" style="font-family: 'Open Sans', verdana, arial, sans-serif; font-size: 12px; fill: rgb(0, 0, 0); fill-opacity: 1; white-space: pre;">Colored Disk</text><g class="layers" style="opacity: 0.5;"><g class="legendfill"/><g class="legendlines"/><g class="legendsymbols"><g class="legendpoints"><path class="scatterpts" transform="translate(20,0)" d="M6,0A6,6 0 1,1 0,-6A6,6 0 0,1 6,0Z" style="opacity: 1; stroke-width: 0px; fill: rgb(255, 69, 0); fill-opacity: 1;"/></g></g></g><rect class="legendtoggle" pointer-events="all" x="0" y="-9.5" width="167" height="19" style="cursor: pointer; fill: rgb(0, 0, 0); fill-opacity: 0;"/></g><g class="traces" transform="translate(0, 52.5)" style="opacity: 1;"><text class="legendtext user-select-none" text-anchor="start" x="40" y="4.680000000000001" style="font-family: 'Open Sans', verdana, arial, sans-serif; font-size: 12px; fill: rgb(0, 0, 0); fill-opacity: 1; white-space: pre;">Looming Disk</text><g class="layers" style="opacity: 0.5;"><g class="legendfill"/><g class="legendlines"/><g class="legendsymbols"><g class="legendpoints"><path class="scatterpts" transform="translate(20,0)" d="M6,0A6,6 0 1,1 0,-6A6,6 0 0,1 6,0Z" style="opacity: 1; stroke-width: 0px; fill: rgb(107, 142, 35); fill-opacity: 1;"/></g></g></g><rect class="legendtoggle" pointer-events="all" x="0" y="-9.5" width="167" height="19" style="cursor: pointer; fill: rgb(0, 0, 0); fill-opacity: 0;"/></g></g></g><rect class="scrollbar" rx="20" ry="3" width="0" height="0" x="0" y="0" style="fill: rgb(128, 139, 164); fill-opacity: 1;"/></g><g class="g-gtitle"><text class="gtitle" x="27.5" y="50" text-anchor="start" dy="0em" style="font-family: 'Open Sans', verdana, arial, sans-serif; font-size: 17px; fill: rgb(0, 0, 0); opacity: 1; font-weight: normal; white-space: pre;">Duration reproduction task - 12 participants</text></g><g class="g-xtitle"><text class="xtitle" x="242.5" y="473.5" text-anchor="middle" style="font-family: 'Open Sans', verdana, arial, sans-serif; font-size: 14px; fill: rgb(0, 0, 0); opacity: 1; font-weight: normal; white-space: pre;">Actual duration of the stimulus</text></g><g class="g-ytitle"><text class="ytitle" transform="rotate(-90,40.5,260)" x="40.5" y="260" text-anchor="middle" style="font-family: 'Open Sans', verdana, arial, sans-serif; font-size: 14px; fill: rgb(0, 0, 0); opacity: 1; font-weight: normal; white-space: pre;">Avg reproduced duration</text></g></g></svg>