<svg class="main-svg" xmlns="http://www.w3.org/2000/svg" xmlns:xlink="http://www.w3.org/1999/xlink" width="750" height="600" viewBox="0 0 750 600"><rect x="0" y="0" width="750" height="600" style="fill: rgb(255, 255, 255); fill-opacity: 1;"/><defs id="defs-03c1c6"><g class="clips"><clipPath id="clip03c1c6xyplot" class="plotclip"><rect width="557" height="420"/></clipPath><clipPath class="axesclip" id="clip03c1c6x"><rect x="80" y="0" width="557" height="600"/></clipPath><clipPath class="axesclip" id="clip03c1c6y"><rect x="0" y="100" width="750" height="420"/></clipPath><clipPath class="axesclip" id="clip03c1c6xy"><rect x="80" y="100" width="557" height="420"/></clipPath></g><g class="gradients"/></defs><g class="bglayer"><rect class="bg" x="80" y="100" width="557" height="420" style="fill: rgb(255, 255, 255); fill-opacity: 1; stroke-width: 0;"/></g><g class="layer-below"><g class="imagelayer"/><g class="shapelayer"/></g><g class="cartesianlayer"><g class="subplot xy"><g class="layer-subplot"><g class="shapelayer"/><g class="imagelayer"/></g><g class="gridlayer"><g class="x"><path class="xgrid crisp" transform="translate(126.42,0)" d="M0,100v420" style="stroke: rgb(223, 223, 223); stroke-opacity: 1; stroke-width: 0.5px;"/><path class="xgrid crisp" transform="translate(259.03999999999996,0)" d="M0,100v420" style="stroke: rgb(223, 223, 223); stroke-opacity: 1; stroke-width: 0.5px;"/><path class="xgrid crisp" transform="translate(391.65,0)" d="M0,100v420" style="stroke: rgb(223, 223, 223); stroke-opacity: 1; stroke-width: 0.5px;"/><path class="xgrid crisp" transform="translate(524.27,0)" d="M0,100v420" style="stroke: rgb(223, 223, 223); stroke-opacity: 1; stroke-width: 0.5px;"/></g><g class="y"><path class="ygrid crisp" transform="translate(0,423.4)" d="M80,0h557" style="stroke: rgb(223, 223, 223); stroke-opacity: 1; stroke-width: 0.5px;"/><path class="ygrid crisp" transform="translate(0,347.8)" d="M80,0h557" style="stroke: rgb(223, 223, 223); stroke-opacity: 1; stroke-width: 0.5px;"/><path class="ygrid crisp" transform="translate(0,272.2)" d="M80,0h557" style="stroke: rgb(223, 223, 223); stroke-opacity: 1; stroke-width: 0.5px;"/><path class="ygrid crisp" transform="translate(0,196.6)" d="M80,0h557" style="stroke: rgb(223, 223, 223); stroke-opacity: 1; stroke-width: 0.5px;"/><path class="ygrid crisp" transform="translate(0,121)" d="M80,0h557" style="stroke: rgb(223, 223, 223); stroke-opacity: 1; stroke-width: 0.5px;"/></g></g><g class="zerolinelayer"><path class="yzl zl crisp" transform="translate(0,499)" d="M80,0h557" style="stroke: rgb(175, 175, 175); stroke-opacity: 1; stroke-width: 2.5px;"/></g><path class="xlines-below"/><path class="ylines-below"/><g class="overlines-below"/><g class="xaxislayer-below"/><g class="yaxislayer-below"/><g class="overaxes-below"/><g class="plot" transform="translate(80, 100)" clip-path="url('#clip03c1c6xyplot')"><g class="scatterlayer mlayer"><g class="trace scatter tracef9d9c2" style="stroke-miterlimit: 2; opacity: 0.75;"><g class="fills"/><g class="errorbars"/><g class="lines"/><g class="points"><path class="point" transform="translate(79.57,336)" d="M6,0A6,6 0 1,1 0,-6A6,6 0 0,1 6,0Z" style="opacity: 1; stroke-width: 2px; fill: rgb(128, 128, 128); fill-opacity: 1; stroke: rgb(0, 0, 0); stroke-opacity: 1;"/><path class="point" transform="translate(129.3,304.5)" d="M6,0A6,6 0 1,1 0,-6A6,6 0 0,1 6,0Z" style="opacity: 1; stroke-width: 2px; fill: rgb(128, 128, 128); fill-opacity: 1; stroke: rgb(0, 0, 0); stroke-opacity: 1;"/><path class="point" transform="translate(179.04,322)" d="M6,0A6,6 0 1,1 0,-6A6,6 0 0,1 6,0Z" style="opacity: 1; stroke-width: 2px; fill: rgb(128, 128, 128); fill-opacity: 1; stroke: rgb(0, 0, 0); stroke-opacity: 1;"/><path class="point" transform="translate(228.77,304.5)" d="M6,0A6,6 0 1,1 0,-6A6,6 0 0,1 6,0Z" style="opacity: 1; stroke-width: 2px; fill: rgb(128, 128, 128); fill-opacity: 1; stroke: rgb(0, 0, 0); stroke-opacity: 1;"/><path class="point" transform="translate(278.5,280)" d="M6,0A6,6 0 1,1 0,-6A6,6 0 0,1 6,0Z" style="opacity: 1; stroke-width: 2px; fill: rgb(128, 128, 128); fill-opacity: 1; stroke: rgb(0, 0, 0); stroke-opacity: 1;"/><path class="point" transform="translate(328.23,241.5)" d="M6,0A6,6 0 1,1 0,-6A6,6 0 0,1 6,0Z" style="opacity: 1; stroke-width: 2px; fill: rgb(128, 128, 128); fill-opacity: 1; stroke: rgb(0, 0, 0); stroke-opacity: 1;"/><path class="point" transform="translate(377.96,210)" d="M6,0A6,6 0 1,1 0,-6A6,6 0 0,1 6,0Z" style="opacity: 1; stroke-width: 2px; fill: rgb(128, 128, 128); fill-opacity: 1; stroke: rgb(0, 0, 0); stroke-opacity: 1;"/><path class="point" transform="translate(427.7,108.5)" d="M6,0A6,6 0 1,1 0,-6A6,6 0 0,1 6,0Z" style="opacity: 1; stroke-width: 2px; fill: rgb(128, 128, 128); fill-opacity: 1; stroke: rgb(0, 0, 0); stroke-opacity: 1;"/><path class="point" transform="translate(477.43,136.5)" d="M6,0A6,6 0 1,1 0,-6A6,6 0 0,1 6,0Z" style="opacity: 1; stroke-width: 2px; fill: rgb(128, 128, 128); fill-opacity: 1; stroke: rgb(0, 0, 0); stroke-opacity: 1;"/></g><g class="text"/></g><g class="trace scatter trace513ac4" style="stroke-miterlimit: 2; opacity: 0.5;"><g class="fills"/><g class="errorbars"/><g class="lines"><path class="js-line" d="M79.57,331.22L137.32,325.06L137.72,325L176.75,317.1L177.14,317L211,306.64L211.39,306.49L241.26,294.06L241.66,293.87L275.11,275.93L275.51,275.69L309.36,253.22L309.76,252.93L349.59,221.74L349.99,221.41L401.76,176.28L402.16,175.93L463.49,123.25L463.89,122.93L477.43,112.32" style="vector-effect: non-scaling-stroke; fill: none; stroke: rgb(128, 128, 128); stroke-opacity: 1; stroke-width: 7.5px; opacity: 1; stroke-dasharray: 22.5px, 7.5px, 7.5px, 7.5px;"/></g><g class="points"/><g class="text"/></g><g class="trace scatter trace9ff707" style="stroke-miterlimit: 2; opacity: 0.75;"><g class="fills"/><g class="errorbars"/><g class="lines"><path class="js-line" d="M0,334.1L51.44,332.72L52.24,332.69L79.57,331.22" style="vector-effect: non-scaling-stroke; fill: none; stroke: rgb(128, 128, 128); stroke-opacity: 1; stroke-width: 2px; opacity: 1; stroke-dasharray: 9px, 9px;"/></g><g class="points"/><g class="text"/></g><g class="trace scatter tracec5a522" style="stroke-miterlimit: 2; opacity: 0.75;"><g class="fills"/><g class="errorbars"/><g class="lines"><path class="js-line" d="M477.43,112.32L501.54,94.82L502.34,94.27L525.65,79.34L526.46,78.87L545.75,68.12L546.55,67.7L557,62.51" style="vector-effect: non-scaling-stroke; fill: none; stroke: rgb(128, 128, 128); stroke-opacity: 1; stroke-width: 2px; opacity: 1; stroke-dasharray: 9px, 9px;"/></g><g class="points"/><g class="text"/></g><g class="trace scatter trace419930" style="stroke-miterlimit: 2; opacity: 0.75;"><g class="fills"/><g class="errorbars"/><g class="lines"><path class="js-line" d="M399.94,399L399.94,177.9" style="vector-effect: non-scaling-stroke; fill: none; stroke: rgb(0, 0, 0); stroke-opacity: 1; stroke-width: 2px; opacity: 1;"/></g><g class="points"/><g class="text"/></g><g class="trace scatter traceeb51ec" style="stroke-miterlimit: 2; opacity: 0.75;"><g class="fills"/><g class="errorbars"/><g class="lines"><path class="js-line" d="M0,21L557,21" style="vector-effect: non-scaling-stroke; fill: none; stroke: rgb(128, 128, 128); stroke-opacity: 1; stroke-width: 2px; opacity: 1; stroke-dasharray: 3px, 3px;"/></g><g class="points"/><g class="text"/></g><g class="trace scatter trace5dfcaa" style="stroke-miterlimit: 2; opacity: 0.75;"><g class="fills"/><g class="errorbars"/><g class="lines"><path class="js-line" d="M0,334.81L557,334.81" style="vector-effect: non-scaling-stroke; fill: none; stroke: rgb(128, 128, 128); stroke-opacity: 1; stroke-width: 2px; opacity: 1; stroke-dasharray: 3px, 3px;"/></g><g class="points"/><g class="text"/></g><g class="trace scatter trace5803e7" style="stroke-miterlimit: 2; opacity: 0.75;"><g class="fills"/><g class="errorbars"/><g class="lines"><path class="js-line" d="M307.31,177.9L421.89,177.9" style="vector-effect: non-scaling-stroke; fill: none; stroke: rgb(0, 0, 0); stroke-opacity: 1; stroke-width: 2px; opacity: 1;"/></g><g class="points"/><g class="text"/></g><g class="trace scatter tracefc2b38" style="stroke-miterlimit: 2; opacity: 0.75;"><g class="fills"/><g class="errorbars"/><g class="lines"><path class="js-line" d="M307.31,181.68L307.31,174.12" style="vector-effect: non-scaling-stroke; fill: none; stroke: rgb(0, 0, 0); stroke-opacity: 1; stroke-width: 2px; opacity: 1;"/></g><g class="points"/><g class="text"/></g><g class="trace scatter trace0e1d7e" style="stroke-miterlimit: 2; opacity: 0.75;"><g class="fills"/><g class="errorbars"/><g class="lines"><path class="js-line" d="M421.89,181.68L421.89,174.12" style="vector-effect: non-scaling-stroke; fill: none; stroke: rgb(0, 0, 0); stroke-opacity: 1; stroke-width: 2px; opacity: 1;"/></g><g class="points"/><g class="text"/></g></g></g><g class="overplot"/><path class="xlines-above crisp" d="M78,521H637" style="fill: none; stroke-width: 2px; stroke: rgb(175, 175, 175); stroke-opacity: 1;"/><path class="ylines-above crisp" d="M79,100V520" style="fill: none; stroke-width: 2px; stroke: rgb(175, 175, 175); stroke-opacity: 1;"/><g class="overlines-above"/><g class="xaxislayer-above"><g class="xtick"><text text-anchor="middle" x="0" y="536.4" transform="translate(126.42,0)" style="font-family: 'Open Sans', verdana, arial, sans-serif; font-size: 12px; fill: rgb(42, 63, 95); fill-opacity: 1; white-space: pre;">400</text></g><g class="xtick"><text text-anchor="middle" x="0" y="536.4" transform="translate(259.03999999999996,0)" style="font-family: 'Open Sans', verdana, arial, sans-serif; font-size: 12px; fill: rgb(42, 63, 95); fill-opacity: 1; white-space: pre;">600</text></g><g class="xtick"><text text-anchor="middle" x="0" y="536.4" transform="translate(391.65,0)" style="font-family: 'Open Sans', verdana, arial, sans-serif; font-size: 12px; fill: rgb(42, 63, 95); fill-opacity: 1; white-space: pre;">800</text></g><g class="xtick"><text text-anchor="middle" x="0" y="536.4" transform="translate(524.27,0)" style="font-family: 'Open Sans', verdana, arial, sans-serif; font-size: 12px; fill: rgb(42, 63, 95); fill-opacity: 1; white-space: pre;">1000</text></g></g><g class="yaxislayer-above"><g class="ytick"><text text-anchor="end" x="75.6" y="4.199999999999999" transform="translate(0,499)" style="font-family: 'Open Sans', verdana, arial, sans-serif; font-size: 12px; fill: rgb(42, 63, 95); fill-opacity: 1; white-space: pre;">0</text></g><g class="ytick"><text text-anchor="end" x="75.6" y="4.199999999999999" transform="translate(0,423.4)" style="font-family: 'Open Sans', verdana, arial, sans-serif; font-size: 12px; fill: rgb(42, 63, 95); fill-opacity: 1; white-space: pre;">0.2</text></g><g class="ytick"><text text-anchor="end" x="75.6" y="4.199999999999999" transform="translate(0,347.8)" style="font-family: 'Open Sans', verdana, arial, sans-serif; font-size: 12px; fill: rgb(42, 63, 95); fill-opacity: 1; white-space: pre;">0.4</text></g><g class="ytick"><text text-anchor="end" x="75.6" y="4.199999999999999" transform="translate(0,272.2)" style="font-family: 'Open Sans', verdana, arial, sans-serif; font-size: 12px; fill: rgb(42, 63, 95); fill-opacity: 1; white-space: pre;">0.6</text></g><g class="ytick"><text text-anchor="end" x="75.6" y="4.199999999999999" transform="translate(0,196.6)" style="font-family: 'Open Sans', verdana, arial, sans-serif; font-size: 12px; fill: rgb(42, 63, 95); fill-opacity: 1; white-space: pre;">0.8</text></g><g class="ytick"><text text-anchor="end" x="75.6" y="4.199999999999999" transform="translate(0,121)" style="font-family: 'Open Sans', verdana, arial, sans-serif; font-size: 12px; fill: rgb(42, 63, 95); fill-opacity: 1; white-space: pre;">1</text></g></g><g class="overaxes-above"/></g></g><g class="polarlayer"/><g class="ternarylayer"/><g class="geolayer"/><g class="funnelarealayer"/><g class="pielayer"/><g class="sunburstlayer"/><g class="glimages"/><defs id="topdefs-03c1c6"><g class="clips"/><clipPath id="legend03c1c6"><rect width="90" height="29" x="0" y="0"/></clipPath></defs><g class="layer-above"><g class="imagelayer"/><g class="shapelayer"/></g><g class="infolayer"><g class="legend" pointer-events="all" transform="translate(648.14, 100)"><rect class="bg" shape-rendering="crispEdges" width="90" height="29" x="0" y="0" style="stroke: rgb(68, 68, 68); stroke-opacity: 1; fill: rgb(255, 255, 255); fill-opacity: 1; stroke-width: 0px;"/><g class="scrollbox" transform="translate(0, 0)" clip-path="url('#legend03c1c6')"><g class="groups"><g class="traces" transform="translate(0, 14.5)" style="opacity: 1;"><text class="legendtext user-select-none" text-anchor="start" x="40" y="4.680000000000001" style="font-family: 'Open Sans', verdana, arial, sans-serif; font-size: 12px; fill: rgb(42, 63, 95); fill-opacity: 1; white-space: pre;">oddBall</text><g class="layers" style="opacity: 0.75;"><g class="legendfill"/><g class="legendlines"/><g class="legendsymbols"><g class="legendpoints"><path class="scatterpts" transform="translate(20,0)" d="M6,0A6,6 0 1,1 0,-6A6,6 0 0,1 6,0Z" style="opacity: 1; stroke-width: 2px; fill: rgb(128, 128, 128); fill-opacity: 1; stroke: rgb(0, 0, 0); stroke-opacity: 1;"/></g></g></g><rect class="legendtoggle" pointer-events="all" x="0" y="-9.5" width="130" height="19" style="cursor: pointer; fill: rgb(0, 0, 0); fill-opacity: 0;"/></g></g></g><rect class="scrollbar" rx="20" ry="3" width="0" height="0" x="0" y="0" style="fill: rgb(128, 139, 164); fill-opacity: 1;"/></g><g class="g-gtitle"><text class="gtitle" x="37.5" y="50" text-anchor="start" dy="0em" style="font-family: 'Open Sans', verdana, arial, sans-serif; font-size: 17px; fill: rgb(42, 63, 95); opacity: 1; font-weight: normal; white-space: pre;">psychometric curve - 36 participants.</text></g><g class="g-xtitle"><text class="xtitle" x="358.5" y="573" text-anchor="middle" style="font-family: 'Open Sans', verdana, arial, sans-serif; font-size: 14px; fill: rgb(42, 63, 95); opacity: 1; font-weight: normal; white-space: pre;">Duration of the odd ball stimulus</text></g><g class="g-ytitle"><text class="ytitle" transform="rotate(-90,41,310)" x="41" y="310" text-anchor="middle" style="font-family: 'Open Sans', verdana, arial, sans-serif; font-size: 14px; fill: rgb(42, 63, 95); opacity: 1; font-weight: normal; white-space: pre;">Prob. odd ball lasted longer than std.</text></g></g></svg>